<?xml version="1.0" standalone="no"?>
 <!DOCTYPE svg PUBLIC "-//W3C//DTD SVG 1.1//EN" 
 "http://www.w3.org/Graphics/SVG/1.1/DTD/svg11.dtd"> 
<svg
  xmlns:svg="http://www.w3.org/2000/svg"
  xmlns="http://www.w3.org/2000/svg"
  xmlns:xlink="http://www.w3.org/1999/xlink"
  version="1.1"
  width="297.0022mm" height="210.0072mm" viewBox="0.0000 0.0000 297.0022 210.0072">
<title>SVG Image created as 1400-PSU-F_Mask.svg date 2024/11/23 10:53:13 </title>
  <desc>Image generated by PCBNEW </desc>
<g style="fill:#000000; fill-opacity:1.0000;stroke:#000000; stroke-opacity:1.0000;
stroke-linecap:round; stroke-linejoin:round;"
 transform="translate(0 0) scale(1 1)">
</g>
<g style="fill:none; 
stroke:#000000; stroke-width:0.1500; stroke-opacity:1; 
stroke-linecap:round; stroke-linejoin:round;">
<path d="M177.0022 166.0072
L285.0022 166.0072
L285.0022 198.0072
L177.0022 198.0072
L177.0022 166.0072
" />
</g>
<g style="fill:none; 
stroke:#000000; stroke-width:0.1500; stroke-opacity:1; 
stroke-linecap:round; stroke-linejoin:round;">
<path d="M10.0000 10.0000
L287.0022 10.0000
L287.0022 200.0072
L10.0000 200.0072
L10.0000 10.0000
" />
</g>
<g style="fill:none; 
stroke:#000000; stroke-width:0.1500; stroke-opacity:1; 
stroke-linecap:round; stroke-linejoin:round;">
<path d="M12.0000 12.0000
L285.0022 12.0000
L285.0022 198.0072
L12.0000 198.0072
L12.0000 12.0000
" />
</g>
<g style="fill:none; 
stroke:#000000; stroke-width:0.1500; stroke-opacity:1; 
stroke-linecap:round; stroke-linejoin:round;">
<path d="M60.0000 12.0000
L60.0000 10.0000
" />
</g>
<g style="fill:none; 
stroke:#000000; stroke-width:0.1500; stroke-opacity:1; 
stroke-linecap:round; stroke-linejoin:round;">
<path d="M110.0000 12.0000
L110.0000 10.0000
" />
</g>
<g style="fill:none; 
stroke:#000000; stroke-width:0.1500; stroke-opacity:1; 
stroke-linecap:round; stroke-linejoin:round;">
<path d="M160.0000 12.0000
L160.0000 10.0000
" />
</g>
<g style="fill:none; 
stroke:#000000; stroke-width:0.1500; stroke-opacity:1; 
stroke-linecap:round; stroke-linejoin:round;">
<path d="M210.0000 12.0000
L210.0000 10.0000
" />
</g>
<g style="fill:none; 
stroke:#000000; stroke-width:0.1500; stroke-opacity:1; 
stroke-linecap:round; stroke-linejoin:round;">
<path d="M260.0000 12.0000
L260.0000 10.0000
" />
</g>
<g style="fill:none; 
stroke:#000000; stroke-width:0.1500; stroke-opacity:1; 
stroke-linecap:round; stroke-linejoin:round;">
<text x="35.0000" y="11.6500"
textLength="1.4281" font-size="1.7333" lengthAdjust="spacingAndGlyphs"
text-anchor="start" opacity="0" stroke-opacity="0">1</text>
<g class="stroked-text"><desc>1</desc>
<path d="M36.0892 11.5936
L35.3463 11.5936
" />
<path d="M35.7177 11.5936
L35.7177 10.2936
" />
<path d="M35.7177 10.2936
L35.5939 10.4793
" />
<path d="M35.5939 10.4793
L35.4701 10.6031
" />
<path d="M35.4701 10.6031
L35.3463 10.6650
" />
</g></g>
<g style="fill:none; 
stroke:#000000; stroke-width:0.1500; stroke-opacity:1; 
stroke-linecap:round; stroke-linejoin:round;">
<text x="85.0000" y="11.6500"
textLength="1.4281" font-size="1.7333" lengthAdjust="spacingAndGlyphs"
text-anchor="start" opacity="0" stroke-opacity="0">2</text>
<g class="stroked-text"><desc>2</desc>
<path d="M85.3463 10.4174
L85.4082 10.3555
" />
<path d="M85.4082 10.3555
L85.5320 10.2936
" />
<path d="M85.5320 10.2936
L85.8415 10.2936
" />
<path d="M85.8415 10.2936
L85.9654 10.3555
" />
<path d="M85.9654 10.3555
L86.0273 10.4174
" />
<path d="M86.0273 10.4174
L86.0892 10.5412
" />
<path d="M86.0892 10.5412
L86.0892 10.6650
" />
<path d="M86.0892 10.6650
L86.0273 10.8507
" />
<path d="M86.0273 10.8507
L85.2844 11.5936
" />
<path d="M85.2844 11.5936
L86.0892 11.5936
" />
</g></g>
<g style="fill:none; 
stroke:#000000; stroke-width:0.1500; stroke-opacity:1; 
stroke-linecap:round; stroke-linejoin:round;">
<text x="135.0000" y="11.6500"
textLength="1.4281" font-size="1.7333" lengthAdjust="spacingAndGlyphs"
text-anchor="start" opacity="0" stroke-opacity="0">3</text>
<g class="stroked-text"><desc>3</desc>
<path d="M135.2844 10.2936
L136.0892 10.2936
" />
<path d="M136.0892 10.2936
L135.6558 10.7888
" />
<path d="M135.6558 10.7888
L135.8415 10.7888
" />
<path d="M135.8415 10.7888
L135.9654 10.8507
" />
<path d="M135.9654 10.8507
L136.0273 10.9127
" />
<path d="M136.0273 10.9127
L136.0892 11.0365
" />
<path d="M136.0892 11.0365
L136.0892 11.3460
" />
<path d="M136.0892 11.3460
L136.0273 11.4698
" />
<path d="M136.0273 11.4698
L135.9654 11.5317
" />
<path d="M135.9654 11.5317
L135.8415 11.5936
" />
<path d="M135.8415 11.5936
L135.4701 11.5936
" />
<path d="M135.4701 11.5936
L135.3463 11.5317
" />
<path d="M135.3463 11.5317
L135.2844 11.4698
" />
</g></g>
<g style="fill:none; 
stroke:#000000; stroke-width:0.1500; stroke-opacity:1; 
stroke-linecap:round; stroke-linejoin:round;">
<text x="185.0000" y="11.6500"
textLength="1.4281" font-size="1.7333" lengthAdjust="spacingAndGlyphs"
text-anchor="start" opacity="0" stroke-opacity="0">4</text>
<g class="stroked-text"><desc>4</desc>
<path d="M185.9654 10.7269
L185.9654 11.5936
" />
<path d="M185.6558 10.2317
L185.3463 11.1603
" />
<path d="M185.3463 11.1603
L186.1511 11.1603
" />
</g></g>
<g style="fill:none; 
stroke:#000000; stroke-width:0.1500; stroke-opacity:1; 
stroke-linecap:round; stroke-linejoin:round;">
<text x="235.0000" y="11.6500"
textLength="1.4281" font-size="1.7333" lengthAdjust="spacingAndGlyphs"
text-anchor="start" opacity="0" stroke-opacity="0">5</text>
<g class="stroked-text"><desc>5</desc>
<path d="M236.0273 10.2936
L235.4082 10.2936
" />
<path d="M235.4082 10.2936
L235.3463 10.9127
" />
<path d="M235.3463 10.9127
L235.4082 10.8507
" />
<path d="M235.4082 10.8507
L235.5320 10.7888
" />
<path d="M235.5320 10.7888
L235.8415 10.7888
" />
<path d="M235.8415 10.7888
L235.9654 10.8507
" />
<path d="M235.9654 10.8507
L236.0273 10.9127
" />
<path d="M236.0273 10.9127
L236.0892 11.0365
" />
<path d="M236.0892 11.0365
L236.0892 11.3460
" />
<path d="M236.0892 11.3460
L236.0273 11.4698
" />
<path d="M236.0273 11.4698
L235.9654 11.5317
" />
<path d="M235.9654 11.5317
L235.8415 11.5936
" />
<path d="M235.8415 11.5936
L235.5320 11.5936
" />
<path d="M235.5320 11.5936
L235.4082 11.5317
" />
<path d="M235.4082 11.5317
L235.3463 11.4698
" />
</g></g>
<g style="fill:none; 
stroke:#000000; stroke-width:0.1500; stroke-opacity:1; 
stroke-linecap:round; stroke-linejoin:round;">
<text x="285.0000" y="11.6500"
textLength="1.4281" font-size="1.7333" lengthAdjust="spacingAndGlyphs"
text-anchor="start" opacity="0" stroke-opacity="0">6</text>
<g class="stroked-text"><desc>6</desc>
<path d="M285.9654 10.2936
L285.7177 10.2936
" />
<path d="M285.7177 10.2936
L285.5939 10.3555
" />
<path d="M285.5939 10.3555
L285.5320 10.4174
" />
<path d="M285.5320 10.4174
L285.4082 10.6031
" />
<path d="M285.4082 10.6031
L285.3463 10.8507
" />
<path d="M285.3463 10.8507
L285.3463 11.3460
" />
<path d="M285.3463 11.3460
L285.4082 11.4698
" />
<path d="M285.4082 11.4698
L285.4701 11.5317
" />
<path d="M285.4701 11.5317
L285.5939 11.5936
" />
<path d="M285.5939 11.5936
L285.8415 11.5936
" />
<path d="M285.8415 11.5936
L285.9654 11.5317
" />
<path d="M285.9654 11.5317
L286.0273 11.4698
" />
<path d="M286.0273 11.4698
L286.0892 11.3460
" />
<path d="M286.0892 11.3460
L286.0892 11.0365
" />
<path d="M286.0892 11.0365
L286.0273 10.9127
" />
<path d="M286.0273 10.9127
L285.9654 10.8507
" />
<path d="M285.9654 10.8507
L285.8415 10.7888
" />
<path d="M285.8415 10.7888
L285.5939 10.7888
" />
<path d="M285.5939 10.7888
L285.4701 10.8507
" />
<path d="M285.4701 10.8507
L285.4082 10.9127
" />
<path d="M285.4082 10.9127
L285.3463 11.0365
" />
</g></g>
<g style="fill:none; 
stroke:#000000; stroke-width:0.1500; stroke-opacity:1; 
stroke-linecap:round; stroke-linejoin:round;">
<path d="M60.0000 198.0072
L60.0000 200.0072
" />
</g>
<g style="fill:none; 
stroke:#000000; stroke-width:0.1500; stroke-opacity:1; 
stroke-linecap:round; stroke-linejoin:round;">
<path d="M110.0000 198.0072
L110.0000 200.0072
" />
</g>
<g style="fill:none; 
stroke:#000000; stroke-width:0.1500; stroke-opacity:1; 
stroke-linecap:round; stroke-linejoin:round;">
<path d="M160.0000 198.0072
L160.0000 200.0072
" />
</g>
<g style="fill:none; 
stroke:#000000; stroke-width:0.1500; stroke-opacity:1; 
stroke-linecap:round; stroke-linejoin:round;">
<path d="M210.0000 198.0072
L210.0000 200.0072
" />
</g>
<g style="fill:none; 
stroke:#000000; stroke-width:0.1500; stroke-opacity:1; 
stroke-linecap:round; stroke-linejoin:round;">
<path d="M260.0000 198.0072
L260.0000 200.0072
" />
</g>
<g style="fill:none; 
stroke:#000000; stroke-width:0.1500; stroke-opacity:1; 
stroke-linecap:round; stroke-linejoin:round;">
<text x="35.0000" y="199.6572"
textLength="1.4281" font-size="1.7333" lengthAdjust="spacingAndGlyphs"
text-anchor="start" opacity="0" stroke-opacity="0">1</text>
<g class="stroked-text"><desc>1</desc>
<path d="M36.0892 199.6008
L35.3463 199.6008
" />
<path d="M35.7177 199.6008
L35.7177 198.3008
" />
<path d="M35.7177 198.3008
L35.5939 198.4865
" />
<path d="M35.5939 198.4865
L35.4701 198.6103
" />
<path d="M35.4701 198.6103
L35.3463 198.6722
" />
</g></g>
<g style="fill:none; 
stroke:#000000; stroke-width:0.1500; stroke-opacity:1; 
stroke-linecap:round; stroke-linejoin:round;">
<text x="85.0000" y="199.6572"
textLength="1.4281" font-size="1.7333" lengthAdjust="spacingAndGlyphs"
text-anchor="start" opacity="0" stroke-opacity="0">2</text>
<g class="stroked-text"><desc>2</desc>
<path d="M85.3463 198.4246
L85.4082 198.3627
" />
<path d="M85.4082 198.3627
L85.5320 198.3008
" />
<path d="M85.5320 198.3008
L85.8415 198.3008
" />
<path d="M85.8415 198.3008
L85.9654 198.3627
" />
<path d="M85.9654 198.3627
L86.0273 198.4246
" />
<path d="M86.0273 198.4246
L86.0892 198.5484
" />
<path d="M86.0892 198.5484
L86.0892 198.6722
" />
<path d="M86.0892 198.6722
L86.0273 198.8579
" />
<path d="M86.0273 198.8579
L85.2844 199.6008
" />
<path d="M85.2844 199.6008
L86.0892 199.6008
" />
</g></g>
<g style="fill:none; 
stroke:#000000; stroke-width:0.1500; stroke-opacity:1; 
stroke-linecap:round; stroke-linejoin:round;">
<text x="135.0000" y="199.6572"
textLength="1.4281" font-size="1.7333" lengthAdjust="spacingAndGlyphs"
text-anchor="start" opacity="0" stroke-opacity="0">3</text>
<g class="stroked-text"><desc>3</desc>
<path d="M135.2844 198.3008
L136.0892 198.3008
" />
<path d="M136.0892 198.3008
L135.6558 198.7960
" />
<path d="M135.6558 198.7960
L135.8415 198.7960
" />
<path d="M135.8415 198.7960
L135.9654 198.8579
" />
<path d="M135.9654 198.8579
L136.0273 198.9199
" />
<path d="M136.0273 198.9199
L136.0892 199.0437
" />
<path d="M136.0892 199.0437
L136.0892 199.3532
" />
<path d="M136.0892 199.3532
L136.0273 199.4770
" />
<path d="M136.0273 199.4770
L135.9654 199.5389
" />
<path d="M135.9654 199.5389
L135.8415 199.6008
" />
<path d="M135.8415 199.6008
L135.4701 199.6008
" />
<path d="M135.4701 199.6008
L135.3463 199.5389
" />
<path d="M135.3463 199.5389
L135.2844 199.4770
" />
</g></g>
<g style="fill:none; 
stroke:#000000; stroke-width:0.1500; stroke-opacity:1; 
stroke-linecap:round; stroke-linejoin:round;">
<text x="185.0000" y="199.6572"
textLength="1.4281" font-size="1.7333" lengthAdjust="spacingAndGlyphs"
text-anchor="start" opacity="0" stroke-opacity="0">4</text>
<g class="stroked-text"><desc>4</desc>
<path d="M185.9654 198.7341
L185.9654 199.6008
" />
<path d="M185.6558 198.2389
L185.3463 199.1675
" />
<path d="M185.3463 199.1675
L186.1511 199.1675
" />
</g></g>
<g style="fill:none; 
stroke:#000000; stroke-width:0.1500; stroke-opacity:1; 
stroke-linecap:round; stroke-linejoin:round;">
<text x="235.0000" y="199.6572"
textLength="1.4281" font-size="1.7333" lengthAdjust="spacingAndGlyphs"
text-anchor="start" opacity="0" stroke-opacity="0">5</text>
<g class="stroked-text"><desc>5</desc>
<path d="M236.0273 198.3008
L235.4082 198.3008
" />
<path d="M235.4082 198.3008
L235.3463 198.9199
" />
<path d="M235.3463 198.9199
L235.4082 198.8579
" />
<path d="M235.4082 198.8579
L235.5320 198.7960
" />
<path d="M235.5320 198.7960
L235.8415 198.7960
" />
<path d="M235.8415 198.7960
L235.9654 198.8579
" />
<path d="M235.9654 198.8579
L236.0273 198.9199
" />
<path d="M236.0273 198.9199
L236.0892 199.0437
" />
<path d="M236.0892 199.0437
L236.0892 199.3532
" />
<path d="M236.0892 199.3532
L236.0273 199.4770
" />
<path d="M236.0273 199.4770
L235.9654 199.5389
" />
<path d="M235.9654 199.5389
L235.8415 199.6008
" />
<path d="M235.8415 199.6008
L235.5320 199.6008
" />
<path d="M235.5320 199.6008
L235.4082 199.5389
" />
<path d="M235.4082 199.5389
L235.3463 199.4770
" />
</g></g>
<g style="fill:none; 
stroke:#000000; stroke-width:0.1500; stroke-opacity:1; 
stroke-linecap:round; stroke-linejoin:round;">
<text x="285.0000" y="199.6572"
textLength="1.4281" font-size="1.7333" lengthAdjust="spacingAndGlyphs"
text-anchor="start" opacity="0" stroke-opacity="0">6</text>
<g class="stroked-text"><desc>6</desc>
<path d="M285.9654 198.3008
L285.7177 198.3008
" />
<path d="M285.7177 198.3008
L285.5939 198.3627
" />
<path d="M285.5939 198.3627
L285.5320 198.4246
" />
<path d="M285.5320 198.4246
L285.4082 198.6103
" />
<path d="M285.4082 198.6103
L285.3463 198.8579
" />
<path d="M285.3463 198.8579
L285.3463 199.3532
" />
<path d="M285.3463 199.3532
L285.4082 199.4770
" />
<path d="M285.4082 199.4770
L285.4701 199.5389
" />
<path d="M285.4701 199.5389
L285.5939 199.6008
" />
<path d="M285.5939 199.6008
L285.8415 199.6008
" />
<path d="M285.8415 199.6008
L285.9654 199.5389
" />
<path d="M285.9654 199.5389
L286.0273 199.4770
" />
<path d="M286.0273 199.4770
L286.0892 199.3532
" />
<path d="M286.0892 199.3532
L286.0892 199.0437
" />
<path d="M286.0892 199.0437
L286.0273 198.9199
" />
<path d="M286.0273 198.9199
L285.9654 198.8579
" />
<path d="M285.9654 198.8579
L285.8415 198.7960
" />
<path d="M285.8415 198.7960
L285.5939 198.7960
" />
<path d="M285.5939 198.7960
L285.4701 198.8579
" />
<path d="M285.4701 198.8579
L285.4082 198.9199
" />
<path d="M285.4082 198.9199
L285.3463 199.0437
" />
</g></g>
<g style="fill:none; 
stroke:#000000; stroke-width:0.1500; stroke-opacity:1; 
stroke-linecap:round; stroke-linejoin:round;">
<path d="M10.0000 60.0000
L12.0000 60.0000
" />
</g>
<g style="fill:none; 
stroke:#000000; stroke-width:0.1500; stroke-opacity:1; 
stroke-linecap:round; stroke-linejoin:round;">
<path d="M10.0000 110.0000
L12.0000 110.0000
" />
</g>
<g style="fill:none; 
stroke:#000000; stroke-width:0.1500; stroke-opacity:1; 
stroke-linecap:round; stroke-linejoin:round;">
<path d="M10.0000 160.0000
L12.0000 160.0000
" />
</g>
<g style="fill:none; 
stroke:#000000; stroke-width:0.1500; stroke-opacity:1; 
stroke-linecap:round; stroke-linejoin:round;">
<text x="11.0000" y="35.6500"
textLength="1.3043" font-size="1.7333" lengthAdjust="spacingAndGlyphs"
text-anchor="middle" opacity="0" stroke-opacity="0">A</text>
<g class="stroked-text"><desc>A</desc>
<path d="M10.6905 35.2222
L11.3095 35.2222
" />
<path d="M10.5667 35.5936
L11.0000 34.2936
" />
<path d="M11.0000 34.2936
L11.4333 35.5936
" />
</g></g>
<g style="fill:none; 
stroke:#000000; stroke-width:0.1500; stroke-opacity:1; 
stroke-linecap:round; stroke-linejoin:round;">
<text x="11.0000" y="85.6500"
textLength="1.4900" font-size="1.7333" lengthAdjust="spacingAndGlyphs"
text-anchor="middle" opacity="0" stroke-opacity="0">B</text>
<g class="stroked-text"><desc>B</desc>
<path d="M11.0929 84.9127
L11.2786 84.9746
" />
<path d="M11.2786 84.9746
L11.3405 85.0365
" />
<path d="M11.3405 85.0365
L11.4024 85.1603
" />
<path d="M11.4024 85.1603
L11.4024 85.3460
" />
<path d="M11.4024 85.3460
L11.3405 85.4698
" />
<path d="M11.3405 85.4698
L11.2786 85.5317
" />
<path d="M11.2786 85.5317
L11.1548 85.5936
" />
<path d="M11.1548 85.5936
L10.6595 85.5936
" />
<path d="M10.6595 85.5936
L10.6595 84.2936
" />
<path d="M10.6595 84.2936
L11.0929 84.2936
" />
<path d="M11.0929 84.2936
L11.2167 84.3555
" />
<path d="M11.2167 84.3555
L11.2786 84.4174
" />
<path d="M11.2786 84.4174
L11.3405 84.5412
" />
<path d="M11.3405 84.5412
L11.3405 84.6650
" />
<path d="M11.3405 84.6650
L11.2786 84.7888
" />
<path d="M11.2786 84.7888
L11.2167 84.8507
" />
<path d="M11.2167 84.8507
L11.0929 84.9127
" />
<path d="M11.0929 84.9127
L10.6595 84.9127
" />
</g></g>
<g style="fill:none; 
stroke:#000000; stroke-width:0.1500; stroke-opacity:1; 
stroke-linecap:round; stroke-linejoin:round;">
<text x="11.0000" y="135.6500"
textLength="1.4900" font-size="1.7333" lengthAdjust="spacingAndGlyphs"
text-anchor="middle" opacity="0" stroke-opacity="0">C</text>
<g class="stroked-text"><desc>C</desc>
<path d="M11.4024 135.4698
L11.3405 135.5317
" />
<path d="M11.3405 135.5317
L11.1548 135.5936
" />
<path d="M11.1548 135.5936
L11.0310 135.5936
" />
<path d="M11.0310 135.5936
L10.8452 135.5317
" />
<path d="M10.8452 135.5317
L10.7214 135.4079
" />
<path d="M10.7214 135.4079
L10.6595 135.2841
" />
<path d="M10.6595 135.2841
L10.5976 135.0365
" />
<path d="M10.5976 135.0365
L10.5976 134.8507
" />
<path d="M10.5976 134.8507
L10.6595 134.6031
" />
<path d="M10.6595 134.6031
L10.7214 134.4793
" />
<path d="M10.7214 134.4793
L10.8452 134.3555
" />
<path d="M10.8452 134.3555
L11.0310 134.2936
" />
<path d="M11.0310 134.2936
L11.1548 134.2936
" />
<path d="M11.1548 134.2936
L11.3405 134.3555
" />
<path d="M11.3405 134.3555
L11.4024 134.4174
" />
</g></g>
<g style="fill:none; 
stroke:#000000; stroke-width:0.1500; stroke-opacity:1; 
stroke-linecap:round; stroke-linejoin:round;">
<text x="11.0000" y="185.6500"
textLength="1.4900" font-size="1.7333" lengthAdjust="spacingAndGlyphs"
text-anchor="middle" opacity="0" stroke-opacity="0">D</text>
<g class="stroked-text"><desc>D</desc>
<path d="M10.6595 185.5936
L10.6595 184.2936
" />
<path d="M10.6595 184.2936
L10.9690 184.2936
" />
<path d="M10.9690 184.2936
L11.1548 184.3555
" />
<path d="M11.1548 184.3555
L11.2786 184.4793
" />
<path d="M11.2786 184.4793
L11.3405 184.6031
" />
<path d="M11.3405 184.6031
L11.4024 184.8507
" />
<path d="M11.4024 184.8507
L11.4024 185.0365
" />
<path d="M11.4024 185.0365
L11.3405 185.2841
" />
<path d="M11.3405 185.2841
L11.2786 185.4079
" />
<path d="M11.2786 185.4079
L11.1548 185.5317
" />
<path d="M11.1548 185.5317
L10.9690 185.5936
" />
<path d="M10.9690 185.5936
L10.6595 185.5936
" />
</g></g>
<g style="fill:none; 
stroke:#000000; stroke-width:0.1500; stroke-opacity:1; 
stroke-linecap:round; stroke-linejoin:round;">
<path d="M287.0022 60.0000
L285.0022 60.0000
" />
</g>
<g style="fill:none; 
stroke:#000000; stroke-width:0.1500; stroke-opacity:1; 
stroke-linecap:round; stroke-linejoin:round;">
<path d="M287.0022 110.0000
L285.0022 110.0000
" />
</g>
<g style="fill:none; 
stroke:#000000; stroke-width:0.1500; stroke-opacity:1; 
stroke-linecap:round; stroke-linejoin:round;">
<path d="M287.0022 160.0000
L285.0022 160.0000
" />
</g>
<g style="fill:none; 
stroke:#000000; stroke-width:0.1500; stroke-opacity:1; 
stroke-linecap:round; stroke-linejoin:round;">
<text x="286.0022" y="35.6500"
textLength="1.3043" font-size="1.7333" lengthAdjust="spacingAndGlyphs"
text-anchor="middle" opacity="0" stroke-opacity="0">A</text>
<g class="stroked-text"><desc>A</desc>
<path d="M285.6927 35.2222
L286.3117 35.2222
" />
<path d="M285.5689 35.5936
L286.0022 34.2936
" />
<path d="M286.0022 34.2936
L286.4355 35.5936
" />
</g></g>
<g style="fill:none; 
stroke:#000000; stroke-width:0.1500; stroke-opacity:1; 
stroke-linecap:round; stroke-linejoin:round;">
<text x="286.0022" y="85.6500"
textLength="1.4900" font-size="1.7333" lengthAdjust="spacingAndGlyphs"
text-anchor="middle" opacity="0" stroke-opacity="0">B</text>
<g class="stroked-text"><desc>B</desc>
<path d="M286.0951 84.9127
L286.2808 84.9746
" />
<path d="M286.2808 84.9746
L286.3427 85.0365
" />
<path d="M286.3427 85.0365
L286.4046 85.1603
" />
<path d="M286.4046 85.1603
L286.4046 85.3460
" />
<path d="M286.4046 85.3460
L286.3427 85.4698
" />
<path d="M286.3427 85.4698
L286.2808 85.5317
" />
<path d="M286.2808 85.5317
L286.1570 85.5936
" />
<path d="M286.1570 85.5936
L285.6617 85.5936
" />
<path d="M285.6617 85.5936
L285.6617 84.2936
" />
<path d="M285.6617 84.2936
L286.0951 84.2936
" />
<path d="M286.0951 84.2936
L286.2189 84.3555
" />
<path d="M286.2189 84.3555
L286.2808 84.4174
" />
<path d="M286.2808 84.4174
L286.3427 84.5412
" />
<path d="M286.3427 84.5412
L286.3427 84.6650
" />
<path d="M286.3427 84.6650
L286.2808 84.7888
" />
<path d="M286.2808 84.7888
L286.2189 84.8507
" />
<path d="M286.2189 84.8507
L286.0951 84.9127
" />
<path d="M286.0951 84.9127
L285.6617 84.9127
" />
</g></g>
<g style="fill:none; 
stroke:#000000; stroke-width:0.1500; stroke-opacity:1; 
stroke-linecap:round; stroke-linejoin:round;">
<text x="286.0022" y="135.6500"
textLength="1.4900" font-size="1.7333" lengthAdjust="spacingAndGlyphs"
text-anchor="middle" opacity="0" stroke-opacity="0">C</text>
<g class="stroked-text"><desc>C</desc>
<path d="M286.4046 135.4698
L286.3427 135.5317
" />
<path d="M286.3427 135.5317
L286.1570 135.5936
" />
<path d="M286.1570 135.5936
L286.0332 135.5936
" />
<path d="M286.0332 135.5936
L285.8474 135.5317
" />
<path d="M285.8474 135.5317
L285.7236 135.4079
" />
<path d="M285.7236 135.4079
L285.6617 135.2841
" />
<path d="M285.6617 135.2841
L285.5998 135.0365
" />
<path d="M285.5998 135.0365
L285.5998 134.8507
" />
<path d="M285.5998 134.8507
L285.6617 134.6031
" />
<path d="M285.6617 134.6031
L285.7236 134.4793
" />
<path d="M285.7236 134.4793
L285.8474 134.3555
" />
<path d="M285.8474 134.3555
L286.0332 134.2936
" />
<path d="M286.0332 134.2936
L286.1570 134.2936
" />
<path d="M286.1570 134.2936
L286.3427 134.3555
" />
<path d="M286.3427 134.3555
L286.4046 134.4174
" />
</g></g>
<g style="fill:none; 
stroke:#000000; stroke-width:0.1500; stroke-opacity:1; 
stroke-linecap:round; stroke-linejoin:round;">
<text x="286.0022" y="185.6500"
textLength="1.4900" font-size="1.7333" lengthAdjust="spacingAndGlyphs"
text-anchor="middle" opacity="0" stroke-opacity="0">D</text>
<g class="stroked-text"><desc>D</desc>
<path d="M285.6617 185.5936
L285.6617 184.2936
" />
<path d="M285.6617 184.2936
L285.9712 184.2936
" />
<path d="M285.9712 184.2936
L286.1570 184.3555
" />
<path d="M286.1570 184.3555
L286.2808 184.4793
" />
<path d="M286.2808 184.4793
L286.3427 184.6031
" />
<path d="M286.3427 184.6031
L286.4046 184.8507
" />
<path d="M286.4046 184.8507
L286.4046 185.0365
" />
<path d="M286.4046 185.0365
L286.3427 185.2841
" />
<path d="M286.3427 185.2841
L286.2808 185.4079
" />
<path d="M286.2808 185.4079
L286.1570 185.5317
" />
<path d="M286.1570 185.5317
L285.9712 185.5936
" />
<path d="M285.9712 185.5936
L285.6617 185.5936
" />
</g></g>
<g style="fill:none; 
stroke:#000000; stroke-width:0.1500; stroke-opacity:1; 
stroke-linecap:round; stroke-linejoin:round;">
<text x="200.0022" y="193.8572"
textLength="7.0071" font-size="2.0000" lengthAdjust="spacingAndGlyphs"
text-anchor="start" opacity="0" stroke-opacity="0">Date: </text>
<g class="stroked-text"><desc>Date: </desc>
<path d="M200.4580 193.7933
L200.4580 192.2933
" />
<path d="M200.4580 192.2933
L200.8152 192.2933
" />
<path d="M200.8152 192.2933
L201.0295 192.3648
" />
<path d="M201.0295 192.3648
L201.1723 192.5076
" />
<path d="M201.1723 192.5076
L201.2437 192.6505
" />
<path d="M201.2437 192.6505
L201.3152 192.9362
" />
<path d="M201.3152 192.9362
L201.3152 193.1505
" />
<path d="M201.3152 193.1505
L201.2437 193.4362
" />
<path d="M201.2437 193.4362
L201.1723 193.5790
" />
<path d="M201.1723 193.5790
L201.0295 193.7219
" />
<path d="M201.0295 193.7219
L200.8152 193.7933
" />
<path d="M200.8152 193.7933
L200.4580 193.7933
" />
<path d="M202.6009 193.7933
L202.6009 193.0076
" />
<path d="M202.6009 193.0076
L202.5295 192.8648
" />
<path d="M202.5295 192.8648
L202.3866 192.7933
" />
<path d="M202.3866 192.7933
L202.1009 192.7933
" />
<path d="M202.1009 192.7933
L201.9580 192.8648
" />
<path d="M202.6009 193.7219
L202.4580 193.7933
" />
<path d="M202.4580 193.7933
L202.1009 193.7933
" />
<path d="M202.1009 193.7933
L201.9580 193.7219
" />
<path d="M201.9580 193.7219
L201.8866 193.5790
" />
<path d="M201.8866 193.5790
L201.8866 193.4362
" />
<path d="M201.8866 193.4362
L201.9580 193.2933
" />
<path d="M201.9580 193.2933
L202.1009 193.2219
" />
<path d="M202.1009 193.2219
L202.4580 193.2219
" />
<path d="M202.4580 193.2219
L202.6009 193.1505
" />
<path d="M203.1009 192.7933
L203.6723 192.7933
" />
<path d="M203.3152 192.2933
L203.3152 193.5790
" />
<path d="M203.3152 193.5790
L203.3866 193.7219
" />
<path d="M203.3866 193.7219
L203.5295 193.7933
" />
<path d="M203.5295 193.7933
L203.6723 193.7933
" />
<path d="M204.7437 193.7219
L204.6009 193.7933
" />
<path d="M204.6009 193.7933
L204.3152 193.7933
" />
<path d="M204.3152 193.7933
L204.1723 193.7219
" />
<path d="M204.1723 193.7219
L204.1009 193.5790
" />
<path d="M204.1009 193.5790
L204.1009 193.0076
" />
<path d="M204.1009 193.0076
L204.1723 192.8648
" />
<path d="M204.1723 192.8648
L204.3152 192.7933
" />
<path d="M204.3152 192.7933
L204.6009 192.7933
" />
<path d="M204.6009 192.7933
L204.7437 192.8648
" />
<path d="M204.7437 192.8648
L204.8152 193.0076
" />
<path d="M204.8152 193.0076
L204.8152 193.1505
" />
<path d="M204.8152 193.1505
L204.1009 193.2933
" />
<path d="M205.4580 193.6505
L205.5295 193.7219
" />
<path d="M205.5295 193.7219
L205.4580 193.7933
" />
<path d="M205.4580 193.7933
L205.3866 193.7219
" />
<path d="M205.3866 193.7219
L205.4580 193.6505
" />
<path d="M205.4580 193.6505
L205.4580 193.7933
" />
<path d="M205.4580 192.8648
L205.5295 192.9362
" />
<path d="M205.5295 192.9362
L205.4580 193.0076
" />
<path d="M205.4580 193.0076
L205.3866 192.9362
" />
<path d="M205.3866 192.9362
L205.4580 192.8648
" />
<path d="M205.4580 192.8648
L205.4580 193.0076
" />
</g></g>
<g style="fill:none; 
stroke:#000000; stroke-width:0.1500; stroke-opacity:1; 
stroke-linecap:round; stroke-linejoin:round;">
<path d="M177.0022 194.5072
L285.0022 194.5072
" />
</g>
<g style="fill:none; 
stroke:#000000; stroke-width:0.1500; stroke-opacity:1; 
stroke-linecap:round; stroke-linejoin:round;">
<text x="178.0022" y="196.6572"
textLength="20.8643" font-size="2.0000" lengthAdjust="spacingAndGlyphs"
text-anchor="start" opacity="0" stroke-opacity="0">KiCad E.D.A. 8.0.6</text>
<g class="stroked-text"><desc>KiCad E.D.A. 8.0.6</desc>
<path d="M178.4580 196.5933
L178.4580 195.0933
" />
<path d="M179.3152 196.5933
L178.6723 195.7362
" />
<path d="M179.3152 195.0933
L178.4580 195.9505
" />
<path d="M179.9580 196.5933
L179.9580 195.5933
" />
<path d="M179.9580 195.0933
L179.8866 195.1648
" />
<path d="M179.8866 195.1648
L179.9580 195.2362
" />
<path d="M179.9580 195.2362
L180.0295 195.1648
" />
<path d="M180.0295 195.1648
L179.9580 195.0933
" />
<path d="M179.9580 195.0933
L179.9580 195.2362
" />
<path d="M181.5295 196.4505
L181.4580 196.5219
" />
<path d="M181.4580 196.5219
L181.2437 196.5933
" />
<path d="M181.2437 196.5933
L181.1009 196.5933
" />
<path d="M181.1009 196.5933
L180.8866 196.5219
" />
<path d="M180.8866 196.5219
L180.7437 196.3790
" />
<path d="M180.7437 196.3790
L180.6723 196.2362
" />
<path d="M180.6723 196.2362
L180.6009 195.9505
" />
<path d="M180.6009 195.9505
L180.6009 195.7362
" />
<path d="M180.6009 195.7362
L180.6723 195.4505
" />
<path d="M180.6723 195.4505
L180.7437 195.3076
" />
<path d="M180.7437 195.3076
L180.8866 195.1648
" />
<path d="M180.8866 195.1648
L181.1009 195.0933
" />
<path d="M181.1009 195.0933
L181.2437 195.0933
" />
<path d="M181.2437 195.0933
L181.4580 195.1648
" />
<path d="M181.4580 195.1648
L181.5295 195.2362
" />
<path d="M182.8152 196.5933
L182.8152 195.8076
" />
<path d="M182.8152 195.8076
L182.7437 195.6648
" />
<path d="M182.7437 195.6648
L182.6009 195.5933
" />
<path d="M182.6009 195.5933
L182.3152 195.5933
" />
<path d="M182.3152 195.5933
L182.1723 195.6648
" />
<path d="M182.8152 196.5219
L182.6723 196.5933
" />
<path d="M182.6723 196.5933
L182.3152 196.5933
" />
<path d="M182.3152 196.5933
L182.1723 196.5219
" />
<path d="M182.1723 196.5219
L182.1009 196.3790
" />
<path d="M182.1009 196.3790
L182.1009 196.2362
" />
<path d="M182.1009 196.2362
L182.1723 196.0933
" />
<path d="M182.1723 196.0933
L182.3152 196.0219
" />
<path d="M182.3152 196.0219
L182.6723 196.0219
" />
<path d="M182.6723 196.0219
L182.8152 195.9505
" />
<path d="M184.1723 196.5933
L184.1723 195.0933
" />
<path d="M184.1723 196.5219
L184.0295 196.5933
" />
<path d="M184.0295 196.5933
L183.7437 196.5933
" />
<path d="M183.7437 196.5933
L183.6009 196.5219
" />
<path d="M183.6009 196.5219
L183.5295 196.4505
" />
<path d="M183.5295 196.4505
L183.4580 196.3076
" />
<path d="M183.4580 196.3076
L183.4580 195.8790
" />
<path d="M183.4580 195.8790
L183.5295 195.7362
" />
<path d="M183.5295 195.7362
L183.6009 195.6648
" />
<path d="M183.6009 195.6648
L183.7437 195.5933
" />
<path d="M183.7437 195.5933
L184.0295 195.5933
" />
<path d="M184.0295 195.5933
L184.1723 195.6648
" />
<path d="M186.0295 195.8076
L186.5295 195.8076
" />
<path d="M186.7437 196.5933
L186.0295 196.5933
" />
<path d="M186.0295 196.5933
L186.0295 195.0933
" />
<path d="M186.0295 195.0933
L186.7437 195.0933
" />
<path d="M187.3866 196.4505
L187.4580 196.5219
" />
<path d="M187.4580 196.5219
L187.3866 196.5933
" />
<path d="M187.3866 196.5933
L187.3152 196.5219
" />
<path d="M187.3152 196.5219
L187.3866 196.4505
" />
<path d="M187.3866 196.4505
L187.3866 196.5933
" />
<path d="M188.1009 196.5933
L188.1009 195.0933
" />
<path d="M188.1009 195.0933
L188.4580 195.0933
" />
<path d="M188.4580 195.0933
L188.6723 195.1648
" />
<path d="M188.6723 195.1648
L188.8152 195.3076
" />
<path d="M188.8152 195.3076
L188.8866 195.4505
" />
<path d="M188.8866 195.4505
L188.9580 195.7362
" />
<path d="M188.9580 195.7362
L188.9580 195.9505
" />
<path d="M188.9580 195.9505
L188.8866 196.2362
" />
<path d="M188.8866 196.2362
L188.8152 196.3790
" />
<path d="M188.8152 196.3790
L188.6723 196.5219
" />
<path d="M188.6723 196.5219
L188.4580 196.5933
" />
<path d="M188.4580 196.5933
L188.1009 196.5933
" />
<path d="M189.6009 196.4505
L189.6723 196.5219
" />
<path d="M189.6723 196.5219
L189.6009 196.5933
" />
<path d="M189.6009 196.5933
L189.5295 196.5219
" />
<path d="M189.5295 196.5219
L189.6009 196.4505
" />
<path d="M189.6009 196.4505
L189.6009 196.5933
" />
<path d="M190.2437 196.1648
L190.9580 196.1648
" />
<path d="M190.1009 196.5933
L190.6009 195.0933
" />
<path d="M190.6009 195.0933
L191.1009 196.5933
" />
<path d="M191.6009 196.4505
L191.6723 196.5219
" />
<path d="M191.6723 196.5219
L191.6009 196.5933
" />
<path d="M191.6009 196.5933
L191.5295 196.5219
" />
<path d="M191.5295 196.5219
L191.6009 196.4505
" />
<path d="M191.6009 196.4505
L191.6009 196.5933
" />
<path d="M193.6723 195.7362
L193.5295 195.6648
" />
<path d="M193.5295 195.6648
L193.4580 195.5933
" />
<path d="M193.4580 195.5933
L193.3866 195.4505
" />
<path d="M193.3866 195.4505
L193.3866 195.3790
" />
<path d="M193.3866 195.3790
L193.4580 195.2362
" />
<path d="M193.4580 195.2362
L193.5295 195.1648
" />
<path d="M193.5295 195.1648
L193.6723 195.0933
" />
<path d="M193.6723 195.0933
L193.9580 195.0933
" />
<path d="M193.9580 195.0933
L194.1009 195.1648
" />
<path d="M194.1009 195.1648
L194.1723 195.2362
" />
<path d="M194.1723 195.2362
L194.2437 195.3790
" />
<path d="M194.2437 195.3790
L194.2437 195.4505
" />
<path d="M194.2437 195.4505
L194.1723 195.5933
" />
<path d="M194.1723 195.5933
L194.1009 195.6648
" />
<path d="M194.1009 195.6648
L193.9580 195.7362
" />
<path d="M193.9580 195.7362
L193.6723 195.7362
" />
<path d="M193.6723 195.7362
L193.5295 195.8076
" />
<path d="M193.5295 195.8076
L193.4580 195.8790
" />
<path d="M193.4580 195.8790
L193.3866 196.0219
" />
<path d="M193.3866 196.0219
L193.3866 196.3076
" />
<path d="M193.3866 196.3076
L193.4580 196.4505
" />
<path d="M193.4580 196.4505
L193.5295 196.5219
" />
<path d="M193.5295 196.5219
L193.6723 196.5933
" />
<path d="M193.6723 196.5933
L193.9580 196.5933
" />
<path d="M193.9580 196.5933
L194.1009 196.5219
" />
<path d="M194.1009 196.5219
L194.1723 196.4505
" />
<path d="M194.1723 196.4505
L194.2437 196.3076
" />
<path d="M194.2437 196.3076
L194.2437 196.0219
" />
<path d="M194.2437 196.0219
L194.1723 195.8790
" />
<path d="M194.1723 195.8790
L194.1009 195.8076
" />
<path d="M194.1009 195.8076
L193.9580 195.7362
" />
<path d="M194.8866 196.4505
L194.9580 196.5219
" />
<path d="M194.9580 196.5219
L194.8866 196.5933
" />
<path d="M194.8866 196.5933
L194.8152 196.5219
" />
<path d="M194.8152 196.5219
L194.8866 196.4505
" />
<path d="M194.8866 196.4505
L194.8866 196.5933
" />
<path d="M195.8866 195.0933
L196.0295 195.0933
" />
<path d="M196.0295 195.0933
L196.1723 195.1648
" />
<path d="M196.1723 195.1648
L196.2437 195.2362
" />
<path d="M196.2437 195.2362
L196.3152 195.3790
" />
<path d="M196.3152 195.3790
L196.3866 195.6648
" />
<path d="M196.3866 195.6648
L196.3866 196.0219
" />
<path d="M196.3866 196.0219
L196.3152 196.3076
" />
<path d="M196.3152 196.3076
L196.2437 196.4505
" />
<path d="M196.2437 196.4505
L196.1723 196.5219
" />
<path d="M196.1723 196.5219
L196.0295 196.5933
" />
<path d="M196.0295 196.5933
L195.8866 196.5933
" />
<path d="M195.8866 196.5933
L195.7437 196.5219
" />
<path d="M195.7437 196.5219
L195.6723 196.4505
" />
<path d="M195.6723 196.4505
L195.6009 196.3076
" />
<path d="M195.6009 196.3076
L195.5295 196.0219
" />
<path d="M195.5295 196.0219
L195.5295 195.6648
" />
<path d="M195.5295 195.6648
L195.6009 195.3790
" />
<path d="M195.6009 195.3790
L195.6723 195.2362
" />
<path d="M195.6723 195.2362
L195.7437 195.1648
" />
<path d="M195.7437 195.1648
L195.8866 195.0933
" />
<path d="M197.0295 196.4505
L197.1009 196.5219
" />
<path d="M197.1009 196.5219
L197.0295 196.5933
" />
<path d="M197.0295 196.5933
L196.9580 196.5219
" />
<path d="M196.9580 196.5219
L197.0295 196.4505
" />
<path d="M197.0295 196.4505
L197.0295 196.5933
" />
<path d="M198.3866 195.0933
L198.1009 195.0933
" />
<path d="M198.1009 195.0933
L197.9580 195.1648
" />
<path d="M197.9580 195.1648
L197.8866 195.2362
" />
<path d="M197.8866 195.2362
L197.7437 195.4505
" />
<path d="M197.7437 195.4505
L197.6723 195.7362
" />
<path d="M197.6723 195.7362
L197.6723 196.3076
" />
<path d="M197.6723 196.3076
L197.7437 196.4505
" />
<path d="M197.7437 196.4505
L197.8152 196.5219
" />
<path d="M197.8152 196.5219
L197.9580 196.5933
" />
<path d="M197.9580 196.5933
L198.2437 196.5933
" />
<path d="M198.2437 196.5933
L198.3866 196.5219
" />
<path d="M198.3866 196.5219
L198.4580 196.4505
" />
<path d="M198.4580 196.4505
L198.5295 196.3076
" />
<path d="M198.5295 196.3076
L198.5295 195.9505
" />
<path d="M198.5295 195.9505
L198.4580 195.8076
" />
<path d="M198.4580 195.8076
L198.3866 195.7362
" />
<path d="M198.3866 195.7362
L198.2437 195.6648
" />
<path d="M198.2437 195.6648
L197.9580 195.6648
" />
<path d="M197.9580 195.6648
L197.8152 195.7362
" />
<path d="M197.8152 195.7362
L197.7437 195.8076
" />
<path d="M197.7437 195.8076
L197.6723 195.9505
" />
</g></g>
<g style="fill:none; 
stroke:#000000; stroke-width:0.1500; stroke-opacity:1; 
stroke-linecap:round; stroke-linejoin:round;">
<path d="M177.0022 191.5072
L285.0022 191.5072
" />
</g>
<g style="fill:none; 
stroke:#000000; stroke-width:0.3000; stroke-opacity:1; 
stroke-linecap:round; stroke-linejoin:round;">
<text x="263.0022" y="193.8572"
textLength="6.3857" font-size="2.0000" lengthAdjust="spacingAndGlyphs"
text-anchor="start" opacity="0" stroke-opacity="0">Rev: </text>
<g class="stroked-text"><desc>Rev: </desc>
<path d="M264.4139 193.7855
L263.9139 193.0712
" />
<path d="M263.5567 193.7855
L263.5567 192.2855
" />
<path d="M263.5567 192.2855
L264.1281 192.2855
" />
<path d="M264.1281 192.2855
L264.2710 192.3570
" />
<path d="M264.2710 192.3570
L264.3424 192.4284
" />
<path d="M264.3424 192.4284
L264.4139 192.5712
" />
<path d="M264.4139 192.5712
L264.4139 192.7855
" />
<path d="M264.4139 192.7855
L264.3424 192.9284
" />
<path d="M264.3424 192.9284
L264.2710 192.9998
" />
<path d="M264.2710 192.9998
L264.1281 193.0712
" />
<path d="M264.1281 193.0712
L263.5567 193.0712
" />
<path d="M265.6281 193.7141
L265.4853 193.7855
" />
<path d="M265.4853 193.7855
L265.1996 193.7855
" />
<path d="M265.1996 193.7855
L265.0567 193.7141
" />
<path d="M265.0567 193.7141
L264.9853 193.5712
" />
<path d="M264.9853 193.5712
L264.9853 192.9998
" />
<path d="M264.9853 192.9998
L265.0567 192.8570
" />
<path d="M265.0567 192.8570
L265.1996 192.7855
" />
<path d="M265.1996 192.7855
L265.4853 192.7855
" />
<path d="M265.4853 192.7855
L265.6281 192.8570
" />
<path d="M265.6281 192.8570
L265.6996 192.9998
" />
<path d="M265.6996 192.9998
L265.6996 193.1427
" />
<path d="M265.6996 193.1427
L264.9853 193.2855
" />
<path d="M266.1996 192.7855
L266.5567 193.7855
" />
<path d="M266.5567 193.7855
L266.9139 192.7855
" />
<path d="M267.4853 193.6427
L267.5567 193.7141
" />
<path d="M267.5567 193.7141
L267.4853 193.7855
" />
<path d="M267.4853 193.7855
L267.4139 193.7141
" />
<path d="M267.4139 193.7141
L267.4853 193.6427
" />
<path d="M267.4853 193.6427
L267.4853 193.7855
" />
<path d="M267.4853 192.8570
L267.5567 192.9284
" />
<path d="M267.5567 192.9284
L267.4853 192.9998
" />
<path d="M267.4853 192.9998
L267.4139 192.9284
" />
<path d="M267.4139 192.9284
L267.4853 192.8570
" />
<path d="M267.4853 192.8570
L267.4853 192.9998
" />
</g></g>
<g style="fill:none; 
stroke:#000000; stroke-width:0.1500; stroke-opacity:1; 
stroke-linecap:round; stroke-linejoin:round;">
<text x="178.0022" y="193.8572"
textLength="9.3643" font-size="2.0000" lengthAdjust="spacingAndGlyphs"
text-anchor="start" opacity="0" stroke-opacity="0">Size: A4</text>
<g class="stroked-text"><desc>Size: A4</desc>
<path d="M178.3866 193.7219
L178.6009 193.7933
" />
<path d="M178.6009 193.7933
L178.9580 193.7933
" />
<path d="M178.9580 193.7933
L179.1009 193.7219
" />
<path d="M179.1009 193.7219
L179.1723 193.6505
" />
<path d="M179.1723 193.6505
L179.2437 193.5076
" />
<path d="M179.2437 193.5076
L179.2437 193.3648
" />
<path d="M179.2437 193.3648
L179.1723 193.2219
" />
<path d="M179.1723 193.2219
L179.1009 193.1505
" />
<path d="M179.1009 193.1505
L178.9580 193.0790
" />
<path d="M178.9580 193.0790
L178.6723 193.0076
" />
<path d="M178.6723 193.0076
L178.5295 192.9362
" />
<path d="M178.5295 192.9362
L178.4580 192.8648
" />
<path d="M178.4580 192.8648
L178.3866 192.7219
" />
<path d="M178.3866 192.7219
L178.3866 192.5790
" />
<path d="M178.3866 192.5790
L178.4580 192.4362
" />
<path d="M178.4580 192.4362
L178.5295 192.3648
" />
<path d="M178.5295 192.3648
L178.6723 192.2933
" />
<path d="M178.6723 192.2933
L179.0295 192.2933
" />
<path d="M179.0295 192.2933
L179.2437 192.3648
" />
<path d="M179.8866 193.7933
L179.8866 192.7933
" />
<path d="M179.8866 192.2933
L179.8152 192.3648
" />
<path d="M179.8152 192.3648
L179.8866 192.4362
" />
<path d="M179.8866 192.4362
L179.9580 192.3648
" />
<path d="M179.9580 192.3648
L179.8866 192.2933
" />
<path d="M179.8866 192.2933
L179.8866 192.4362
" />
<path d="M180.4580 192.7933
L181.2437 192.7933
" />
<path d="M181.2437 192.7933
L180.4580 193.7933
" />
<path d="M180.4580 193.7933
L181.2437 193.7933
" />
<path d="M182.3866 193.7219
L182.2437 193.7933
" />
<path d="M182.2437 193.7933
L181.9580 193.7933
" />
<path d="M181.9580 193.7933
L181.8152 193.7219
" />
<path d="M181.8152 193.7219
L181.7437 193.5790
" />
<path d="M181.7437 193.5790
L181.7437 193.0076
" />
<path d="M181.7437 193.0076
L181.8152 192.8648
" />
<path d="M181.8152 192.8648
L181.9580 192.7933
" />
<path d="M181.9580 192.7933
L182.2437 192.7933
" />
<path d="M182.2437 192.7933
L182.3866 192.8648
" />
<path d="M182.3866 192.8648
L182.4580 193.0076
" />
<path d="M182.4580 193.0076
L182.4580 193.1505
" />
<path d="M182.4580 193.1505
L181.7437 193.2933
" />
<path d="M183.1009 193.6505
L183.1723 193.7219
" />
<path d="M183.1723 193.7219
L183.1009 193.7933
" />
<path d="M183.1009 193.7933
L183.0295 193.7219
" />
<path d="M183.0295 193.7219
L183.1009 193.6505
" />
<path d="M183.1009 193.6505
L183.1009 193.7933
" />
<path d="M183.1009 192.8648
L183.1723 192.9362
" />
<path d="M183.1723 192.9362
L183.1009 193.0076
" />
<path d="M183.1009 193.0076
L183.0295 192.9362
" />
<path d="M183.0295 192.9362
L183.1009 192.8648
" />
<path d="M183.1009 192.8648
L183.1009 193.0076
" />
<path d="M184.8866 193.3648
L185.6009 193.3648
" />
<path d="M184.7437 193.7933
L185.2437 192.2933
" />
<path d="M185.2437 192.2933
L185.7437 193.7933
" />
<path d="M186.8866 192.7933
L186.8866 193.7933
" />
<path d="M186.5295 192.2219
L186.1723 193.2933
" />
<path d="M186.1723 193.2933
L187.1009 193.2933
" />
</g></g>
<g style="fill:none; 
stroke:#000000; stroke-width:0.1500; stroke-opacity:1; 
stroke-linecap:round; stroke-linejoin:round;">
<text x="263.0022" y="196.6572"
textLength="8.5071" font-size="2.0000" lengthAdjust="spacingAndGlyphs"
text-anchor="start" opacity="0" stroke-opacity="0">Id: 1/1</text>
<g class="stroked-text"><desc>Id: 1/1</desc>
<path d="M263.4580 196.5933
L263.4580 195.0933
" />
<path d="M264.8152 196.5933
L264.8152 195.0933
" />
<path d="M264.8152 196.5219
L264.6723 196.5933
" />
<path d="M264.6723 196.5933
L264.3866 196.5933
" />
<path d="M264.3866 196.5933
L264.2437 196.5219
" />
<path d="M264.2437 196.5219
L264.1723 196.4505
" />
<path d="M264.1723 196.4505
L264.1009 196.3076
" />
<path d="M264.1009 196.3076
L264.1009 195.8790
" />
<path d="M264.1009 195.8790
L264.1723 195.7362
" />
<path d="M264.1723 195.7362
L264.2437 195.6648
" />
<path d="M264.2437 195.6648
L264.3866 195.5933
" />
<path d="M264.3866 195.5933
L264.6723 195.5933
" />
<path d="M264.6723 195.5933
L264.8152 195.6648
" />
<path d="M265.5295 196.4505
L265.6009 196.5219
" />
<path d="M265.6009 196.5219
L265.5295 196.5933
" />
<path d="M265.5295 196.5933
L265.4580 196.5219
" />
<path d="M265.4580 196.5219
L265.5295 196.4505
" />
<path d="M265.5295 196.4505
L265.5295 196.5933
" />
<path d="M265.5295 195.6648
L265.6009 195.7362
" />
<path d="M265.6009 195.7362
L265.5295 195.8076
" />
<path d="M265.5295 195.8076
L265.4580 195.7362
" />
<path d="M265.4580 195.7362
L265.5295 195.6648
" />
<path d="M265.5295 195.6648
L265.5295 195.8076
" />
<path d="M268.1723 196.5933
L267.3152 196.5933
" />
<path d="M267.7437 196.5933
L267.7437 195.0933
" />
<path d="M267.7437 195.0933
L267.6009 195.3076
" />
<path d="M267.6009 195.3076
L267.4580 195.4505
" />
<path d="M267.4580 195.4505
L267.3152 195.5219
" />
<path d="M269.8866 195.0219
L268.6009 196.9505
" />
<path d="M271.1723 196.5933
L270.3152 196.5933
" />
<path d="M270.7437 196.5933
L270.7437 195.0933
" />
<path d="M270.7437 195.0933
L270.6009 195.3076
" />
<path d="M270.6009 195.3076
L270.4580 195.4505
" />
<path d="M270.4580 195.4505
L270.3152 195.5219
" />
</g></g>
<g style="fill:none; 
stroke:#000000; stroke-width:0.1500; stroke-opacity:1; 
stroke-linecap:round; stroke-linejoin:round;">
<path d="M177.0022 187.5072
L285.0022 187.5072
" />
</g>
<g style="fill:none; 
stroke:#000000; stroke-width:0.4000; stroke-opacity:1; 
stroke-linecap:round; stroke-linejoin:round;">
<text x="178.0022" y="190.3072"
textLength="9.6571" font-size="2.6667" lengthAdjust="spacingAndGlyphs"
text-anchor="start" opacity="0" stroke-opacity="0">Title: </text>
<g class="stroked-text"><desc>Title: </desc>
<path d="M178.6939 188.2116
L179.8368 188.2116
" />
<path d="M179.0154 190.2116
L179.2654 188.2116
" />
<path d="M180.2535 190.2116
L180.4201 188.8783
" />
<path d="M180.5035 188.2116
L180.3963 188.3069
" />
<path d="M180.3963 188.3069
L180.4796 188.4021
" />
<path d="M180.4796 188.4021
L180.5868 188.3069
" />
<path d="M180.5868 188.3069
L180.5035 188.2116
" />
<path d="M180.5035 188.2116
L180.4796 188.4021
" />
<path d="M181.0868 188.8783
L181.8487 188.8783
" />
<path d="M181.4558 188.2116
L181.2415 189.9259
" />
<path d="M181.2415 189.9259
L181.3130 190.1164
" />
<path d="M181.3130 190.1164
L181.4915 190.2116
" />
<path d="M181.4915 190.2116
L181.6820 190.2116
" />
<path d="M182.6344 190.2116
L182.4558 190.1164
" />
<path d="M182.4558 190.1164
L182.3844 189.9259
" />
<path d="M182.3844 189.9259
L182.5987 188.2116
" />
<path d="M184.1701 190.1164
L183.9677 190.2116
" />
<path d="M183.9677 190.2116
L183.5868 190.2116
" />
<path d="M183.5868 190.2116
L183.4082 190.1164
" />
<path d="M183.4082 190.1164
L183.3368 189.9259
" />
<path d="M183.3368 189.9259
L183.4320 189.1640
" />
<path d="M183.4320 189.1640
L183.5511 188.9735
" />
<path d="M183.5511 188.9735
L183.7535 188.8783
" />
<path d="M183.7535 188.8783
L184.1344 188.8783
" />
<path d="M184.1344 188.8783
L184.3130 188.9735
" />
<path d="M184.3130 188.9735
L184.3844 189.1640
" />
<path d="M184.3844 189.1640
L184.3606 189.3545
" />
<path d="M184.3606 189.3545
L183.3844 189.5450
" />
<path d="M185.1344 190.0212
L185.2177 190.1164
" />
<path d="M185.2177 190.1164
L185.1106 190.2116
" />
<path d="M185.1106 190.2116
L185.0273 190.1164
" />
<path d="M185.0273 190.1164
L185.1344 190.0212
" />
<path d="M185.1344 190.0212
L185.1106 190.2116
" />
<path d="M185.2654 188.9735
L185.3487 189.0688
" />
<path d="M185.3487 189.0688
L185.2415 189.1640
" />
<path d="M185.2415 189.1640
L185.1582 189.0688
" />
<path d="M185.1582 189.0688
L185.2654 188.9735
" />
<path d="M185.2654 188.9735
L185.2415 189.1640
" />
</g></g>
<g style="fill:none; 
stroke:#000000; stroke-width:0.1500; stroke-opacity:1; 
stroke-linecap:round; stroke-linejoin:round;">
<text x="178.0022" y="186.4572"
textLength="29.9357" font-size="2.0000" lengthAdjust="spacingAndGlyphs"
text-anchor="start" opacity="0" stroke-opacity="0">File: 1400-PSU.kicad_pcb</text>
<g class="stroked-text"><desc>File: 1400-PSU.kicad_pcb</desc>
<path d="M178.9580 185.6076
L178.4580 185.6076
" />
<path d="M178.4580 186.3933
L178.4580 184.8933
" />
<path d="M178.4580 184.8933
L179.1723 184.8933
" />
<path d="M179.7437 186.3933
L179.7437 185.3933
" />
<path d="M179.7437 184.8933
L179.6723 184.9648
" />
<path d="M179.6723 184.9648
L179.7437 185.0362
" />
<path d="M179.7437 185.0362
L179.8152 184.9648
" />
<path d="M179.8152 184.9648
L179.7437 184.8933
" />
<path d="M179.7437 184.8933
L179.7437 185.0362
" />
<path d="M180.6723 186.3933
L180.5295 186.3219
" />
<path d="M180.5295 186.3219
L180.4580 186.1790
" />
<path d="M180.4580 186.1790
L180.4580 184.8933
" />
<path d="M181.8152 186.3219
L181.6723 186.3933
" />
<path d="M181.6723 186.3933
L181.3866 186.3933
" />
<path d="M181.3866 186.3933
L181.2437 186.3219
" />
<path d="M181.2437 186.3219
L181.1723 186.1790
" />
<path d="M181.1723 186.1790
L181.1723 185.6076
" />
<path d="M181.1723 185.6076
L181.2437 185.4648
" />
<path d="M181.2437 185.4648
L181.3866 185.3933
" />
<path d="M181.3866 185.3933
L181.6723 185.3933
" />
<path d="M181.6723 185.3933
L181.8152 185.4648
" />
<path d="M181.8152 185.4648
L181.8866 185.6076
" />
<path d="M181.8866 185.6076
L181.8866 185.7505
" />
<path d="M181.8866 185.7505
L181.1723 185.8933
" />
<path d="M182.5295 186.2505
L182.6009 186.3219
" />
<path d="M182.6009 186.3219
L182.5295 186.3933
" />
<path d="M182.5295 186.3933
L182.4580 186.3219
" />
<path d="M182.4580 186.3219
L182.5295 186.2505
" />
<path d="M182.5295 186.2505
L182.5295 186.3933
" />
<path d="M182.5295 185.4648
L182.6009 185.5362
" />
<path d="M182.6009 185.5362
L182.5295 185.6076
" />
<path d="M182.5295 185.6076
L182.4580 185.5362
" />
<path d="M182.4580 185.5362
L182.5295 185.4648
" />
<path d="M182.5295 185.4648
L182.5295 185.6076
" />
<path d="M185.1723 186.3933
L184.3152 186.3933
" />
<path d="M184.7437 186.3933
L184.7437 184.8933
" />
<path d="M184.7437 184.8933
L184.6009 185.1076
" />
<path d="M184.6009 185.1076
L184.4580 185.2505
" />
<path d="M184.4580 185.2505
L184.3152 185.3219
" />
<path d="M186.4580 185.3933
L186.4580 186.3933
" />
<path d="M186.1009 184.8219
L185.7437 185.8933
" />
<path d="M185.7437 185.8933
L186.6723 185.8933
" />
<path d="M187.5295 184.8933
L187.6723 184.8933
" />
<path d="M187.6723 184.8933
L187.8152 184.9648
" />
<path d="M187.8152 184.9648
L187.8866 185.0362
" />
<path d="M187.8866 185.0362
L187.9580 185.1790
" />
<path d="M187.9580 185.1790
L188.0295 185.4648
" />
<path d="M188.0295 185.4648
L188.0295 185.8219
" />
<path d="M188.0295 185.8219
L187.9580 186.1076
" />
<path d="M187.9580 186.1076
L187.8866 186.2505
" />
<path d="M187.8866 186.2505
L187.8152 186.3219
" />
<path d="M187.8152 186.3219
L187.6723 186.3933
" />
<path d="M187.6723 186.3933
L187.5295 186.3933
" />
<path d="M187.5295 186.3933
L187.3866 186.3219
" />
<path d="M187.3866 186.3219
L187.3152 186.2505
" />
<path d="M187.3152 186.2505
L187.2437 186.1076
" />
<path d="M187.2437 186.1076
L187.1723 185.8219
" />
<path d="M187.1723 185.8219
L187.1723 185.4648
" />
<path d="M187.1723 185.4648
L187.2437 185.1790
" />
<path d="M187.2437 185.1790
L187.3152 185.0362
" />
<path d="M187.3152 185.0362
L187.3866 184.9648
" />
<path d="M187.3866 184.9648
L187.5295 184.8933
" />
<path d="M188.9580 184.8933
L189.1009 184.8933
" />
<path d="M189.1009 184.8933
L189.2437 184.9648
" />
<path d="M189.2437 184.9648
L189.3152 185.0362
" />
<path d="M189.3152 185.0362
L189.3866 185.1790
" />
<path d="M189.3866 185.1790
L189.4580 185.4648
" />
<path d="M189.4580 185.4648
L189.4580 185.8219
" />
<path d="M189.4580 185.8219
L189.3866 186.1076
" />
<path d="M189.3866 186.1076
L189.3152 186.2505
" />
<path d="M189.3152 186.2505
L189.2437 186.3219
" />
<path d="M189.2437 186.3219
L189.1009 186.3933
" />
<path d="M189.1009 186.3933
L188.9580 186.3933
" />
<path d="M188.9580 186.3933
L188.8152 186.3219
" />
<path d="M188.8152 186.3219
L188.7437 186.2505
" />
<path d="M188.7437 186.2505
L188.6723 186.1076
" />
<path d="M188.6723 186.1076
L188.6009 185.8219
" />
<path d="M188.6009 185.8219
L188.6009 185.4648
" />
<path d="M188.6009 185.4648
L188.6723 185.1790
" />
<path d="M188.6723 185.1790
L188.7437 185.0362
" />
<path d="M188.7437 185.0362
L188.8152 184.9648
" />
<path d="M188.8152 184.9648
L188.9580 184.8933
" />
<path d="M190.1009 185.8219
L191.2437 185.8219
" />
<path d="M191.9580 186.3933
L191.9580 184.8933
" />
<path d="M191.9580 184.8933
L192.5295 184.8933
" />
<path d="M192.5295 184.8933
L192.6723 184.9648
" />
<path d="M192.6723 184.9648
L192.7437 185.0362
" />
<path d="M192.7437 185.0362
L192.8152 185.1790
" />
<path d="M192.8152 185.1790
L192.8152 185.3933
" />
<path d="M192.8152 185.3933
L192.7437 185.5362
" />
<path d="M192.7437 185.5362
L192.6723 185.6076
" />
<path d="M192.6723 185.6076
L192.5295 185.6790
" />
<path d="M192.5295 185.6790
L191.9580 185.6790
" />
<path d="M193.3866 186.3219
L193.6009 186.3933
" />
<path d="M193.6009 186.3933
L193.9580 186.3933
" />
<path d="M193.9580 186.3933
L194.1009 186.3219
" />
<path d="M194.1009 186.3219
L194.1723 186.2505
" />
<path d="M194.1723 186.2505
L194.2437 186.1076
" />
<path d="M194.2437 186.1076
L194.2437 185.9648
" />
<path d="M194.2437 185.9648
L194.1723 185.8219
" />
<path d="M194.1723 185.8219
L194.1009 185.7505
" />
<path d="M194.1009 185.7505
L193.9580 185.6790
" />
<path d="M193.9580 185.6790
L193.6723 185.6076
" />
<path d="M193.6723 185.6076
L193.5295 185.5362
" />
<path d="M193.5295 185.5362
L193.4580 185.4648
" />
<path d="M193.4580 185.4648
L193.3866 185.3219
" />
<path d="M193.3866 185.3219
L193.3866 185.1790
" />
<path d="M193.3866 185.1790
L193.4580 185.0362
" />
<path d="M193.4580 185.0362
L193.5295 184.9648
" />
<path d="M193.5295 184.9648
L193.6723 184.8933
" />
<path d="M193.6723 184.8933
L194.0295 184.8933
" />
<path d="M194.0295 184.8933
L194.2437 184.9648
" />
<path d="M194.8866 184.8933
L194.8866 186.1076
" />
<path d="M194.8866 186.1076
L194.9580 186.2505
" />
<path d="M194.9580 186.2505
L195.0295 186.3219
" />
<path d="M195.0295 186.3219
L195.1723 186.3933
" />
<path d="M195.1723 186.3933
L195.4580 186.3933
" />
<path d="M195.4580 186.3933
L195.6009 186.3219
" />
<path d="M195.6009 186.3219
L195.6723 186.2505
" />
<path d="M195.6723 186.2505
L195.7437 186.1076
" />
<path d="M195.7437 186.1076
L195.7437 184.8933
" />
<path d="M196.4580 186.2505
L196.5295 186.3219
" />
<path d="M196.5295 186.3219
L196.4580 186.3933
" />
<path d="M196.4580 186.3933
L196.3866 186.3219
" />
<path d="M196.3866 186.3219
L196.4580 186.2505
" />
<path d="M196.4580 186.2505
L196.4580 186.3933
" />
<path d="M197.1723 186.3933
L197.1723 184.8933
" />
<path d="M197.3152 185.8219
L197.7437 186.3933
" />
<path d="M197.7437 185.3933
L197.1723 185.9648
" />
<path d="M198.3866 186.3933
L198.3866 185.3933
" />
<path d="M198.3866 184.8933
L198.3152 184.9648
" />
<path d="M198.3152 184.9648
L198.3866 185.0362
" />
<path d="M198.3866 185.0362
L198.4580 184.9648
" />
<path d="M198.4580 184.9648
L198.3866 184.8933
" />
<path d="M198.3866 184.8933
L198.3866 185.0362
" />
<path d="M199.7437 186.3219
L199.6009 186.3933
" />
<path d="M199.6009 186.3933
L199.3152 186.3933
" />
<path d="M199.3152 186.3933
L199.1723 186.3219
" />
<path d="M199.1723 186.3219
L199.1009 186.2505
" />
<path d="M199.1009 186.2505
L199.0295 186.1076
" />
<path d="M199.0295 186.1076
L199.0295 185.6790
" />
<path d="M199.0295 185.6790
L199.1009 185.5362
" />
<path d="M199.1009 185.5362
L199.1723 185.4648
" />
<path d="M199.1723 185.4648
L199.3152 185.3933
" />
<path d="M199.3152 185.3933
L199.6009 185.3933
" />
<path d="M199.6009 185.3933
L199.7437 185.4648
" />
<path d="M201.0295 186.3933
L201.0295 185.6076
" />
<path d="M201.0295 185.6076
L200.9580 185.4648
" />
<path d="M200.9580 185.4648
L200.8152 185.3933
" />
<path d="M200.8152 185.3933
L200.5295 185.3933
" />
<path d="M200.5295 185.3933
L200.3866 185.4648
" />
<path d="M201.0295 186.3219
L200.8866 186.3933
" />
<path d="M200.8866 186.3933
L200.5295 186.3933
" />
<path d="M200.5295 186.3933
L200.3866 186.3219
" />
<path d="M200.3866 186.3219
L200.3152 186.1790
" />
<path d="M200.3152 186.1790
L200.3152 186.0362
" />
<path d="M200.3152 186.0362
L200.3866 185.8933
" />
<path d="M200.3866 185.8933
L200.5295 185.8219
" />
<path d="M200.5295 185.8219
L200.8866 185.8219
" />
<path d="M200.8866 185.8219
L201.0295 185.7505
" />
<path d="M202.3866 186.3933
L202.3866 184.8933
" />
<path d="M202.3866 186.3219
L202.2437 186.3933
" />
<path d="M202.2437 186.3933
L201.9580 186.3933
" />
<path d="M201.9580 186.3933
L201.8152 186.3219
" />
<path d="M201.8152 186.3219
L201.7437 186.2505
" />
<path d="M201.7437 186.2505
L201.6723 186.1076
" />
<path d="M201.6723 186.1076
L201.6723 185.6790
" />
<path d="M201.6723 185.6790
L201.7437 185.5362
" />
<path d="M201.7437 185.5362
L201.8152 185.4648
" />
<path d="M201.8152 185.4648
L201.9580 185.3933
" />
<path d="M201.9580 185.3933
L202.2437 185.3933
" />
<path d="M202.2437 185.3933
L202.3866 185.4648
" />
<path d="M202.7437 186.5362
L203.8866 186.5362
" />
<path d="M204.2437 185.3933
L204.2437 186.8933
" />
<path d="M204.2437 185.4648
L204.3866 185.3933
" />
<path d="M204.3866 185.3933
L204.6723 185.3933
" />
<path d="M204.6723 185.3933
L204.8152 185.4648
" />
<path d="M204.8152 185.4648
L204.8866 185.5362
" />
<path d="M204.8866 185.5362
L204.9580 185.6790
" />
<path d="M204.9580 185.6790
L204.9580 186.1076
" />
<path d="M204.9580 186.1076
L204.8866 186.2505
" />
<path d="M204.8866 186.2505
L204.8152 186.3219
" />
<path d="M204.8152 186.3219
L204.6723 186.3933
" />
<path d="M204.6723 186.3933
L204.3866 186.3933
" />
<path d="M204.3866 186.3933
L204.2437 186.3219
" />
<path d="M206.2437 186.3219
L206.1009 186.3933
" />
<path d="M206.1009 186.3933
L205.8152 186.3933
" />
<path d="M205.8152 186.3933
L205.6723 186.3219
" />
<path d="M205.6723 186.3219
L205.6009 186.2505
" />
<path d="M205.6009 186.2505
L205.5295 186.1076
" />
<path d="M205.5295 186.1076
L205.5295 185.6790
" />
<path d="M205.5295 185.6790
L205.6009 185.5362
" />
<path d="M205.6009 185.5362
L205.6723 185.4648
" />
<path d="M205.6723 185.4648
L205.8152 185.3933
" />
<path d="M205.8152 185.3933
L206.1009 185.3933
" />
<path d="M206.1009 185.3933
L206.2437 185.4648
" />
<path d="M206.8866 186.3933
L206.8866 184.8933
" />
<path d="M206.8866 185.4648
L207.0295 185.3933
" />
<path d="M207.0295 185.3933
L207.3152 185.3933
" />
<path d="M207.3152 185.3933
L207.4580 185.4648
" />
<path d="M207.4580 185.4648
L207.5295 185.5362
" />
<path d="M207.5295 185.5362
L207.6009 185.6790
" />
<path d="M207.6009 185.6790
L207.6009 186.1076
" />
<path d="M207.6009 186.1076
L207.5295 186.2505
" />
<path d="M207.5295 186.2505
L207.4580 186.3219
" />
<path d="M207.4580 186.3219
L207.3152 186.3933
" />
<path d="M207.3152 186.3933
L207.0295 186.3933
" />
<path d="M207.0295 186.3933
L206.8866 186.3219
" />
</g></g>
<g style="fill:none; 
stroke:#000000; stroke-width:0.1500; stroke-opacity:1; 
stroke-linecap:round; stroke-linejoin:round;">
<path d="M177.0022 181.5072
L285.0022 181.5072
" />
</g>
<g style="fill:none; 
stroke:#000000; stroke-width:0.1500; stroke-opacity:1; 
stroke-linecap:round; stroke-linejoin:round;">
<text x="178.0022" y="183.7572"
textLength="8.2214" font-size="2.0000" lengthAdjust="spacingAndGlyphs"
text-anchor="start" opacity="0" stroke-opacity="0">Sheet: </text>
<g class="stroked-text"><desc>Sheet: </desc>
<path d="M178.3866 183.6219
L178.6009 183.6933
" />
<path d="M178.6009 183.6933
L178.9580 183.6933
" />
<path d="M178.9580 183.6933
L179.1009 183.6219
" />
<path d="M179.1009 183.6219
L179.1723 183.5505
" />
<path d="M179.1723 183.5505
L179.2437 183.4076
" />
<path d="M179.2437 183.4076
L179.2437 183.2648
" />
<path d="M179.2437 183.2648
L179.1723 183.1219
" />
<path d="M179.1723 183.1219
L179.1009 183.0505
" />
<path d="M179.1009 183.0505
L178.9580 182.9790
" />
<path d="M178.9580 182.9790
L178.6723 182.9076
" />
<path d="M178.6723 182.9076
L178.5295 182.8362
" />
<path d="M178.5295 182.8362
L178.4580 182.7648
" />
<path d="M178.4580 182.7648
L178.3866 182.6219
" />
<path d="M178.3866 182.6219
L178.3866 182.4790
" />
<path d="M178.3866 182.4790
L178.4580 182.3362
" />
<path d="M178.4580 182.3362
L178.5295 182.2648
" />
<path d="M178.5295 182.2648
L178.6723 182.1933
" />
<path d="M178.6723 182.1933
L179.0295 182.1933
" />
<path d="M179.0295 182.1933
L179.2437 182.2648
" />
<path d="M179.8866 183.6933
L179.8866 182.1933
" />
<path d="M180.5295 183.6933
L180.5295 182.9076
" />
<path d="M180.5295 182.9076
L180.4580 182.7648
" />
<path d="M180.4580 182.7648
L180.3152 182.6933
" />
<path d="M180.3152 182.6933
L180.1009 182.6933
" />
<path d="M180.1009 182.6933
L179.9580 182.7648
" />
<path d="M179.9580 182.7648
L179.8866 182.8362
" />
<path d="M181.8152 183.6219
L181.6723 183.6933
" />
<path d="M181.6723 183.6933
L181.3866 183.6933
" />
<path d="M181.3866 183.6933
L181.2437 183.6219
" />
<path d="M181.2437 183.6219
L181.1723 183.4790
" />
<path d="M181.1723 183.4790
L181.1723 182.9076
" />
<path d="M181.1723 182.9076
L181.2437 182.7648
" />
<path d="M181.2437 182.7648
L181.3866 182.6933
" />
<path d="M181.3866 182.6933
L181.6723 182.6933
" />
<path d="M181.6723 182.6933
L181.8152 182.7648
" />
<path d="M181.8152 182.7648
L181.8866 182.9076
" />
<path d="M181.8866 182.9076
L181.8866 183.0505
" />
<path d="M181.8866 183.0505
L181.1723 183.1933
" />
<path d="M183.1009 183.6219
L182.9580 183.6933
" />
<path d="M182.9580 183.6933
L182.6723 183.6933
" />
<path d="M182.6723 183.6933
L182.5295 183.6219
" />
<path d="M182.5295 183.6219
L182.4580 183.4790
" />
<path d="M182.4580 183.4790
L182.4580 182.9076
" />
<path d="M182.4580 182.9076
L182.5295 182.7648
" />
<path d="M182.5295 182.7648
L182.6723 182.6933
" />
<path d="M182.6723 182.6933
L182.9580 182.6933
" />
<path d="M182.9580 182.6933
L183.1009 182.7648
" />
<path d="M183.1009 182.7648
L183.1723 182.9076
" />
<path d="M183.1723 182.9076
L183.1723 183.0505
" />
<path d="M183.1723 183.0505
L182.4580 183.1933
" />
<path d="M183.6009 182.6933
L184.1723 182.6933
" />
<path d="M183.8152 182.1933
L183.8152 183.4790
" />
<path d="M183.8152 183.4790
L183.8866 183.6219
" />
<path d="M183.8866 183.6219
L184.0295 183.6933
" />
<path d="M184.0295 183.6933
L184.1723 183.6933
" />
<path d="M184.6723 183.5505
L184.7437 183.6219
" />
<path d="M184.7437 183.6219
L184.6723 183.6933
" />
<path d="M184.6723 183.6933
L184.6009 183.6219
" />
<path d="M184.6009 183.6219
L184.6723 183.5505
" />
<path d="M184.6723 183.5505
L184.6723 183.6933
" />
<path d="M184.6723 182.7648
L184.7437 182.8362
" />
<path d="M184.7437 182.8362
L184.6723 182.9076
" />
<path d="M184.6723 182.9076
L184.6009 182.8362
" />
<path d="M184.6009 182.8362
L184.6723 182.7648
" />
<path d="M184.6723 182.7648
L184.6723 182.9076
" />
</g></g>
<g style="fill:none; 
stroke:#000000; stroke-width:0.3000; stroke-opacity:1; 
stroke-linecap:round; stroke-linejoin:round;">
<text x="178.0022" y="180.7572"
textLength="0.9000" font-size="2.0000" lengthAdjust="spacingAndGlyphs"
text-anchor="start" opacity="0" stroke-opacity="0"></text>
<g class="stroked-text"><desc></desc>
</g></g>
<g style="fill:none; 
stroke:#000000; stroke-width:0.1500; stroke-opacity:1; 
stroke-linecap:round; stroke-linejoin:round;">
<text x="178.0022" y="177.7572"
textLength="0.4500" font-size="2.0000" lengthAdjust="spacingAndGlyphs"
text-anchor="start" opacity="0" stroke-opacity="0"></text>
<g class="stroked-text"><desc></desc>
</g></g>
<g style="fill:none; 
stroke:#000000; stroke-width:0.1500; stroke-opacity:1; 
stroke-linecap:round; stroke-linejoin:round;">
<text x="178.0022" y="174.7572"
textLength="0.4500" font-size="2.0000" lengthAdjust="spacingAndGlyphs"
text-anchor="start" opacity="0" stroke-opacity="0"></text>
<g class="stroked-text"><desc></desc>
</g></g>
<g style="fill:none; 
stroke:#000000; stroke-width:0.1500; stroke-opacity:1; 
stroke-linecap:round; stroke-linejoin:round;">
<text x="178.0022" y="171.7572"
textLength="0.4500" font-size="2.0000" lengthAdjust="spacingAndGlyphs"
text-anchor="start" opacity="0" stroke-opacity="0"></text>
<g class="stroked-text"><desc></desc>
</g></g>
<g style="fill:none; 
stroke:#000000; stroke-width:0.1500; stroke-opacity:1; 
stroke-linecap:round; stroke-linejoin:round;">
<text x="178.0022" y="168.7572"
textLength="0.4500" font-size="2.0000" lengthAdjust="spacingAndGlyphs"
text-anchor="start" opacity="0" stroke-opacity="0"></text>
<g class="stroked-text"><desc></desc>
</g></g>
<g style="fill:none; 
stroke:#000000; stroke-width:0.1500; stroke-opacity:1; 
stroke-linecap:round; stroke-linejoin:round;">
<path d="M197.0022 191.5072
L197.0022 194.5072
" />
</g>
<g style="fill:none; 
stroke:#000000; stroke-width:0.1500; stroke-opacity:1; 
stroke-linecap:round; stroke-linejoin:round;">
<path d="M261.0022 191.5072
L261.0022 198.0072
" />
</g>
<g style="fill:#840084; fill-opacity:1.0000; stroke:none;">
<circle cx="197.5400" cy="117.6900" r="1.9500" /> 
</g>
<g style="fill:#840084; fill-opacity:1.0000; stroke:none;">
<circle cx="197.5400" cy="117.6900" r="3.5000" /> 
</g>
<g style="fill:#840084; fill-opacity:1.0000; stroke:none;">
<circle cx="61.8500" cy="82.3900" r="0.8000" /> 
<path style="fill:#840084; fill-opacity:1.0000; stroke:none;fill-rule:evenodd;"
d="M 69.8500,80.3900
71.8500,80.3900
71.8500,84.3900
69.8500,84.3900
Z" /> 
</g>
<g style="fill:none; 
stroke:#840084; stroke-width:2.0000; stroke-opacity:1; 
stroke-linecap:round; stroke-linejoin:round;">
<path d="M64.8500 81.7400
L64.8500 83.0400
" />
<path d="M64.6000 77.8900
L63.1000 77.8900
" />
<path d="M64.6000 86.8900
L63.1000 86.8900
" />
</g>
<g style="fill:#840084; fill-opacity:1.0000; stroke:none;">
<circle cx="125.2900" cy="110.2400" r="0.8000" /> 
</g>
<g style="fill:#840084; fill-opacity:1.0000; stroke:none;">
<circle cx="125.2900" cy="115.2400" r="0.8000" /> 
</g>
<g style="fill:#840084; fill-opacity:1.0000; stroke:none;">
<circle cx="92.2800" cy="84.0400" r="0.8000" /> 
</g>
<g style="fill:#840084; fill-opacity:1.0000; stroke:none;">
<circle cx="97.3600" cy="84.0400" r="0.8000" /> 
<path style="fill:#840084; fill-opacity:1.0000; stroke:none;fill-rule:evenodd;"
d="M 142.2200,117.4524
140.6200,117.4524
140.6200,115.8524
142.2200,115.8524
Z" /> 
</g>
<g style="fill:#840084; fill-opacity:1.0000; stroke:none;">
<circle cx="141.4200" cy="114.1524" r="0.8000" /> 
<path style="fill:#840084; fill-opacity:1.0000; stroke:none;fill-rule:evenodd;"
d="M 100.7500,66.4000
100.7500,68.6000
98.5500,68.6000
98.5500,66.4000
Z" /> 
</g>
<g style="fill:#840084; fill-opacity:1.0000; stroke:none;">
<circle cx="89.4900" cy="67.5000" r="1.1000" /> 
<circle cx="109.1400" cy="67.4400" r="1.3000" /> 
</g>
<g style="fill:#840084; fill-opacity:1.0000; stroke:none;">
<circle cx="104.1400" cy="67.4400" r="1.3000" /> 
</g>
<g style="fill:#840084; fill-opacity:1.0000; stroke:none;">
<circle cx="62.7300" cy="103.3400" r="1.7500" /> 
<path style="fill:#840084; fill-opacity:1.0000; stroke:none;fill-rule:evenodd;"
d="M 80.3900,106.8325
78.3900,106.8325
78.3900,104.9275
80.3900,104.9275
Z" /> 
</g>
<g style="fill:none; 
stroke:#840084; stroke-width:1.9050; stroke-opacity:1; 
stroke-linecap:round; stroke-linejoin:round;">
<path d="M79.3425 103.3400
L79.4375 103.3400
" />
<path d="M79.3425 100.8000
L79.4375 100.8000
" />
</g>
<g style="fill:#840084; fill-opacity:1.0000; stroke:none;">
<circle cx="165.1450" cy="73.6300" r="0.8000" /> 
</g>
<g style="fill:#840084; fill-opacity:1.0000; stroke:none;">
<circle cx="170.2250" cy="73.6300" r="0.8000" /> 
<path style="fill:#840084; fill-opacity:1.0000; stroke:none;fill-rule:evenodd;"
d="M 124.2800,76.7000
125.8800,76.7000
125.8800,78.3000
124.2800,78.3000
Z" /> 
</g>
<g style="fill:#840084; fill-opacity:1.0000; stroke:none;">
<circle cx="125.0800" cy="81.0000" r="0.8000" /> 
<path style="fill:#840084; fill-opacity:1.0000; stroke:none;fill-rule:evenodd;"
d="M 132.4700,111.9173
134.0700,111.9173
134.0700,113.5173
132.4700,113.5173
Z" /> 
</g>
<g style="fill:#840084; fill-opacity:1.0000; stroke:none;">
<circle cx="133.2700" cy="117.7173" r="0.8000" /> 
<path style="fill:#840084; fill-opacity:1.0000; stroke:none;fill-rule:evenodd;"
d="M 199.9300,81.7600
199.9300,82.2600
199.9249,82.2600
199.9249,82.3312
199.8848,82.4677
199.8079,82.5874
199.7003,82.6806
199.5709,82.7397
199.4300,82.7600
198.9300,82.7600
198.7891,82.7397
198.6597,82.6806
198.5521,82.5874
198.4752,82.4677
198.4351,82.3312
198.4351,82.2600
198.4300,82.2600
198.4300,81.7600
Z" /> 
<path style="fill:#840084; fill-opacity:1.0000; stroke:none;fill-rule:evenodd;"
d="M 198.4351,80.9600
198.4351,80.8888
198.4752,80.7523
198.5521,80.6326
198.6597,80.5394
198.7891,80.4803
198.9300,80.4600
199.4300,80.4600
199.5709,80.4803
199.7003,80.5394
199.8079,80.6326
199.8848,80.7523
199.9249,80.8888
199.9249,80.9600
199.9300,80.9600
199.9300,81.4600
198.4300,81.4600
198.4300,80.9600
Z" /> 
<path style="fill:#840084; fill-opacity:1.0000; stroke:none;fill-rule:evenodd;"
d="M 180.7450,81.3800
180.8407,81.3990
180.9218,81.4532
180.9760,81.5343
180.9950,81.6300
180.9950,82.8300
180.9760,82.9257
180.9218,83.0068
180.8407,83.0610
180.7450,83.0800
179.2950,83.0800
179.1993,83.0610
179.1182,83.0068
179.0640,82.9257
179.0450,82.8300
179.0450,81.6300
179.0640,81.5343
179.1182,81.4532
179.1993,81.3990
179.2950,81.3800
Z" /> 
</g>
<g style="fill:none; 
stroke:#840084; stroke-width:1.7000; stroke-opacity:1; 
stroke-linecap:round; stroke-linejoin:round;">
<path d="M180.1450 84.7300
L179.8950 84.7300
" />
<path d="M180.1450 87.2300
L179.8950 87.2300
" />
<path d="M180.1450 89.7300
L179.8950 89.7300
" />
<path d="M180.1450 92.2300
L179.8950 92.2300
" />
<path d="M180.1450 94.7300
L179.8950 94.7300
" />
<path d="M180.1450 97.2300
L179.8950 97.2300
" />
<path d="M180.1450 99.7300
L179.8950 99.7300
" />
<path d="M180.1450 102.2300
L179.8950 102.2300
" />
<path d="M180.1450 104.7300
L179.8950 104.7300
" />
<path d="M180.1450 107.2300
L179.8950 107.2300
" />
<path d="M180.1450 109.7300
L179.8950 109.7300
" />
<path d="M180.1450 112.2300
L179.8950 112.2300
" />
<path d="M180.1450 114.7300
L179.8950 114.7300
" />
<path d="M180.1450 117.2300
L179.8950 117.2300
" />
</g>
<g style="fill:#840084; fill-opacity:1.0000; stroke:none;">
<circle cx="113.7400" cy="102.5900" r="0.8000" /> 
</g>
<g style="fill:#840084; fill-opacity:1.0000; stroke:none;">
<circle cx="113.7400" cy="107.5900" r="0.8000" /> 
<path style="fill:#840084; fill-opacity:1.0000; stroke:none;fill-rule:evenodd;"
d="M 184.1500,116.5200
184.1500,115.9700
184.1551,115.9700
184.1551,115.8988
184.1952,115.7623
184.2721,115.6426
184.3797,115.5494
184.5091,115.4903
184.6500,115.4700
185.1500,115.4700
185.2909,115.4903
185.4203,115.5494
185.5279,115.6426
185.6048,115.7623
185.6449,115.8988
185.6449,115.9700
185.6500,115.9700
185.6500,116.5200
Z" /> 
<path style="fill:#840084; fill-opacity:1.0000; stroke:none;fill-rule:evenodd;"
d="M 184.1500,116.7700
185.6500,116.7700
185.6500,117.7700
184.1500,117.7700
Z" /> 
<path style="fill:#840084; fill-opacity:1.0000; stroke:none;fill-rule:evenodd;"
d="M 185.6449,118.5700
185.6449,118.6412
185.6048,118.7777
185.5279,118.8974
185.4203,118.9906
185.2909,119.0497
185.1500,119.0700
184.6500,119.0700
184.5091,119.0497
184.3797,118.9906
184.2721,118.8974
184.1952,118.7777
184.1551,118.6412
184.1551,118.5700
184.1500,118.5700
184.1500,118.0200
185.6500,118.0200
185.6500,118.5700
Z" /> 
</g>
<g style="fill:#840084; fill-opacity:1.0000; stroke:none;">
<circle cx="175.0450" cy="73.6400" r="0.8000" /> 
</g>
<g style="fill:#840084; fill-opacity:1.0000; stroke:none;">
<circle cx="180.1250" cy="73.6400" r="0.8000" /> 
<path style="fill:#840084; fill-opacity:1.0000; stroke:none;fill-rule:evenodd;"
d="M 197.3300,81.7600
197.3300,82.2600
197.3249,82.2600
197.3249,82.3312
197.2848,82.4677
197.2079,82.5874
197.1003,82.6806
196.9709,82.7397
196.8300,82.7600
196.3300,82.7600
196.1891,82.7397
196.0597,82.6806
195.9521,82.5874
195.8752,82.4677
195.8351,82.3312
195.8351,82.2600
195.8300,82.2600
195.8300,81.7600
Z" /> 
<path style="fill:#840084; fill-opacity:1.0000; stroke:none;fill-rule:evenodd;"
d="M 195.8351,80.9600
195.8351,80.8888
195.8752,80.7523
195.9521,80.6326
196.0597,80.5394
196.1891,80.4803
196.3300,80.4600
196.8300,80.4600
196.9709,80.4803
197.1003,80.5394
197.2079,80.6326
197.2848,80.7523
197.3249,80.8888
197.3249,80.9600
197.3300,80.9600
197.3300,81.4600
195.8300,81.4600
195.8300,80.9600
Z" /> 
</g>
<g style="fill:#840084; fill-opacity:1.0000; stroke:none;">
<circle cx="62.0300" cy="115.1200" r="1.9500" /> 
</g>
<g style="fill:#840084; fill-opacity:1.0000; stroke:none;">
<circle cx="62.0300" cy="115.1200" r="3.5000" /> 
<path style="fill:#840084; fill-opacity:1.0000; stroke:none;fill-rule:evenodd;"
d="M 65.9400,95.7900
65.9400,92.5900
69.1400,92.5900
69.1400,95.7900
Z" /> 
</g>
<g style="fill:#840084; fill-opacity:1.0000; stroke:none;">
<circle cx="80.2400" cy="94.1900" r="1.6000" /> 
<circle cx="165.3450" cy="77.1300" r="0.8000" /> 
</g>
<g style="fill:#840084; fill-opacity:1.0000; stroke:none;">
<circle cx="170.4250" cy="77.1300" r="0.8000" /> 
</g>
<g style="fill:#840084; fill-opacity:1.0000; stroke:none;">
<circle cx="117.5800" cy="76.3200" r="0.8000" /> 
</g>
<g style="fill:#840084; fill-opacity:1.0000; stroke:none;">
<circle cx="117.5800" cy="81.4000" r="0.8000" /> 
<path style="fill:#840084; fill-opacity:1.0000; stroke:none;fill-rule:evenodd;"
d="M 152.0400,77.4200
152.5900,77.4200
152.5900,77.4251
152.6612,77.4251
152.7977,77.4652
152.9174,77.5421
153.0106,77.6497
153.0697,77.7791
153.0900,77.9200
153.0900,78.4200
153.0697,78.5609
153.0106,78.6903
152.9174,78.7979
152.7977,78.8748
152.6612,78.9149
152.5900,78.9149
152.5900,78.9200
152.0400,78.9200
Z" /> 
<path style="fill:#840084; fill-opacity:1.0000; stroke:none;fill-rule:evenodd;"
d="M 151.7900,77.4200
151.7900,78.9200
150.7900,78.9200
150.7900,77.4200
Z" /> 
<path style="fill:#840084; fill-opacity:1.0000; stroke:none;fill-rule:evenodd;"
d="M 149.9900,78.9149
149.9188,78.9149
149.7823,78.8748
149.6626,78.7979
149.5694,78.6903
149.5103,78.5609
149.4900,78.4200
149.4900,77.9200
149.5103,77.7791
149.5694,77.6497
149.6626,77.5421
149.7823,77.4652
149.9188,77.4251
149.9900,77.4251
149.9900,77.4200
150.5400,77.4200
150.5400,78.9200
149.9900,78.9200
Z" /> 
</g>
<g style="fill:#840084; fill-opacity:1.0000; stroke:none;">
<circle cx="74.6900" cy="66.5200" r="1.9500" /> 
</g>
<g style="fill:#840084; fill-opacity:1.0000; stroke:none;">
<circle cx="74.6900" cy="66.5200" r="3.5000" /> 
</g>
<g style="fill:#840084; fill-opacity:1.0000; stroke:none;">
<circle cx="92.5200" cy="88.1900" r="0.8000" /> 
</g>
<g style="fill:#840084; fill-opacity:1.0000; stroke:none;">
<circle cx="97.6000" cy="88.1900" r="0.8000" /> 
</g>
<g style="fill:#840084; fill-opacity:1.0000; stroke:none;">
<circle cx="119.9000" cy="71.3300" r="0.8000" /> 
</g>
<g style="fill:#840084; fill-opacity:1.0000; stroke:none;">
<circle cx="114.8200" cy="71.3300" r="0.8000" /> 
<path style="fill:#840084; fill-opacity:1.0000; stroke:none;fill-rule:evenodd;"
d="M 97.0800,79.5877
95.0800,79.5877
95.0800,77.5877
97.0800,77.5877
Z" /> 
</g>
<g style="fill:#840084; fill-opacity:1.0000; stroke:none;">
<circle cx="96.0800" cy="73.5877" r="1.0000" /> 
<path style="fill:#840084; fill-opacity:1.0000; stroke:none;fill-rule:evenodd;"
d="M 86.5300,89.3100
83.3300,89.3100
83.3300,86.1100
86.5300,86.1100
Z" /> 
</g>
<g style="fill:#840084; fill-opacity:1.0000; stroke:none;">
<circle cx="84.9300" cy="82.6300" r="1.6000" /> 
<path style="fill:#840084; fill-opacity:1.0000; stroke:none;fill-rule:evenodd;"
d="M 105.1700,78.2800
105.1700,76.6800
107.1700,76.6800
107.1700,78.2800
Z" /> 
<path style="fill:#840084; fill-opacity:1.0000; stroke:none;fill-rule:evenodd;"
d="M 107.9750,85.0350
107.9176,85.0236
107.8689,84.9911
107.8364,84.9424
107.8250,84.8850
107.8250,83.4350
107.8364,83.3776
107.8689,83.3289
107.9176,83.2964
107.9750,83.2850
108.2750,83.2850
108.3324,83.2964
108.3811,83.3289
108.4136,83.3776
108.4250,83.4350
108.4250,84.8850
108.4136,84.9424
108.3811,84.9911
108.3324,85.0236
108.2750,85.0350
Z" /> 
<circle cx="106.1700" cy="80.0200" r="1.0000" /> 
<path style="fill:#840084; fill-opacity:1.0000; stroke:none;fill-rule:evenodd;"
d="M 109.2450,85.0350
109.1876,85.0236
109.1389,84.9911
109.1064,84.9424
109.0950,84.8850
109.0950,83.4350
109.1064,83.3776
109.1389,83.3289
109.1876,83.2964
109.2450,83.2850
109.5450,83.2850
109.6024,83.2964
109.6511,83.3289
109.6836,83.3776
109.6950,83.4350
109.6950,84.8850
109.6836,84.9424
109.6511,84.9911
109.6024,85.0236
109.5450,85.0350
Z" /> 
</g>
<g style="fill:#840084; fill-opacity:1.0000; stroke:none;">
<circle cx="106.1700" cy="82.5600" r="1.0000" /> 
<path style="fill:#840084; fill-opacity:1.0000; stroke:none;fill-rule:evenodd;"
d="M 110.5150,85.0350
110.4576,85.0236
110.4089,84.9911
110.3764,84.9424
110.3650,84.8850
110.3650,83.4350
110.3764,83.3776
110.4089,83.3289
110.4576,83.2964
110.5150,83.2850
110.8150,83.2850
110.8724,83.2964
110.9211,83.3289
110.9536,83.3776
110.9650,83.4350
110.9650,84.8850
110.9536,84.9424
110.9211,84.9911
110.8724,85.0236
110.8150,85.0350
Z" /> 
</g>
<g style="fill:#840084; fill-opacity:1.0000; stroke:none;">
<circle cx="106.1700" cy="85.1000" r="1.0000" /> 
<path style="fill:#840084; fill-opacity:1.0000; stroke:none;fill-rule:evenodd;"
d="M 111.7850,85.0350
111.7276,85.0236
111.6789,84.9911
111.6464,84.9424
111.6350,84.8850
111.6350,83.4350
111.6464,83.3776
111.6789,83.3289
111.7276,83.2964
111.7850,83.2850
112.0850,83.2850
112.1424,83.2964
112.1911,83.3289
112.2236,83.3776
112.2350,83.4350
112.2350,84.8850
112.2236,84.9424
112.1911,84.9911
112.1424,85.0236
112.0850,85.0350
Z" /> 
<path style="fill:#840084; fill-opacity:1.0000; stroke:none;fill-rule:evenodd;"
d="M 111.7850,79.8850
111.7276,79.8736
111.6789,79.8411
111.6464,79.7924
111.6350,79.7350
111.6350,78.2850
111.6464,78.2276
111.6789,78.1789
111.7276,78.1464
111.7850,78.1350
112.0850,78.1350
112.1424,78.1464
112.1911,78.1789
112.2236,78.2276
112.2350,78.2850
112.2350,79.7350
112.2236,79.7924
112.1911,79.8411
112.1424,79.8736
112.0850,79.8850
Z" /> 
</g>
<g style="fill:#840084; fill-opacity:1.0000; stroke:none;">
<circle cx="113.7900" cy="85.1000" r="1.0000" /> 
<path style="fill:#840084; fill-opacity:1.0000; stroke:none;fill-rule:evenodd;"
d="M 110.5150,79.8850
110.4576,79.8736
110.4089,79.8411
110.3764,79.7924
110.3650,79.7350
110.3650,78.2850
110.3764,78.2276
110.4089,78.1789
110.4576,78.1464
110.5150,78.1350
110.8150,78.1350
110.8724,78.1464
110.9211,78.1789
110.9536,78.2276
110.9650,78.2850
110.9650,79.7350
110.9536,79.7924
110.9211,79.8411
110.8724,79.8736
110.8150,79.8850
Z" /> 
</g>
<g style="fill:#840084; fill-opacity:1.0000; stroke:none;">
<circle cx="113.7900" cy="82.5600" r="1.0000" /> 
<path style="fill:#840084; fill-opacity:1.0000; stroke:none;fill-rule:evenodd;"
d="M 109.2450,79.8850
109.1876,79.8736
109.1389,79.8411
109.1064,79.7924
109.0950,79.7350
109.0950,78.2850
109.1064,78.2276
109.1389,78.1789
109.1876,78.1464
109.2450,78.1350
109.5450,78.1350
109.6024,78.1464
109.6511,78.1789
109.6836,78.2276
109.6950,78.2850
109.6950,79.7350
109.6836,79.7924
109.6511,79.8411
109.6024,79.8736
109.5450,79.8850
Z" /> 
</g>
<g style="fill:#840084; fill-opacity:1.0000; stroke:none;">
<circle cx="113.7900" cy="80.0200" r="1.0000" /> 
<path style="fill:#840084; fill-opacity:1.0000; stroke:none;fill-rule:evenodd;"
d="M 107.9750,79.8850
107.9176,79.8736
107.8689,79.8411
107.8364,79.7924
107.8250,79.7350
107.8250,78.2850
107.8364,78.2276
107.8689,78.1789
107.9176,78.1464
107.9750,78.1350
108.2750,78.1350
108.3324,78.1464
108.3811,78.1789
108.4136,78.2276
108.4250,78.2850
108.4250,79.7350
108.4136,79.7924
108.3811,79.8411
108.3324,79.8736
108.2750,79.8850
Z" /> 
</g>
<g style="fill:#840084; fill-opacity:1.0000; stroke:none;">
<circle cx="113.7900" cy="77.4800" r="1.0000" /> 
<path style="fill:#840084; fill-opacity:1.0000; stroke:none;fill-rule:evenodd;"
d="M 189.4700,87.8100
187.8700,87.8100
187.8700,86.2100
189.4700,86.2100
Z" /> 
</g>
<g style="fill:#840084; fill-opacity:1.0000; stroke:none;">
<circle cx="191.2100" cy="87.0100" r="0.8000" /> 
<circle cx="193.7500" cy="87.0100" r="0.8000" /> 
<circle cx="196.2900" cy="87.0100" r="0.8000" /> 
<circle cx="198.8300" cy="87.0100" r="0.8000" /> 
<circle cx="201.3700" cy="87.0100" r="0.8000" /> 
<circle cx="203.9100" cy="87.0100" r="0.8000" /> 
<circle cx="206.4500" cy="87.0100" r="0.8000" /> 
<circle cx="208.9900" cy="87.0100" r="0.8000" /> 
<circle cx="211.5300" cy="87.0100" r="0.8000" /> 
<circle cx="214.0700" cy="87.0100" r="0.8000" /> 
<circle cx="216.6100" cy="87.0100" r="0.8000" /> 
<circle cx="219.1500" cy="87.0100" r="0.8000" /> 
<circle cx="221.6900" cy="87.0100" r="0.8000" /> 
<circle cx="224.2300" cy="87.0100" r="0.8000" /> 
<circle cx="224.2300" cy="71.7700" r="0.8000" /> 
<circle cx="221.6900" cy="71.7700" r="0.8000" /> 
<circle cx="219.1500" cy="71.7700" r="0.8000" /> 
<circle cx="216.6100" cy="71.7700" r="0.8000" /> 
<circle cx="214.0700" cy="71.7700" r="0.8000" /> 
<circle cx="211.5300" cy="71.7700" r="0.8000" /> 
<circle cx="208.9900" cy="71.7700" r="0.8000" /> 
<circle cx="206.4500" cy="71.7700" r="0.8000" /> 
<circle cx="203.9100" cy="71.7700" r="0.8000" /> 
<circle cx="201.3700" cy="71.7700" r="0.8000" /> 
<circle cx="198.8300" cy="71.7700" r="0.8000" /> 
<circle cx="196.2900" cy="71.7700" r="0.8000" /> 
<circle cx="193.7500" cy="71.7700" r="0.8000" /> 
<circle cx="191.2100" cy="71.7700" r="0.8000" /> 
<circle cx="188.6700" cy="71.7700" r="0.8000" /> 
<circle cx="222.3900" cy="63.5900" r="1.9500" /> 
</g>
<g style="fill:#840084; fill-opacity:1.0000; stroke:none;">
<circle cx="222.3900" cy="63.5900" r="3.5000" /> 
<path style="fill:#840084; fill-opacity:1.0000; stroke:none;fill-rule:evenodd;"
d="M 149.2326,105.2400
149.2326,106.4400
148.0326,106.4400
148.0326,105.2400
Z" /> 
</g>
<g style="fill:#840084; fill-opacity:1.0000; stroke:none;">
<circle cx="146.6326" cy="105.8400" r="0.6000" /> 
</g>
<g style="fill:#840084; fill-opacity:1.0000; stroke:none;">
<circle cx="86.0000" cy="76.6700" r="1.3900" /> 
</g>
<g style="fill:#840084; fill-opacity:1.0000; stroke:none;">
<circle cx="86.0000" cy="73.2700" r="1.3900" /> 
</g>
<g style="fill:#840084; fill-opacity:1.0000; stroke:none;">
<circle cx="76.0800" cy="76.6700" r="1.3900" /> 
</g>
<g style="fill:#840084; fill-opacity:1.0000; stroke:none;">
<circle cx="76.0800" cy="73.2700" r="1.3900" /> 
</g>
<g style="fill:#840084; fill-opacity:1.0000; stroke:none;">
<circle cx="101.7300" cy="81.8400" r="0.8000" /> 
</g>
<g style="fill:#840084; fill-opacity:1.0000; stroke:none;">
<circle cx="101.7300" cy="86.8400" r="0.8000" /> 
<path style="fill:#840084; fill-opacity:1.0000; stroke:none;fill-rule:evenodd;"
d="M 175.4375,68.6225
175.4375,66.7175
177.3425,66.7175
177.3425,68.6225
Z" /> 
</g>
<g style="fill:#840084; fill-opacity:1.0000; stroke:none;">
<circle cx="178.9300" cy="67.6700" r="0.9525" /> 
</g>
<g style="fill:#840084; fill-opacity:1.0000; stroke:none;">
<circle cx="181.4700" cy="67.6700" r="0.9525" /> 
</g>
<g style="fill:#840084; fill-opacity:1.0000; stroke:none;">
<circle cx="184.0100" cy="67.6700" r="0.9525" /> 
</g>
<g style="fill:#840084; fill-opacity:1.0000; stroke:none;">
<circle cx="186.5500" cy="67.6700" r="0.9525" /> 
</g>
<g style="fill:#840084; fill-opacity:1.0000; stroke:none;">
<circle cx="189.0900" cy="67.6700" r="0.9525" /> 
<path style="fill:#840084; fill-opacity:1.0000; stroke:none;fill-rule:evenodd;"
d="M 78.1700,89.1900
74.9700,89.1900
74.9700,85.9900
78.1700,85.9900
Z" /> 
</g>
<g style="fill:#840084; fill-opacity:1.0000; stroke:none;">
<circle cx="76.5700" cy="82.5100" r="1.6000" /> 
<path style="fill:#840084; fill-opacity:1.0000; stroke:none;fill-rule:evenodd;"
d="M 83.8860,91.8090
83.9016,91.7020
83.9558,91.5911
84.0431,91.5038
84.1540,91.4496
84.2610,91.4340
86.5110,91.4340
86.6180,91.4496
86.7289,91.5038
86.8162,91.5911
86.8704,91.7020
86.8860,91.8090
86.8860,94.0590
86.8704,94.1660
86.8162,94.2769
86.7289,94.3642
86.6180,94.4184
86.5110,94.4340
84.2610,94.4340
84.1540,94.4184
84.0431,94.3642
83.9558,94.2769
83.9016,94.1660
83.8860,94.0590
Z" /> 
<circle cx="85.3860" cy="107.6660" r="1.5000" /> 
</g>
<g style="fill:#840084; fill-opacity:1.0000; stroke:none;">
<circle cx="106.9760" cy="107.6660" r="1.5000" /> 
</g>
<g style="fill:#840084; fill-opacity:1.0000; stroke:none;">
<circle cx="106.9760" cy="92.9340" r="1.5000" /> 
<path style="fill:#840084; fill-opacity:1.0000; stroke:none;fill-rule:evenodd;"
d="M 157.8600,112.0300
159.4600,112.0300
159.4600,113.6300
157.8600,113.6300
Z" /> 
</g>
<g style="fill:#840084; fill-opacity:1.0000; stroke:none;">
<circle cx="158.6600" cy="117.8300" r="0.8000" /> 
</g>
<g style="fill:#840084; fill-opacity:1.0000; stroke:none;">
<circle cx="119.9000" cy="67.4700" r="0.8000" /> 
</g>
<g style="fill:#840084; fill-opacity:1.0000; stroke:none;">
<circle cx="114.8200" cy="67.4700" r="0.8000" /> 
</g>
<g style="fill:#840084; fill-opacity:1.0000; stroke:none;">
<circle cx="175.0300" cy="77.1300" r="0.8000" /> 
</g>
<g style="fill:#840084; fill-opacity:1.0000; stroke:none;">
<circle cx="180.1100" cy="77.1300" r="0.8000" /> 
</g>
<g style="fill:#840084; fill-opacity:1.0000; stroke:none;">
<circle cx="124.9600" cy="67.0100" r="0.7200" /> 
</g>
<g style="fill:#840084; fill-opacity:1.0000; stroke:none;">
<circle cx="127.5000" cy="69.5500" r="0.7200" /> 
</g>
<g style="fill:#840084; fill-opacity:1.0000; stroke:none;">
<circle cx="124.9600" cy="72.0900" r="0.7200" /> 
<path style="fill:#840084; fill-opacity:1.0000; stroke:none;fill-rule:evenodd;"
d="M 144.3850,61.9733
144.3964,61.8871
144.4453,61.7821
144.5271,61.7003
144.6321,61.6514
144.7183,61.6400
148.0517,61.6400
148.1379,61.6514
148.2429,61.7003
148.3247,61.7821
148.3736,61.8871
148.3850,61.9733
148.3850,66.3067
148.3736,66.3929
148.3247,66.4979
148.2429,66.5797
148.1379,66.6286
148.0517,66.6400
144.7183,66.6400
144.6321,66.6286
144.5271,66.5797
144.4453,66.4979
144.3964,66.3929
144.3850,66.3067
Z" /> 
<path style="fill:#840084; fill-opacity:1.0000; stroke:none;fill-rule:evenodd;"
d="M 154.3850,62.0150
154.4040,61.9193
154.4582,61.8382
154.5393,61.7840
154.6350,61.7650
158.1350,61.7650
158.2307,61.7840
158.3118,61.8382
158.3660,61.9193
158.3850,62.0150
158.3850,64.5150
158.3660,64.6107
158.3118,64.6918
158.2307,64.7460
158.1350,64.7650
154.6350,64.7650
154.5393,64.7460
154.4582,64.6918
154.4040,64.6107
154.3850,64.5150
Z" /> 
<path style="fill:#840084; fill-opacity:1.0000; stroke:none;fill-rule:evenodd;"
d="M 144.3850,68.9733
144.3964,68.8871
144.4453,68.7821
144.5271,68.7003
144.6321,68.6514
144.7183,68.6400
148.0517,68.6400
148.1379,68.6514
148.2429,68.7003
148.3247,68.7821
148.3736,68.8871
148.3850,68.9733
148.3850,73.3067
148.3736,73.3929
148.3247,73.4979
148.2429,73.5797
148.1379,73.6286
148.0517,73.6400
144.7183,73.6400
144.6321,73.6286
144.5271,73.5797
144.4453,73.4979
144.3964,73.3929
144.3850,73.3067
Z" /> 
<path style="fill:#840084; fill-opacity:1.0000; stroke:none;fill-rule:evenodd;"
d="M 154.3850,70.7650
154.4040,70.6693
154.4582,70.5882
154.5393,70.5340
154.6350,70.5150
158.1350,70.5150
158.2307,70.5340
158.3118,70.5882
158.3660,70.6693
158.3850,70.7650
158.3850,73.2650
158.3660,73.3607
158.3118,73.4418
158.2307,73.4960
158.1350,73.5150
154.6350,73.5150
154.5393,73.4960
154.4582,73.4418
154.4040,73.3607
154.3850,73.2650
Z" /> 
<path style="fill:#840084; fill-opacity:1.0000; stroke:none;fill-rule:evenodd;"
d="M 62.9200,91.0600
63.0157,91.0790
63.0968,91.1332
63.1510,91.2143
63.1700,91.3100
63.1700,92.5100
63.1510,92.6057
63.0968,92.6868
63.0157,92.7410
62.9200,92.7600
61.4200,92.7600
61.3243,92.7410
61.2432,92.6868
61.1890,92.6057
61.1700,92.5100
61.1700,91.3100
61.1890,91.2143
61.2432,91.1332
61.3243,91.0790
61.4200,91.0600
Z" /> 
</g>
<g style="fill:none; 
stroke:#840084; stroke-width:1.7000; stroke-opacity:1; 
stroke-linecap:round; stroke-linejoin:round;">
<path d="M62.3200 94.4100
L62.0200 94.4100
" />
</g>
<g style="fill:#840084; fill-opacity:1.0000; stroke:none;">
<circle cx="138.0900" cy="90.1000" r="1.7500" /> 
<path style="fill:#840084; fill-opacity:1.0000; stroke:none;fill-rule:evenodd;"
d="M 134.5975,107.7600
134.5975,105.7600
136.5025,105.7600
136.5025,107.7600
Z" /> 
</g>
<g style="fill:none; 
stroke:#840084; stroke-width:1.9050; stroke-opacity:1; 
stroke-linecap:round; stroke-linejoin:round;">
<path d="M138.0900 106.7125
L138.0900 106.8075
" />
<path d="M140.6300 106.7125
L140.6300 106.8075
" />
</g>
<g style="fill:#840084; fill-opacity:1.0000; stroke:none;">
<circle cx="156.1400" cy="90.0000" r="1.7500" /> 
<path style="fill:#840084; fill-opacity:1.0000; stroke:none;fill-rule:evenodd;"
d="M 152.6475,107.6600
152.6475,105.6600
154.5525,105.6600
154.5525,107.6600
Z" /> 
</g>
<g style="fill:none; 
stroke:#840084; stroke-width:1.9050; stroke-opacity:1; 
stroke-linecap:round; stroke-linejoin:round;">
<path d="M156.1400 106.6125
L156.1400 106.7075
" />
<path d="M158.6800 106.6125
L158.6800 106.7075
" />
</g>
<g style="fill:#840084; fill-opacity:1.0000; stroke:none;">
<circle cx="121.3700" cy="90.3400" r="1.7500" /> 
<path style="fill:#840084; fill-opacity:1.0000; stroke:none;fill-rule:evenodd;"
d="M 117.8775,108.0000
117.8775,106.0000
119.7825,106.0000
119.7825,108.0000
Z" /> 
</g>
<g style="fill:none; 
stroke:#840084; stroke-width:1.9050; stroke-opacity:1; 
stroke-linecap:round; stroke-linejoin:round;">
<path d="M121.3700 106.9525
L121.3700 107.0475
" />
<path d="M123.9100 106.9525
L123.9100 107.0475
" />
<path style="fill:none; 
stroke:#C2C200; stroke-width:0.0500; stroke-opacity:1; 
stroke-linecap:round; stroke-linejoin:round;fill:none"
d="M 193.2869,61.5730
200.2869,61.5831
200.2769,59.5730
226.2969,59.5831
226.2669,68.5530
231.5570,68.5530
231.5716,95.1877
231.5669,97.1230
201.5469,97.1431
201.5469,99.5670
201.5469,121.6650
121.5869,121.6650
121.5869,110.1730
72.8361,110.2522
72.8070,119.0131
58.1410,119.0290
58.1669,76.3530
70.6569,76.3668
70.6443,62.4030
76.6669,62.4031
76.6669,59.6130
85.2669,59.6130
85.2669,61.5831
90.2569,61.5831
90.2569,59.5831
133.2800,59.5900
133.2769,61.5530
140.2798,61.5602
140.2769,59.5630
193.2869,59.5536
Z" /> 
</g> 
</svg>
