%TF.GenerationSoftware,KiCad,Pcbnew,8.0.6*%
%TF.CreationDate,2024-11-16T12:34:48-06:00*%
%TF.ProjectId,1400-PSU,31343030-2d50-4535-952e-6b696361645f,rev?*%
%TF.SameCoordinates,Original*%
%TF.FileFunction,Drillmap*%
%TF.FilePolarity,Positive*%
%FSLAX45Y45*%
G04 Gerber Fmt 4.5, Leading zero omitted, Abs format (unit mm)*
G04 Created by KiCad (PCBNEW 8.0.6) date 2024-11-16 12:34:48*
%MOMM*%
%LPD*%
G01*
G04 APERTURE LIST*
%ADD10C,0.050000*%
%ADD11C,0.200000*%
%ADD12C,0.160000*%
%ADD13C,0.350000*%
G04 APERTURE END LIST*
D10*
X19328695Y-6157305D02*
X20028695Y-6158305D01*
X20027695Y-5957305D01*
X22629695Y-5958305D01*
X22626695Y-6855305D01*
X23155695Y-6855305D01*
X23157155Y-9518765D01*
X23156695Y-9712305D01*
X20154695Y-9714305D01*
X20154695Y-9956705D01*
X20154695Y-12166505D01*
X12158695Y-12166505D01*
X12158695Y-11017305D01*
X7283606Y-11025216D01*
X7280695Y-11901314D01*
X5814101Y-11902899D01*
X5816695Y-7635305D01*
X7065695Y-7636678D01*
X7064431Y-6240305D01*
X7666695Y-6240305D01*
X7666695Y-5961305D01*
X8526695Y-5961305D01*
X8526695Y-6158305D01*
X9025695Y-6158305D01*
X9025695Y-5958305D01*
X13328000Y-5959000D01*
X13327695Y-6155305D01*
X14027977Y-6156023D01*
X14027695Y-5956305D01*
X19328695Y-5955365D01*
X19328695Y-6157305D01*
D11*
D12*
X6105000Y-8159000D02*
X6265000Y-8319000D01*
X6265000Y-8159000D02*
X6105000Y-8319000D01*
D13*
X6448000Y-10334000D02*
G75*
G02*
X6098000Y-10334000I-175000J0D01*
G01*
X6098000Y-10334000D02*
G75*
G02*
X6448000Y-10334000I175000J0D01*
G01*
X12312000Y-9034000D02*
G75*
G02*
X11962000Y-9034000I-175000J0D01*
G01*
X11962000Y-9034000D02*
G75*
G02*
X12312000Y-9034000I175000J0D01*
G01*
X13984000Y-9010000D02*
G75*
G02*
X13634000Y-9010000I-175000J0D01*
G01*
X13634000Y-9010000D02*
G75*
G02*
X13984000Y-9010000I175000J0D01*
G01*
X15789000Y-9000000D02*
G75*
G02*
X15439000Y-9000000I-175000J0D01*
G01*
X15439000Y-9000000D02*
G75*
G02*
X15789000Y-9000000I175000J0D01*
G01*
D11*
X6072378Y-12480489D02*
X6072378Y-12280489D01*
X6072378Y-12280489D02*
X6119997Y-12280489D01*
X6119997Y-12280489D02*
X6148568Y-12290013D01*
X6148568Y-12290013D02*
X6167616Y-12309060D01*
X6167616Y-12309060D02*
X6177140Y-12328108D01*
X6177140Y-12328108D02*
X6186663Y-12366203D01*
X6186663Y-12366203D02*
X6186663Y-12394774D01*
X6186663Y-12394774D02*
X6177140Y-12432870D01*
X6177140Y-12432870D02*
X6167616Y-12451917D01*
X6167616Y-12451917D02*
X6148568Y-12470965D01*
X6148568Y-12470965D02*
X6119997Y-12480489D01*
X6119997Y-12480489D02*
X6072378Y-12480489D01*
X6272378Y-12480489D02*
X6272378Y-12347155D01*
X6272378Y-12385251D02*
X6281901Y-12366203D01*
X6281901Y-12366203D02*
X6291425Y-12356679D01*
X6291425Y-12356679D02*
X6310473Y-12347155D01*
X6310473Y-12347155D02*
X6329521Y-12347155D01*
X6396187Y-12480489D02*
X6396187Y-12347155D01*
X6396187Y-12280489D02*
X6386663Y-12290013D01*
X6386663Y-12290013D02*
X6396187Y-12299536D01*
X6396187Y-12299536D02*
X6405711Y-12290013D01*
X6405711Y-12290013D02*
X6396187Y-12280489D01*
X6396187Y-12280489D02*
X6396187Y-12299536D01*
X6519997Y-12480489D02*
X6500949Y-12470965D01*
X6500949Y-12470965D02*
X6491425Y-12451917D01*
X6491425Y-12451917D02*
X6491425Y-12280489D01*
X6624759Y-12480489D02*
X6605711Y-12470965D01*
X6605711Y-12470965D02*
X6596187Y-12451917D01*
X6596187Y-12451917D02*
X6596187Y-12280489D01*
X6853330Y-12480489D02*
X6853330Y-12280489D01*
X6853330Y-12280489D02*
X6919997Y-12423346D01*
X6919997Y-12423346D02*
X6986663Y-12280489D01*
X6986663Y-12280489D02*
X6986663Y-12480489D01*
X7167616Y-12480489D02*
X7167616Y-12375727D01*
X7167616Y-12375727D02*
X7158092Y-12356679D01*
X7158092Y-12356679D02*
X7139044Y-12347155D01*
X7139044Y-12347155D02*
X7100949Y-12347155D01*
X7100949Y-12347155D02*
X7081901Y-12356679D01*
X7167616Y-12470965D02*
X7148568Y-12480489D01*
X7148568Y-12480489D02*
X7100949Y-12480489D01*
X7100949Y-12480489D02*
X7081901Y-12470965D01*
X7081901Y-12470965D02*
X7072378Y-12451917D01*
X7072378Y-12451917D02*
X7072378Y-12432870D01*
X7072378Y-12432870D02*
X7081901Y-12413822D01*
X7081901Y-12413822D02*
X7100949Y-12404298D01*
X7100949Y-12404298D02*
X7148568Y-12404298D01*
X7148568Y-12404298D02*
X7167616Y-12394774D01*
X7262854Y-12347155D02*
X7262854Y-12547155D01*
X7262854Y-12356679D02*
X7281901Y-12347155D01*
X7281901Y-12347155D02*
X7319997Y-12347155D01*
X7319997Y-12347155D02*
X7339044Y-12356679D01*
X7339044Y-12356679D02*
X7348568Y-12366203D01*
X7348568Y-12366203D02*
X7358092Y-12385251D01*
X7358092Y-12385251D02*
X7358092Y-12442393D01*
X7358092Y-12442393D02*
X7348568Y-12461441D01*
X7348568Y-12461441D02*
X7339044Y-12470965D01*
X7339044Y-12470965D02*
X7319997Y-12480489D01*
X7319997Y-12480489D02*
X7281901Y-12480489D01*
X7281901Y-12480489D02*
X7262854Y-12470965D01*
X7443806Y-12461441D02*
X7453330Y-12470965D01*
X7453330Y-12470965D02*
X7443806Y-12480489D01*
X7443806Y-12480489D02*
X7434282Y-12470965D01*
X7434282Y-12470965D02*
X7443806Y-12461441D01*
X7443806Y-12461441D02*
X7443806Y-12480489D01*
X7443806Y-12356679D02*
X7453330Y-12366203D01*
X7453330Y-12366203D02*
X7443806Y-12375727D01*
X7443806Y-12375727D02*
X7434282Y-12366203D01*
X7434282Y-12366203D02*
X7443806Y-12356679D01*
X7443806Y-12356679D02*
X7443806Y-12375727D01*
D12*
X5651601Y-12729005D02*
X5811601Y-12889005D01*
X5811601Y-12729005D02*
X5651601Y-12889005D01*
D11*
X6177140Y-12900489D02*
X6062854Y-12900489D01*
X6119997Y-12900489D02*
X6119997Y-12700489D01*
X6119997Y-12700489D02*
X6100949Y-12729060D01*
X6100949Y-12729060D02*
X6081901Y-12748108D01*
X6081901Y-12748108D02*
X6062854Y-12757632D01*
X6262854Y-12881441D02*
X6272378Y-12890965D01*
X6272378Y-12890965D02*
X6262854Y-12900489D01*
X6262854Y-12900489D02*
X6253330Y-12890965D01*
X6253330Y-12890965D02*
X6262854Y-12881441D01*
X6262854Y-12881441D02*
X6262854Y-12900489D01*
X6443806Y-12700489D02*
X6405711Y-12700489D01*
X6405711Y-12700489D02*
X6386663Y-12710013D01*
X6386663Y-12710013D02*
X6377140Y-12719536D01*
X6377140Y-12719536D02*
X6358092Y-12748108D01*
X6358092Y-12748108D02*
X6348568Y-12786203D01*
X6348568Y-12786203D02*
X6348568Y-12862393D01*
X6348568Y-12862393D02*
X6358092Y-12881441D01*
X6358092Y-12881441D02*
X6367616Y-12890965D01*
X6367616Y-12890965D02*
X6386663Y-12900489D01*
X6386663Y-12900489D02*
X6424759Y-12900489D01*
X6424759Y-12900489D02*
X6443806Y-12890965D01*
X6443806Y-12890965D02*
X6453330Y-12881441D01*
X6453330Y-12881441D02*
X6462854Y-12862393D01*
X6462854Y-12862393D02*
X6462854Y-12814774D01*
X6462854Y-12814774D02*
X6453330Y-12795727D01*
X6453330Y-12795727D02*
X6443806Y-12786203D01*
X6443806Y-12786203D02*
X6424759Y-12776679D01*
X6424759Y-12776679D02*
X6386663Y-12776679D01*
X6386663Y-12776679D02*
X6367616Y-12786203D01*
X6367616Y-12786203D02*
X6358092Y-12795727D01*
X6358092Y-12795727D02*
X6348568Y-12814774D01*
X6586663Y-12700489D02*
X6605711Y-12700489D01*
X6605711Y-12700489D02*
X6624759Y-12710013D01*
X6624759Y-12710013D02*
X6634282Y-12719536D01*
X6634282Y-12719536D02*
X6643806Y-12738584D01*
X6643806Y-12738584D02*
X6653330Y-12776679D01*
X6653330Y-12776679D02*
X6653330Y-12824298D01*
X6653330Y-12824298D02*
X6643806Y-12862393D01*
X6643806Y-12862393D02*
X6634282Y-12881441D01*
X6634282Y-12881441D02*
X6624759Y-12890965D01*
X6624759Y-12890965D02*
X6605711Y-12900489D01*
X6605711Y-12900489D02*
X6586663Y-12900489D01*
X6586663Y-12900489D02*
X6567616Y-12890965D01*
X6567616Y-12890965D02*
X6558092Y-12881441D01*
X6558092Y-12881441D02*
X6548568Y-12862393D01*
X6548568Y-12862393D02*
X6539044Y-12824298D01*
X6539044Y-12824298D02*
X6539044Y-12776679D01*
X6539044Y-12776679D02*
X6548568Y-12738584D01*
X6548568Y-12738584D02*
X6558092Y-12719536D01*
X6558092Y-12719536D02*
X6567616Y-12710013D01*
X6567616Y-12710013D02*
X6586663Y-12700489D01*
X6777140Y-12700489D02*
X6796187Y-12700489D01*
X6796187Y-12700489D02*
X6815235Y-12710013D01*
X6815235Y-12710013D02*
X6824759Y-12719536D01*
X6824759Y-12719536D02*
X6834282Y-12738584D01*
X6834282Y-12738584D02*
X6843806Y-12776679D01*
X6843806Y-12776679D02*
X6843806Y-12824298D01*
X6843806Y-12824298D02*
X6834282Y-12862393D01*
X6834282Y-12862393D02*
X6824759Y-12881441D01*
X6824759Y-12881441D02*
X6815235Y-12890965D01*
X6815235Y-12890965D02*
X6796187Y-12900489D01*
X6796187Y-12900489D02*
X6777140Y-12900489D01*
X6777140Y-12900489D02*
X6758092Y-12890965D01*
X6758092Y-12890965D02*
X6748568Y-12881441D01*
X6748568Y-12881441D02*
X6739044Y-12862393D01*
X6739044Y-12862393D02*
X6729521Y-12824298D01*
X6729521Y-12824298D02*
X6729521Y-12776679D01*
X6729521Y-12776679D02*
X6739044Y-12738584D01*
X6739044Y-12738584D02*
X6748568Y-12719536D01*
X6748568Y-12719536D02*
X6758092Y-12710013D01*
X6758092Y-12710013D02*
X6777140Y-12700489D01*
X6929521Y-12900489D02*
X6929521Y-12767155D01*
X6929521Y-12786203D02*
X6939044Y-12776679D01*
X6939044Y-12776679D02*
X6958092Y-12767155D01*
X6958092Y-12767155D02*
X6986663Y-12767155D01*
X6986663Y-12767155D02*
X7005711Y-12776679D01*
X7005711Y-12776679D02*
X7015235Y-12795727D01*
X7015235Y-12795727D02*
X7015235Y-12900489D01*
X7015235Y-12795727D02*
X7024759Y-12776679D01*
X7024759Y-12776679D02*
X7043806Y-12767155D01*
X7043806Y-12767155D02*
X7072378Y-12767155D01*
X7072378Y-12767155D02*
X7091425Y-12776679D01*
X7091425Y-12776679D02*
X7100949Y-12795727D01*
X7100949Y-12795727D02*
X7100949Y-12900489D01*
X7196187Y-12900489D02*
X7196187Y-12767155D01*
X7196187Y-12786203D02*
X7205711Y-12776679D01*
X7205711Y-12776679D02*
X7224759Y-12767155D01*
X7224759Y-12767155D02*
X7253330Y-12767155D01*
X7253330Y-12767155D02*
X7272378Y-12776679D01*
X7272378Y-12776679D02*
X7281902Y-12795727D01*
X7281902Y-12795727D02*
X7281902Y-12900489D01*
X7281902Y-12795727D02*
X7291425Y-12776679D01*
X7291425Y-12776679D02*
X7310473Y-12767155D01*
X7310473Y-12767155D02*
X7339044Y-12767155D01*
X7339044Y-12767155D02*
X7358092Y-12776679D01*
X7358092Y-12776679D02*
X7367616Y-12795727D01*
X7367616Y-12795727D02*
X7367616Y-12900489D01*
X7758092Y-12690965D02*
X7586664Y-12948108D01*
X8015235Y-12700489D02*
X8034283Y-12700489D01*
X8034283Y-12700489D02*
X8053330Y-12710013D01*
X8053330Y-12710013D02*
X8062854Y-12719536D01*
X8062854Y-12719536D02*
X8072378Y-12738584D01*
X8072378Y-12738584D02*
X8081902Y-12776679D01*
X8081902Y-12776679D02*
X8081902Y-12824298D01*
X8081902Y-12824298D02*
X8072378Y-12862393D01*
X8072378Y-12862393D02*
X8062854Y-12881441D01*
X8062854Y-12881441D02*
X8053330Y-12890965D01*
X8053330Y-12890965D02*
X8034283Y-12900489D01*
X8034283Y-12900489D02*
X8015235Y-12900489D01*
X8015235Y-12900489D02*
X7996187Y-12890965D01*
X7996187Y-12890965D02*
X7986664Y-12881441D01*
X7986664Y-12881441D02*
X7977140Y-12862393D01*
X7977140Y-12862393D02*
X7967616Y-12824298D01*
X7967616Y-12824298D02*
X7967616Y-12776679D01*
X7967616Y-12776679D02*
X7977140Y-12738584D01*
X7977140Y-12738584D02*
X7986664Y-12719536D01*
X7986664Y-12719536D02*
X7996187Y-12710013D01*
X7996187Y-12710013D02*
X8015235Y-12700489D01*
X8167616Y-12881441D02*
X8177140Y-12890965D01*
X8177140Y-12890965D02*
X8167616Y-12900489D01*
X8167616Y-12900489D02*
X8158092Y-12890965D01*
X8158092Y-12890965D02*
X8167616Y-12881441D01*
X8167616Y-12881441D02*
X8167616Y-12900489D01*
X8300949Y-12700489D02*
X8319997Y-12700489D01*
X8319997Y-12700489D02*
X8339045Y-12710013D01*
X8339045Y-12710013D02*
X8348568Y-12719536D01*
X8348568Y-12719536D02*
X8358092Y-12738584D01*
X8358092Y-12738584D02*
X8367616Y-12776679D01*
X8367616Y-12776679D02*
X8367616Y-12824298D01*
X8367616Y-12824298D02*
X8358092Y-12862393D01*
X8358092Y-12862393D02*
X8348568Y-12881441D01*
X8348568Y-12881441D02*
X8339045Y-12890965D01*
X8339045Y-12890965D02*
X8319997Y-12900489D01*
X8319997Y-12900489D02*
X8300949Y-12900489D01*
X8300949Y-12900489D02*
X8281902Y-12890965D01*
X8281902Y-12890965D02*
X8272378Y-12881441D01*
X8272378Y-12881441D02*
X8262854Y-12862393D01*
X8262854Y-12862393D02*
X8253330Y-12824298D01*
X8253330Y-12824298D02*
X8253330Y-12776679D01*
X8253330Y-12776679D02*
X8262854Y-12738584D01*
X8262854Y-12738584D02*
X8272378Y-12719536D01*
X8272378Y-12719536D02*
X8281902Y-12710013D01*
X8281902Y-12710013D02*
X8300949Y-12700489D01*
X8539045Y-12700489D02*
X8500949Y-12700489D01*
X8500949Y-12700489D02*
X8481902Y-12710013D01*
X8481902Y-12710013D02*
X8472378Y-12719536D01*
X8472378Y-12719536D02*
X8453330Y-12748108D01*
X8453330Y-12748108D02*
X8443807Y-12786203D01*
X8443807Y-12786203D02*
X8443807Y-12862393D01*
X8443807Y-12862393D02*
X8453330Y-12881441D01*
X8453330Y-12881441D02*
X8462854Y-12890965D01*
X8462854Y-12890965D02*
X8481902Y-12900489D01*
X8481902Y-12900489D02*
X8519997Y-12900489D01*
X8519997Y-12900489D02*
X8539045Y-12890965D01*
X8539045Y-12890965D02*
X8548568Y-12881441D01*
X8548568Y-12881441D02*
X8558092Y-12862393D01*
X8558092Y-12862393D02*
X8558092Y-12814774D01*
X8558092Y-12814774D02*
X8548568Y-12795727D01*
X8548568Y-12795727D02*
X8539045Y-12786203D01*
X8539045Y-12786203D02*
X8519997Y-12776679D01*
X8519997Y-12776679D02*
X8481902Y-12776679D01*
X8481902Y-12776679D02*
X8462854Y-12786203D01*
X8462854Y-12786203D02*
X8453330Y-12795727D01*
X8453330Y-12795727D02*
X8443807Y-12814774D01*
X8624759Y-12700489D02*
X8748568Y-12700489D01*
X8748568Y-12700489D02*
X8681902Y-12776679D01*
X8681902Y-12776679D02*
X8710473Y-12776679D01*
X8710473Y-12776679D02*
X8729521Y-12786203D01*
X8729521Y-12786203D02*
X8739045Y-12795727D01*
X8739045Y-12795727D02*
X8748568Y-12814774D01*
X8748568Y-12814774D02*
X8748568Y-12862393D01*
X8748568Y-12862393D02*
X8739045Y-12881441D01*
X8739045Y-12881441D02*
X8729521Y-12890965D01*
X8729521Y-12890965D02*
X8710473Y-12900489D01*
X8710473Y-12900489D02*
X8653330Y-12900489D01*
X8653330Y-12900489D02*
X8634283Y-12890965D01*
X8634283Y-12890965D02*
X8624759Y-12881441D01*
X8872378Y-12700489D02*
X8891426Y-12700489D01*
X8891426Y-12700489D02*
X8910473Y-12710013D01*
X8910473Y-12710013D02*
X8919997Y-12719536D01*
X8919997Y-12719536D02*
X8929521Y-12738584D01*
X8929521Y-12738584D02*
X8939045Y-12776679D01*
X8939045Y-12776679D02*
X8939045Y-12824298D01*
X8939045Y-12824298D02*
X8929521Y-12862393D01*
X8929521Y-12862393D02*
X8919997Y-12881441D01*
X8919997Y-12881441D02*
X8910473Y-12890965D01*
X8910473Y-12890965D02*
X8891426Y-12900489D01*
X8891426Y-12900489D02*
X8872378Y-12900489D01*
X8872378Y-12900489D02*
X8853330Y-12890965D01*
X8853330Y-12890965D02*
X8843807Y-12881441D01*
X8843807Y-12881441D02*
X8834283Y-12862393D01*
X8834283Y-12862393D02*
X8824759Y-12824298D01*
X8824759Y-12824298D02*
X8824759Y-12776679D01*
X8824759Y-12776679D02*
X8834283Y-12738584D01*
X8834283Y-12738584D02*
X8843807Y-12719536D01*
X8843807Y-12719536D02*
X8853330Y-12710013D01*
X8853330Y-12710013D02*
X8872378Y-12700489D01*
X9015235Y-12700489D02*
X9015235Y-12738584D01*
X9091426Y-12700489D02*
X9091426Y-12738584D01*
X9386664Y-12976679D02*
X9377140Y-12967155D01*
X9377140Y-12967155D02*
X9358092Y-12938584D01*
X9358092Y-12938584D02*
X9348569Y-12919536D01*
X9348569Y-12919536D02*
X9339045Y-12890965D01*
X9339045Y-12890965D02*
X9329521Y-12843346D01*
X9329521Y-12843346D02*
X9329521Y-12805251D01*
X9329521Y-12805251D02*
X9339045Y-12757632D01*
X9339045Y-12757632D02*
X9348569Y-12729060D01*
X9348569Y-12729060D02*
X9358092Y-12710013D01*
X9358092Y-12710013D02*
X9377140Y-12681441D01*
X9377140Y-12681441D02*
X9386664Y-12671917D01*
X9567616Y-12900489D02*
X9453330Y-12900489D01*
X9510473Y-12900489D02*
X9510473Y-12700489D01*
X9510473Y-12700489D02*
X9491426Y-12729060D01*
X9491426Y-12729060D02*
X9472378Y-12748108D01*
X9472378Y-12748108D02*
X9453330Y-12757632D01*
X9805711Y-12900489D02*
X9805711Y-12700489D01*
X9891426Y-12900489D02*
X9891426Y-12795727D01*
X9891426Y-12795727D02*
X9881902Y-12776679D01*
X9881902Y-12776679D02*
X9862854Y-12767155D01*
X9862854Y-12767155D02*
X9834283Y-12767155D01*
X9834283Y-12767155D02*
X9815235Y-12776679D01*
X9815235Y-12776679D02*
X9805711Y-12786203D01*
X10015235Y-12900489D02*
X9996188Y-12890965D01*
X9996188Y-12890965D02*
X9986664Y-12881441D01*
X9986664Y-12881441D02*
X9977140Y-12862393D01*
X9977140Y-12862393D02*
X9977140Y-12805251D01*
X9977140Y-12805251D02*
X9986664Y-12786203D01*
X9986664Y-12786203D02*
X9996188Y-12776679D01*
X9996188Y-12776679D02*
X10015235Y-12767155D01*
X10015235Y-12767155D02*
X10043807Y-12767155D01*
X10043807Y-12767155D02*
X10062854Y-12776679D01*
X10062854Y-12776679D02*
X10072378Y-12786203D01*
X10072378Y-12786203D02*
X10081902Y-12805251D01*
X10081902Y-12805251D02*
X10081902Y-12862393D01*
X10081902Y-12862393D02*
X10072378Y-12881441D01*
X10072378Y-12881441D02*
X10062854Y-12890965D01*
X10062854Y-12890965D02*
X10043807Y-12900489D01*
X10043807Y-12900489D02*
X10015235Y-12900489D01*
X10196188Y-12900489D02*
X10177140Y-12890965D01*
X10177140Y-12890965D02*
X10167616Y-12871917D01*
X10167616Y-12871917D02*
X10167616Y-12700489D01*
X10348569Y-12890965D02*
X10329521Y-12900489D01*
X10329521Y-12900489D02*
X10291426Y-12900489D01*
X10291426Y-12900489D02*
X10272378Y-12890965D01*
X10272378Y-12890965D02*
X10262854Y-12871917D01*
X10262854Y-12871917D02*
X10262854Y-12795727D01*
X10262854Y-12795727D02*
X10272378Y-12776679D01*
X10272378Y-12776679D02*
X10291426Y-12767155D01*
X10291426Y-12767155D02*
X10329521Y-12767155D01*
X10329521Y-12767155D02*
X10348569Y-12776679D01*
X10348569Y-12776679D02*
X10358092Y-12795727D01*
X10358092Y-12795727D02*
X10358092Y-12814774D01*
X10358092Y-12814774D02*
X10262854Y-12833822D01*
X10424759Y-12976679D02*
X10434283Y-12967155D01*
X10434283Y-12967155D02*
X10453331Y-12938584D01*
X10453331Y-12938584D02*
X10462854Y-12919536D01*
X10462854Y-12919536D02*
X10472378Y-12890965D01*
X10472378Y-12890965D02*
X10481902Y-12843346D01*
X10481902Y-12843346D02*
X10481902Y-12805251D01*
X10481902Y-12805251D02*
X10472378Y-12757632D01*
X10472378Y-12757632D02*
X10462854Y-12729060D01*
X10462854Y-12729060D02*
X10453331Y-12710013D01*
X10453331Y-12710013D02*
X10434283Y-12681441D01*
X10434283Y-12681441D02*
X10424759Y-12671917D01*
X10786664Y-12976679D02*
X10777140Y-12967155D01*
X10777140Y-12967155D02*
X10758092Y-12938584D01*
X10758092Y-12938584D02*
X10748569Y-12919536D01*
X10748569Y-12919536D02*
X10739045Y-12890965D01*
X10739045Y-12890965D02*
X10729521Y-12843346D01*
X10729521Y-12843346D02*
X10729521Y-12805251D01*
X10729521Y-12805251D02*
X10739045Y-12757632D01*
X10739045Y-12757632D02*
X10748569Y-12729060D01*
X10748569Y-12729060D02*
X10758092Y-12710013D01*
X10758092Y-12710013D02*
X10777140Y-12681441D01*
X10777140Y-12681441D02*
X10786664Y-12671917D01*
X10862854Y-12767155D02*
X10862854Y-12900489D01*
X10862854Y-12786203D02*
X10872378Y-12776679D01*
X10872378Y-12776679D02*
X10891426Y-12767155D01*
X10891426Y-12767155D02*
X10919997Y-12767155D01*
X10919997Y-12767155D02*
X10939045Y-12776679D01*
X10939045Y-12776679D02*
X10948569Y-12795727D01*
X10948569Y-12795727D02*
X10948569Y-12900489D01*
X11072378Y-12900489D02*
X11053331Y-12890965D01*
X11053331Y-12890965D02*
X11043807Y-12881441D01*
X11043807Y-12881441D02*
X11034283Y-12862393D01*
X11034283Y-12862393D02*
X11034283Y-12805251D01*
X11034283Y-12805251D02*
X11043807Y-12786203D01*
X11043807Y-12786203D02*
X11053331Y-12776679D01*
X11053331Y-12776679D02*
X11072378Y-12767155D01*
X11072378Y-12767155D02*
X11100950Y-12767155D01*
X11100950Y-12767155D02*
X11119997Y-12776679D01*
X11119997Y-12776679D02*
X11129521Y-12786203D01*
X11129521Y-12786203D02*
X11139045Y-12805251D01*
X11139045Y-12805251D02*
X11139045Y-12862393D01*
X11139045Y-12862393D02*
X11129521Y-12881441D01*
X11129521Y-12881441D02*
X11119997Y-12890965D01*
X11119997Y-12890965D02*
X11100950Y-12900489D01*
X11100950Y-12900489D02*
X11072378Y-12900489D01*
X11196188Y-12767155D02*
X11272378Y-12767155D01*
X11224759Y-12700489D02*
X11224759Y-12871917D01*
X11224759Y-12871917D02*
X11234283Y-12890965D01*
X11234283Y-12890965D02*
X11253330Y-12900489D01*
X11253330Y-12900489D02*
X11272378Y-12900489D01*
X11491426Y-12767155D02*
X11491426Y-12967155D01*
X11491426Y-12776679D02*
X11510473Y-12767155D01*
X11510473Y-12767155D02*
X11548569Y-12767155D01*
X11548569Y-12767155D02*
X11567616Y-12776679D01*
X11567616Y-12776679D02*
X11577140Y-12786203D01*
X11577140Y-12786203D02*
X11586664Y-12805251D01*
X11586664Y-12805251D02*
X11586664Y-12862393D01*
X11586664Y-12862393D02*
X11577140Y-12881441D01*
X11577140Y-12881441D02*
X11567616Y-12890965D01*
X11567616Y-12890965D02*
X11548569Y-12900489D01*
X11548569Y-12900489D02*
X11510473Y-12900489D01*
X11510473Y-12900489D02*
X11491426Y-12890965D01*
X11700950Y-12900489D02*
X11681902Y-12890965D01*
X11681902Y-12890965D02*
X11672378Y-12871917D01*
X11672378Y-12871917D02*
X11672378Y-12700489D01*
X11862854Y-12900489D02*
X11862854Y-12795727D01*
X11862854Y-12795727D02*
X11853331Y-12776679D01*
X11853331Y-12776679D02*
X11834283Y-12767155D01*
X11834283Y-12767155D02*
X11796188Y-12767155D01*
X11796188Y-12767155D02*
X11777140Y-12776679D01*
X11862854Y-12890965D02*
X11843807Y-12900489D01*
X11843807Y-12900489D02*
X11796188Y-12900489D01*
X11796188Y-12900489D02*
X11777140Y-12890965D01*
X11777140Y-12890965D02*
X11767616Y-12871917D01*
X11767616Y-12871917D02*
X11767616Y-12852870D01*
X11767616Y-12852870D02*
X11777140Y-12833822D01*
X11777140Y-12833822D02*
X11796188Y-12824298D01*
X11796188Y-12824298D02*
X11843807Y-12824298D01*
X11843807Y-12824298D02*
X11862854Y-12814774D01*
X11929521Y-12767155D02*
X12005711Y-12767155D01*
X11958092Y-12700489D02*
X11958092Y-12871917D01*
X11958092Y-12871917D02*
X11967616Y-12890965D01*
X11967616Y-12890965D02*
X11986664Y-12900489D01*
X11986664Y-12900489D02*
X12005711Y-12900489D01*
X12148569Y-12890965D02*
X12129521Y-12900489D01*
X12129521Y-12900489D02*
X12091426Y-12900489D01*
X12091426Y-12900489D02*
X12072378Y-12890965D01*
X12072378Y-12890965D02*
X12062854Y-12871917D01*
X12062854Y-12871917D02*
X12062854Y-12795727D01*
X12062854Y-12795727D02*
X12072378Y-12776679D01*
X12072378Y-12776679D02*
X12091426Y-12767155D01*
X12091426Y-12767155D02*
X12129521Y-12767155D01*
X12129521Y-12767155D02*
X12148569Y-12776679D01*
X12148569Y-12776679D02*
X12158092Y-12795727D01*
X12158092Y-12795727D02*
X12158092Y-12814774D01*
X12158092Y-12814774D02*
X12062854Y-12833822D01*
X12329521Y-12900489D02*
X12329521Y-12700489D01*
X12329521Y-12890965D02*
X12310473Y-12900489D01*
X12310473Y-12900489D02*
X12272378Y-12900489D01*
X12272378Y-12900489D02*
X12253331Y-12890965D01*
X12253331Y-12890965D02*
X12243807Y-12881441D01*
X12243807Y-12881441D02*
X12234283Y-12862393D01*
X12234283Y-12862393D02*
X12234283Y-12805251D01*
X12234283Y-12805251D02*
X12243807Y-12786203D01*
X12243807Y-12786203D02*
X12253331Y-12776679D01*
X12253331Y-12776679D02*
X12272378Y-12767155D01*
X12272378Y-12767155D02*
X12310473Y-12767155D01*
X12310473Y-12767155D02*
X12329521Y-12776679D01*
X12405712Y-12976679D02*
X12415235Y-12967155D01*
X12415235Y-12967155D02*
X12434283Y-12938584D01*
X12434283Y-12938584D02*
X12443807Y-12919536D01*
X12443807Y-12919536D02*
X12453331Y-12890965D01*
X12453331Y-12890965D02*
X12462854Y-12843346D01*
X12462854Y-12843346D02*
X12462854Y-12805251D01*
X12462854Y-12805251D02*
X12453331Y-12757632D01*
X12453331Y-12757632D02*
X12443807Y-12729060D01*
X12443807Y-12729060D02*
X12434283Y-12710013D01*
X12434283Y-12710013D02*
X12415235Y-12681441D01*
X12415235Y-12681441D02*
X12405712Y-12671917D01*
X5811601Y-13089005D02*
G75*
G02*
X5611601Y-13089005I-100000J0D01*
G01*
X5611601Y-13089005D02*
G75*
G02*
X5811601Y-13089005I100000J0D01*
G01*
X6053330Y-12980489D02*
X6177140Y-12980489D01*
X6177140Y-12980489D02*
X6110473Y-13056679D01*
X6110473Y-13056679D02*
X6139044Y-13056679D01*
X6139044Y-13056679D02*
X6158092Y-13066203D01*
X6158092Y-13066203D02*
X6167616Y-13075727D01*
X6167616Y-13075727D02*
X6177140Y-13094774D01*
X6177140Y-13094774D02*
X6177140Y-13142393D01*
X6177140Y-13142393D02*
X6167616Y-13161441D01*
X6167616Y-13161441D02*
X6158092Y-13170965D01*
X6158092Y-13170965D02*
X6139044Y-13180489D01*
X6139044Y-13180489D02*
X6081901Y-13180489D01*
X6081901Y-13180489D02*
X6062854Y-13170965D01*
X6062854Y-13170965D02*
X6053330Y-13161441D01*
X6262854Y-13161441D02*
X6272378Y-13170965D01*
X6272378Y-13170965D02*
X6262854Y-13180489D01*
X6262854Y-13180489D02*
X6253330Y-13170965D01*
X6253330Y-13170965D02*
X6262854Y-13161441D01*
X6262854Y-13161441D02*
X6262854Y-13180489D01*
X6453330Y-12980489D02*
X6358092Y-12980489D01*
X6358092Y-12980489D02*
X6348568Y-13075727D01*
X6348568Y-13075727D02*
X6358092Y-13066203D01*
X6358092Y-13066203D02*
X6377140Y-13056679D01*
X6377140Y-13056679D02*
X6424759Y-13056679D01*
X6424759Y-13056679D02*
X6443806Y-13066203D01*
X6443806Y-13066203D02*
X6453330Y-13075727D01*
X6453330Y-13075727D02*
X6462854Y-13094774D01*
X6462854Y-13094774D02*
X6462854Y-13142393D01*
X6462854Y-13142393D02*
X6453330Y-13161441D01*
X6453330Y-13161441D02*
X6443806Y-13170965D01*
X6443806Y-13170965D02*
X6424759Y-13180489D01*
X6424759Y-13180489D02*
X6377140Y-13180489D01*
X6377140Y-13180489D02*
X6358092Y-13170965D01*
X6358092Y-13170965D02*
X6348568Y-13161441D01*
X6586663Y-12980489D02*
X6605711Y-12980489D01*
X6605711Y-12980489D02*
X6624759Y-12990013D01*
X6624759Y-12990013D02*
X6634282Y-12999536D01*
X6634282Y-12999536D02*
X6643806Y-13018584D01*
X6643806Y-13018584D02*
X6653330Y-13056679D01*
X6653330Y-13056679D02*
X6653330Y-13104298D01*
X6653330Y-13104298D02*
X6643806Y-13142393D01*
X6643806Y-13142393D02*
X6634282Y-13161441D01*
X6634282Y-13161441D02*
X6624759Y-13170965D01*
X6624759Y-13170965D02*
X6605711Y-13180489D01*
X6605711Y-13180489D02*
X6586663Y-13180489D01*
X6586663Y-13180489D02*
X6567616Y-13170965D01*
X6567616Y-13170965D02*
X6558092Y-13161441D01*
X6558092Y-13161441D02*
X6548568Y-13142393D01*
X6548568Y-13142393D02*
X6539044Y-13104298D01*
X6539044Y-13104298D02*
X6539044Y-13056679D01*
X6539044Y-13056679D02*
X6548568Y-13018584D01*
X6548568Y-13018584D02*
X6558092Y-12999536D01*
X6558092Y-12999536D02*
X6567616Y-12990013D01*
X6567616Y-12990013D02*
X6586663Y-12980489D01*
X6777140Y-12980489D02*
X6796187Y-12980489D01*
X6796187Y-12980489D02*
X6815235Y-12990013D01*
X6815235Y-12990013D02*
X6824759Y-12999536D01*
X6824759Y-12999536D02*
X6834282Y-13018584D01*
X6834282Y-13018584D02*
X6843806Y-13056679D01*
X6843806Y-13056679D02*
X6843806Y-13104298D01*
X6843806Y-13104298D02*
X6834282Y-13142393D01*
X6834282Y-13142393D02*
X6824759Y-13161441D01*
X6824759Y-13161441D02*
X6815235Y-13170965D01*
X6815235Y-13170965D02*
X6796187Y-13180489D01*
X6796187Y-13180489D02*
X6777140Y-13180489D01*
X6777140Y-13180489D02*
X6758092Y-13170965D01*
X6758092Y-13170965D02*
X6748568Y-13161441D01*
X6748568Y-13161441D02*
X6739044Y-13142393D01*
X6739044Y-13142393D02*
X6729521Y-13104298D01*
X6729521Y-13104298D02*
X6729521Y-13056679D01*
X6729521Y-13056679D02*
X6739044Y-13018584D01*
X6739044Y-13018584D02*
X6748568Y-12999536D01*
X6748568Y-12999536D02*
X6758092Y-12990013D01*
X6758092Y-12990013D02*
X6777140Y-12980489D01*
X6929521Y-13180489D02*
X6929521Y-13047155D01*
X6929521Y-13066203D02*
X6939044Y-13056679D01*
X6939044Y-13056679D02*
X6958092Y-13047155D01*
X6958092Y-13047155D02*
X6986663Y-13047155D01*
X6986663Y-13047155D02*
X7005711Y-13056679D01*
X7005711Y-13056679D02*
X7015235Y-13075727D01*
X7015235Y-13075727D02*
X7015235Y-13180489D01*
X7015235Y-13075727D02*
X7024759Y-13056679D01*
X7024759Y-13056679D02*
X7043806Y-13047155D01*
X7043806Y-13047155D02*
X7072378Y-13047155D01*
X7072378Y-13047155D02*
X7091425Y-13056679D01*
X7091425Y-13056679D02*
X7100949Y-13075727D01*
X7100949Y-13075727D02*
X7100949Y-13180489D01*
X7196187Y-13180489D02*
X7196187Y-13047155D01*
X7196187Y-13066203D02*
X7205711Y-13056679D01*
X7205711Y-13056679D02*
X7224759Y-13047155D01*
X7224759Y-13047155D02*
X7253330Y-13047155D01*
X7253330Y-13047155D02*
X7272378Y-13056679D01*
X7272378Y-13056679D02*
X7281902Y-13075727D01*
X7281902Y-13075727D02*
X7281902Y-13180489D01*
X7281902Y-13075727D02*
X7291425Y-13056679D01*
X7291425Y-13056679D02*
X7310473Y-13047155D01*
X7310473Y-13047155D02*
X7339044Y-13047155D01*
X7339044Y-13047155D02*
X7358092Y-13056679D01*
X7358092Y-13056679D02*
X7367616Y-13075727D01*
X7367616Y-13075727D02*
X7367616Y-13180489D01*
X7758092Y-12970965D02*
X7586664Y-13228108D01*
X8015235Y-12980489D02*
X8034283Y-12980489D01*
X8034283Y-12980489D02*
X8053330Y-12990013D01*
X8053330Y-12990013D02*
X8062854Y-12999536D01*
X8062854Y-12999536D02*
X8072378Y-13018584D01*
X8072378Y-13018584D02*
X8081902Y-13056679D01*
X8081902Y-13056679D02*
X8081902Y-13104298D01*
X8081902Y-13104298D02*
X8072378Y-13142393D01*
X8072378Y-13142393D02*
X8062854Y-13161441D01*
X8062854Y-13161441D02*
X8053330Y-13170965D01*
X8053330Y-13170965D02*
X8034283Y-13180489D01*
X8034283Y-13180489D02*
X8015235Y-13180489D01*
X8015235Y-13180489D02*
X7996187Y-13170965D01*
X7996187Y-13170965D02*
X7986664Y-13161441D01*
X7986664Y-13161441D02*
X7977140Y-13142393D01*
X7977140Y-13142393D02*
X7967616Y-13104298D01*
X7967616Y-13104298D02*
X7967616Y-13056679D01*
X7967616Y-13056679D02*
X7977140Y-13018584D01*
X7977140Y-13018584D02*
X7986664Y-12999536D01*
X7986664Y-12999536D02*
X7996187Y-12990013D01*
X7996187Y-12990013D02*
X8015235Y-12980489D01*
X8167616Y-13161441D02*
X8177140Y-13170965D01*
X8177140Y-13170965D02*
X8167616Y-13180489D01*
X8167616Y-13180489D02*
X8158092Y-13170965D01*
X8158092Y-13170965D02*
X8167616Y-13161441D01*
X8167616Y-13161441D02*
X8167616Y-13180489D01*
X8367616Y-13180489D02*
X8253330Y-13180489D01*
X8310473Y-13180489D02*
X8310473Y-12980489D01*
X8310473Y-12980489D02*
X8291425Y-13009060D01*
X8291425Y-13009060D02*
X8272378Y-13028108D01*
X8272378Y-13028108D02*
X8253330Y-13037632D01*
X8434283Y-12980489D02*
X8558092Y-12980489D01*
X8558092Y-12980489D02*
X8491426Y-13056679D01*
X8491426Y-13056679D02*
X8519997Y-13056679D01*
X8519997Y-13056679D02*
X8539045Y-13066203D01*
X8539045Y-13066203D02*
X8548568Y-13075727D01*
X8548568Y-13075727D02*
X8558092Y-13094774D01*
X8558092Y-13094774D02*
X8558092Y-13142393D01*
X8558092Y-13142393D02*
X8548568Y-13161441D01*
X8548568Y-13161441D02*
X8539045Y-13170965D01*
X8539045Y-13170965D02*
X8519997Y-13180489D01*
X8519997Y-13180489D02*
X8462854Y-13180489D01*
X8462854Y-13180489D02*
X8443807Y-13170965D01*
X8443807Y-13170965D02*
X8434283Y-13161441D01*
X8624759Y-12980489D02*
X8758092Y-12980489D01*
X8758092Y-12980489D02*
X8672378Y-13180489D01*
X8862854Y-13066203D02*
X8843807Y-13056679D01*
X8843807Y-13056679D02*
X8834283Y-13047155D01*
X8834283Y-13047155D02*
X8824759Y-13028108D01*
X8824759Y-13028108D02*
X8824759Y-13018584D01*
X8824759Y-13018584D02*
X8834283Y-12999536D01*
X8834283Y-12999536D02*
X8843807Y-12990013D01*
X8843807Y-12990013D02*
X8862854Y-12980489D01*
X8862854Y-12980489D02*
X8900949Y-12980489D01*
X8900949Y-12980489D02*
X8919997Y-12990013D01*
X8919997Y-12990013D02*
X8929521Y-12999536D01*
X8929521Y-12999536D02*
X8939045Y-13018584D01*
X8939045Y-13018584D02*
X8939045Y-13028108D01*
X8939045Y-13028108D02*
X8929521Y-13047155D01*
X8929521Y-13047155D02*
X8919997Y-13056679D01*
X8919997Y-13056679D02*
X8900949Y-13066203D01*
X8900949Y-13066203D02*
X8862854Y-13066203D01*
X8862854Y-13066203D02*
X8843807Y-13075727D01*
X8843807Y-13075727D02*
X8834283Y-13085251D01*
X8834283Y-13085251D02*
X8824759Y-13104298D01*
X8824759Y-13104298D02*
X8824759Y-13142393D01*
X8824759Y-13142393D02*
X8834283Y-13161441D01*
X8834283Y-13161441D02*
X8843807Y-13170965D01*
X8843807Y-13170965D02*
X8862854Y-13180489D01*
X8862854Y-13180489D02*
X8900949Y-13180489D01*
X8900949Y-13180489D02*
X8919997Y-13170965D01*
X8919997Y-13170965D02*
X8929521Y-13161441D01*
X8929521Y-13161441D02*
X8939045Y-13142393D01*
X8939045Y-13142393D02*
X8939045Y-13104298D01*
X8939045Y-13104298D02*
X8929521Y-13085251D01*
X8929521Y-13085251D02*
X8919997Y-13075727D01*
X8919997Y-13075727D02*
X8900949Y-13066203D01*
X9015235Y-12980489D02*
X9015235Y-13018584D01*
X9091426Y-12980489D02*
X9091426Y-13018584D01*
X9386664Y-13256679D02*
X9377140Y-13247155D01*
X9377140Y-13247155D02*
X9358092Y-13218584D01*
X9358092Y-13218584D02*
X9348569Y-13199536D01*
X9348569Y-13199536D02*
X9339045Y-13170965D01*
X9339045Y-13170965D02*
X9329521Y-13123346D01*
X9329521Y-13123346D02*
X9329521Y-13085251D01*
X9329521Y-13085251D02*
X9339045Y-13037632D01*
X9339045Y-13037632D02*
X9348569Y-13009060D01*
X9348569Y-13009060D02*
X9358092Y-12990013D01*
X9358092Y-12990013D02*
X9377140Y-12961441D01*
X9377140Y-12961441D02*
X9386664Y-12951917D01*
X9548569Y-13047155D02*
X9548569Y-13180489D01*
X9500949Y-12970965D02*
X9453330Y-13113822D01*
X9453330Y-13113822D02*
X9577140Y-13113822D01*
X9805711Y-13180489D02*
X9805711Y-12980489D01*
X9891426Y-13180489D02*
X9891426Y-13075727D01*
X9891426Y-13075727D02*
X9881902Y-13056679D01*
X9881902Y-13056679D02*
X9862854Y-13047155D01*
X9862854Y-13047155D02*
X9834283Y-13047155D01*
X9834283Y-13047155D02*
X9815235Y-13056679D01*
X9815235Y-13056679D02*
X9805711Y-13066203D01*
X10015235Y-13180489D02*
X9996188Y-13170965D01*
X9996188Y-13170965D02*
X9986664Y-13161441D01*
X9986664Y-13161441D02*
X9977140Y-13142393D01*
X9977140Y-13142393D02*
X9977140Y-13085251D01*
X9977140Y-13085251D02*
X9986664Y-13066203D01*
X9986664Y-13066203D02*
X9996188Y-13056679D01*
X9996188Y-13056679D02*
X10015235Y-13047155D01*
X10015235Y-13047155D02*
X10043807Y-13047155D01*
X10043807Y-13047155D02*
X10062854Y-13056679D01*
X10062854Y-13056679D02*
X10072378Y-13066203D01*
X10072378Y-13066203D02*
X10081902Y-13085251D01*
X10081902Y-13085251D02*
X10081902Y-13142393D01*
X10081902Y-13142393D02*
X10072378Y-13161441D01*
X10072378Y-13161441D02*
X10062854Y-13170965D01*
X10062854Y-13170965D02*
X10043807Y-13180489D01*
X10043807Y-13180489D02*
X10015235Y-13180489D01*
X10196188Y-13180489D02*
X10177140Y-13170965D01*
X10177140Y-13170965D02*
X10167616Y-13151917D01*
X10167616Y-13151917D02*
X10167616Y-12980489D01*
X10348569Y-13170965D02*
X10329521Y-13180489D01*
X10329521Y-13180489D02*
X10291426Y-13180489D01*
X10291426Y-13180489D02*
X10272378Y-13170965D01*
X10272378Y-13170965D02*
X10262854Y-13151917D01*
X10262854Y-13151917D02*
X10262854Y-13075727D01*
X10262854Y-13075727D02*
X10272378Y-13056679D01*
X10272378Y-13056679D02*
X10291426Y-13047155D01*
X10291426Y-13047155D02*
X10329521Y-13047155D01*
X10329521Y-13047155D02*
X10348569Y-13056679D01*
X10348569Y-13056679D02*
X10358092Y-13075727D01*
X10358092Y-13075727D02*
X10358092Y-13094774D01*
X10358092Y-13094774D02*
X10262854Y-13113822D01*
X10434283Y-13170965D02*
X10453331Y-13180489D01*
X10453331Y-13180489D02*
X10491426Y-13180489D01*
X10491426Y-13180489D02*
X10510473Y-13170965D01*
X10510473Y-13170965D02*
X10519997Y-13151917D01*
X10519997Y-13151917D02*
X10519997Y-13142393D01*
X10519997Y-13142393D02*
X10510473Y-13123346D01*
X10510473Y-13123346D02*
X10491426Y-13113822D01*
X10491426Y-13113822D02*
X10462854Y-13113822D01*
X10462854Y-13113822D02*
X10443807Y-13104298D01*
X10443807Y-13104298D02*
X10434283Y-13085251D01*
X10434283Y-13085251D02*
X10434283Y-13075727D01*
X10434283Y-13075727D02*
X10443807Y-13056679D01*
X10443807Y-13056679D02*
X10462854Y-13047155D01*
X10462854Y-13047155D02*
X10491426Y-13047155D01*
X10491426Y-13047155D02*
X10510473Y-13056679D01*
X10586664Y-13256679D02*
X10596188Y-13247155D01*
X10596188Y-13247155D02*
X10615235Y-13218584D01*
X10615235Y-13218584D02*
X10624759Y-13199536D01*
X10624759Y-13199536D02*
X10634283Y-13170965D01*
X10634283Y-13170965D02*
X10643807Y-13123346D01*
X10643807Y-13123346D02*
X10643807Y-13085251D01*
X10643807Y-13085251D02*
X10634283Y-13037632D01*
X10634283Y-13037632D02*
X10624759Y-13009060D01*
X10624759Y-13009060D02*
X10615235Y-12990013D01*
X10615235Y-12990013D02*
X10596188Y-12961441D01*
X10596188Y-12961441D02*
X10586664Y-12951917D01*
X10948569Y-13256679D02*
X10939045Y-13247155D01*
X10939045Y-13247155D02*
X10919997Y-13218584D01*
X10919997Y-13218584D02*
X10910473Y-13199536D01*
X10910473Y-13199536D02*
X10900950Y-13170965D01*
X10900950Y-13170965D02*
X10891426Y-13123346D01*
X10891426Y-13123346D02*
X10891426Y-13085251D01*
X10891426Y-13085251D02*
X10900950Y-13037632D01*
X10900950Y-13037632D02*
X10910473Y-13009060D01*
X10910473Y-13009060D02*
X10919997Y-12990013D01*
X10919997Y-12990013D02*
X10939045Y-12961441D01*
X10939045Y-12961441D02*
X10948569Y-12951917D01*
X11024759Y-13047155D02*
X11024759Y-13180489D01*
X11024759Y-13066203D02*
X11034283Y-13056679D01*
X11034283Y-13056679D02*
X11053331Y-13047155D01*
X11053331Y-13047155D02*
X11081902Y-13047155D01*
X11081902Y-13047155D02*
X11100950Y-13056679D01*
X11100950Y-13056679D02*
X11110473Y-13075727D01*
X11110473Y-13075727D02*
X11110473Y-13180489D01*
X11234283Y-13180489D02*
X11215235Y-13170965D01*
X11215235Y-13170965D02*
X11205711Y-13161441D01*
X11205711Y-13161441D02*
X11196188Y-13142393D01*
X11196188Y-13142393D02*
X11196188Y-13085251D01*
X11196188Y-13085251D02*
X11205711Y-13066203D01*
X11205711Y-13066203D02*
X11215235Y-13056679D01*
X11215235Y-13056679D02*
X11234283Y-13047155D01*
X11234283Y-13047155D02*
X11262854Y-13047155D01*
X11262854Y-13047155D02*
X11281902Y-13056679D01*
X11281902Y-13056679D02*
X11291426Y-13066203D01*
X11291426Y-13066203D02*
X11300950Y-13085251D01*
X11300950Y-13085251D02*
X11300950Y-13142393D01*
X11300950Y-13142393D02*
X11291426Y-13161441D01*
X11291426Y-13161441D02*
X11281902Y-13170965D01*
X11281902Y-13170965D02*
X11262854Y-13180489D01*
X11262854Y-13180489D02*
X11234283Y-13180489D01*
X11358092Y-13047155D02*
X11434283Y-13047155D01*
X11386664Y-12980489D02*
X11386664Y-13151917D01*
X11386664Y-13151917D02*
X11396188Y-13170965D01*
X11396188Y-13170965D02*
X11415235Y-13180489D01*
X11415235Y-13180489D02*
X11434283Y-13180489D01*
X11653331Y-13047155D02*
X11653331Y-13247155D01*
X11653331Y-13056679D02*
X11672378Y-13047155D01*
X11672378Y-13047155D02*
X11710473Y-13047155D01*
X11710473Y-13047155D02*
X11729521Y-13056679D01*
X11729521Y-13056679D02*
X11739045Y-13066203D01*
X11739045Y-13066203D02*
X11748569Y-13085251D01*
X11748569Y-13085251D02*
X11748569Y-13142393D01*
X11748569Y-13142393D02*
X11739045Y-13161441D01*
X11739045Y-13161441D02*
X11729521Y-13170965D01*
X11729521Y-13170965D02*
X11710473Y-13180489D01*
X11710473Y-13180489D02*
X11672378Y-13180489D01*
X11672378Y-13180489D02*
X11653331Y-13170965D01*
X11862854Y-13180489D02*
X11843807Y-13170965D01*
X11843807Y-13170965D02*
X11834283Y-13151917D01*
X11834283Y-13151917D02*
X11834283Y-12980489D01*
X12024759Y-13180489D02*
X12024759Y-13075727D01*
X12024759Y-13075727D02*
X12015235Y-13056679D01*
X12015235Y-13056679D02*
X11996188Y-13047155D01*
X11996188Y-13047155D02*
X11958092Y-13047155D01*
X11958092Y-13047155D02*
X11939045Y-13056679D01*
X12024759Y-13170965D02*
X12005712Y-13180489D01*
X12005712Y-13180489D02*
X11958092Y-13180489D01*
X11958092Y-13180489D02*
X11939045Y-13170965D01*
X11939045Y-13170965D02*
X11929521Y-13151917D01*
X11929521Y-13151917D02*
X11929521Y-13132870D01*
X11929521Y-13132870D02*
X11939045Y-13113822D01*
X11939045Y-13113822D02*
X11958092Y-13104298D01*
X11958092Y-13104298D02*
X12005712Y-13104298D01*
X12005712Y-13104298D02*
X12024759Y-13094774D01*
X12091426Y-13047155D02*
X12167616Y-13047155D01*
X12119997Y-12980489D02*
X12119997Y-13151917D01*
X12119997Y-13151917D02*
X12129521Y-13170965D01*
X12129521Y-13170965D02*
X12148569Y-13180489D01*
X12148569Y-13180489D02*
X12167616Y-13180489D01*
X12310473Y-13170965D02*
X12291426Y-13180489D01*
X12291426Y-13180489D02*
X12253331Y-13180489D01*
X12253331Y-13180489D02*
X12234283Y-13170965D01*
X12234283Y-13170965D02*
X12224759Y-13151917D01*
X12224759Y-13151917D02*
X12224759Y-13075727D01*
X12224759Y-13075727D02*
X12234283Y-13056679D01*
X12234283Y-13056679D02*
X12253331Y-13047155D01*
X12253331Y-13047155D02*
X12291426Y-13047155D01*
X12291426Y-13047155D02*
X12310473Y-13056679D01*
X12310473Y-13056679D02*
X12319997Y-13075727D01*
X12319997Y-13075727D02*
X12319997Y-13094774D01*
X12319997Y-13094774D02*
X12224759Y-13113822D01*
X12491426Y-13180489D02*
X12491426Y-12980489D01*
X12491426Y-13170965D02*
X12472378Y-13180489D01*
X12472378Y-13180489D02*
X12434283Y-13180489D01*
X12434283Y-13180489D02*
X12415235Y-13170965D01*
X12415235Y-13170965D02*
X12405712Y-13161441D01*
X12405712Y-13161441D02*
X12396188Y-13142393D01*
X12396188Y-13142393D02*
X12396188Y-13085251D01*
X12396188Y-13085251D02*
X12405712Y-13066203D01*
X12405712Y-13066203D02*
X12415235Y-13056679D01*
X12415235Y-13056679D02*
X12434283Y-13047155D01*
X12434283Y-13047155D02*
X12472378Y-13047155D01*
X12472378Y-13047155D02*
X12491426Y-13056679D01*
X12567616Y-13256679D02*
X12577140Y-13247155D01*
X12577140Y-13247155D02*
X12596188Y-13218584D01*
X12596188Y-13218584D02*
X12605712Y-13199536D01*
X12605712Y-13199536D02*
X12615235Y-13170965D01*
X12615235Y-13170965D02*
X12624759Y-13123346D01*
X12624759Y-13123346D02*
X12624759Y-13085251D01*
X12624759Y-13085251D02*
X12615235Y-13037632D01*
X12615235Y-13037632D02*
X12605712Y-13009060D01*
X12605712Y-13009060D02*
X12596188Y-12990013D01*
X12596188Y-12990013D02*
X12577140Y-12961441D01*
X12577140Y-12961441D02*
X12567616Y-12951917D01*
M02*
