G04 #@! TF.GenerationSoftware,KiCad,Pcbnew,8.0.6*
G04 #@! TF.CreationDate,2024-11-16T12:33:55-06:00*
G04 #@! TF.ProjectId,1400-PSU,31343030-2d50-4535-952e-6b696361645f,rev?*
G04 #@! TF.SameCoordinates,Original*
G04 #@! TF.FileFunction,Soldermask,Bot*
G04 #@! TF.FilePolarity,Negative*
%FSLAX46Y46*%
G04 Gerber Fmt 4.6, Leading zero omitted, Abs format (unit mm)*
G04 Created by KiCad (PCBNEW 8.0.6) date 2024-11-16 12:33:55*
%MOMM*%
%LPD*%
G01*
G04 APERTURE LIST*
G04 Aperture macros list*
%AMRoundRect*
0 Rectangle with rounded corners*
0 $1 Rounding radius*
0 $2 $3 $4 $5 $6 $7 $8 $9 X,Y pos of 4 corners*
0 Add a 4 corners polygon primitive as box body*
4,1,4,$2,$3,$4,$5,$6,$7,$8,$9,$2,$3,0*
0 Add four circle primitives for the rounded corners*
1,1,$1+$1,$2,$3*
1,1,$1+$1,$4,$5*
1,1,$1+$1,$6,$7*
1,1,$1+$1,$8,$9*
0 Add four rect primitives between the rounded corners*
20,1,$1+$1,$2,$3,$4,$5,0*
20,1,$1+$1,$4,$5,$6,$7,0*
20,1,$1+$1,$6,$7,$8,$9,0*
20,1,$1+$1,$8,$9,$2,$3,0*%
G04 Aperture macros list end*
%ADD10RoundRect,0.333333X-1.666667X-2.166667X1.666667X-2.166667X1.666667X2.166667X-1.666667X2.166667X0*%
%ADD11RoundRect,0.250000X-1.750000X-1.250000X1.750000X-1.250000X1.750000X1.250000X-1.750000X1.250000X0*%
%ADD12C,3.900000*%
%ADD13C,7.000000*%
%ADD14C,1.600000*%
%ADD15R,2.000000X4.000000*%
%ADD16O,2.000000X3.300000*%
%ADD17O,3.500000X2.000000*%
%ADD18R,1.600000X1.600000*%
%ADD19R,2.200000X2.200000*%
%ADD20O,2.200000X2.200000*%
%ADD21C,2.600000*%
%ADD22O,3.500000X3.500000*%
%ADD23R,2.000000X1.905000*%
%ADD24O,2.000000X1.905000*%
%ADD25RoundRect,0.250000X-0.725000X0.600000X-0.725000X-0.600000X0.725000X-0.600000X0.725000X0.600000X0*%
%ADD26O,1.950000X1.700000*%
%ADD27R,3.200000X3.200000*%
%ADD28O,3.200000X3.200000*%
%ADD29R,2.000000X2.000000*%
%ADD30C,2.000000*%
%ADD31R,2.000000X1.600000*%
%ADD32O,1.600000X1.600000*%
%ADD33R,1.200000X1.200000*%
%ADD34C,1.200000*%
%ADD35C,2.780000*%
%ADD36R,1.905000X1.905000*%
%ADD37C,1.905000*%
%ADD38C,1.440000*%
%ADD39RoundRect,0.250000X-0.750000X0.600000X-0.750000X-0.600000X0.750000X-0.600000X0.750000X0.600000X0*%
%ADD40O,2.000000X1.700000*%
%ADD41R,1.905000X2.000000*%
%ADD42O,1.905000X2.000000*%
%ADD43RoundRect,0.375000X-1.125000X-1.125000X1.125000X-1.125000X1.125000X1.125000X-1.125000X1.125000X0*%
%ADD44C,3.000000*%
G04 APERTURE END LIST*
D10*
X146385000Y-64140000D03*
D11*
X156385000Y-63265000D03*
D10*
X146385000Y-71140000D03*
D11*
X156385000Y-72015000D03*
D12*
X74690000Y-66520000D03*
D13*
X74690000Y-66520000D03*
D12*
X62030000Y-115120000D03*
D13*
X62030000Y-115120000D03*
D12*
X197540000Y-117690000D03*
D13*
X197540000Y-117690000D03*
D12*
X222390000Y-63590000D03*
D13*
X222390000Y-63590000D03*
D14*
X61850000Y-82390000D03*
D15*
X70850000Y-82390000D03*
D16*
X64850000Y-82390000D03*
D17*
X63850000Y-77890000D03*
X63850000Y-86890000D03*
D14*
X125290000Y-110240000D03*
X125290000Y-115240000D03*
X92280000Y-84040000D03*
X97360000Y-84040000D03*
D18*
X141420000Y-116652380D03*
D14*
X141420000Y-114152380D03*
D19*
X99650000Y-67500000D03*
D20*
X89490000Y-67500000D03*
D21*
X109140000Y-67440000D03*
X104140000Y-67440000D03*
D22*
X62730000Y-103340000D03*
D23*
X79390000Y-105880000D03*
D24*
X79390000Y-103340000D03*
X79390000Y-100800000D03*
D14*
X165145000Y-73630000D03*
X170225000Y-73630000D03*
D18*
X125080000Y-77500000D03*
D14*
X125080000Y-81000000D03*
D18*
X133270000Y-112717349D03*
D14*
X133270000Y-117717349D03*
D25*
X180020000Y-82230000D03*
D26*
X180020000Y-84730000D03*
X180020000Y-87230000D03*
X180020000Y-89730000D03*
X180020000Y-92230000D03*
X180020000Y-94730000D03*
X180020000Y-97230000D03*
X180020000Y-99730000D03*
X180020000Y-102230000D03*
X180020000Y-104730000D03*
X180020000Y-107230000D03*
X180020000Y-109730000D03*
X180020000Y-112230000D03*
X180020000Y-114730000D03*
X180020000Y-117230000D03*
D14*
X113740000Y-102590000D03*
X113740000Y-107590000D03*
X175045000Y-73640000D03*
X180125000Y-73640000D03*
D27*
X67540000Y-94190000D03*
D28*
X80240000Y-94190000D03*
D14*
X165345000Y-77130000D03*
X170425000Y-77130000D03*
X117580000Y-76320000D03*
X117580000Y-81400000D03*
X92520000Y-88190000D03*
X97600000Y-88190000D03*
X119900000Y-71330000D03*
X114820000Y-71330000D03*
D29*
X96080000Y-78587677D03*
D30*
X96080000Y-73587677D03*
D27*
X84930000Y-87710000D03*
D28*
X84930000Y-82630000D03*
D31*
X106170000Y-77480000D03*
D30*
X106170000Y-80020000D03*
X106170000Y-82560000D03*
X106170000Y-85100000D03*
X113790000Y-85100000D03*
X113790000Y-82560000D03*
X113790000Y-80020000D03*
X113790000Y-77480000D03*
D32*
X188670000Y-71770000D03*
X191210000Y-71770000D03*
X193750000Y-71770000D03*
X196290000Y-71770000D03*
X198830000Y-71770000D03*
X201370000Y-71770000D03*
X203910000Y-71770000D03*
X206450000Y-71770000D03*
X208990000Y-71770000D03*
X211530000Y-71770000D03*
X214070000Y-71770000D03*
X216610000Y-71770000D03*
X219150000Y-71770000D03*
X221690000Y-71770000D03*
X224230000Y-71770000D03*
X224230000Y-87010000D03*
X221690000Y-87010000D03*
X219150000Y-87010000D03*
X216610000Y-87010000D03*
X214070000Y-87010000D03*
X211530000Y-87010000D03*
X208990000Y-87010000D03*
X206450000Y-87010000D03*
X203910000Y-87010000D03*
X201370000Y-87010000D03*
X198830000Y-87010000D03*
X196290000Y-87010000D03*
X193750000Y-87010000D03*
X191210000Y-87010000D03*
D18*
X188670000Y-87010000D03*
D33*
X148632600Y-105840000D03*
D34*
X146632600Y-105840000D03*
D35*
X86000000Y-76670000D03*
X86000000Y-73270000D03*
X76080000Y-76670000D03*
X76080000Y-73270000D03*
D14*
X101730000Y-81840000D03*
X101730000Y-86840000D03*
D36*
X176390000Y-67670000D03*
D37*
X178930000Y-67670000D03*
X181470000Y-67670000D03*
X184010000Y-67670000D03*
X186550000Y-67670000D03*
X189090000Y-67670000D03*
D27*
X76570000Y-87590000D03*
D28*
X76570000Y-82510000D03*
D18*
X158660000Y-112830000D03*
D14*
X158660000Y-117830000D03*
X119900000Y-67470000D03*
X114820000Y-67470000D03*
X175030000Y-77130000D03*
X180110000Y-77130000D03*
D38*
X124960000Y-67010000D03*
X127500000Y-69550000D03*
X124960000Y-72090000D03*
D39*
X62170000Y-91910000D03*
D40*
X62170000Y-94410000D03*
D22*
X138090000Y-90100000D03*
D41*
X135550000Y-106760000D03*
D42*
X138090000Y-106760000D03*
X140630000Y-106760000D03*
D22*
X156140000Y-90000000D03*
D41*
X153600000Y-106660000D03*
D42*
X156140000Y-106660000D03*
X158680000Y-106660000D03*
D22*
X121370000Y-90340000D03*
D41*
X118830000Y-107000000D03*
D42*
X121370000Y-107000000D03*
X123910000Y-107000000D03*
D43*
X85386000Y-92934000D03*
D44*
X85386000Y-107666000D03*
X106976000Y-107666000D03*
X106976000Y-92934000D03*
M02*
