G04 #@! TF.GenerationSoftware,KiCad,Pcbnew,8.0.6*
G04 #@! TF.CreationDate,2024-12-01T22:04:31-06:00*
G04 #@! TF.ProjectId,1400-PSU,31343030-2d50-4535-952e-6b696361645f,rev?*
G04 #@! TF.SameCoordinates,Original*
G04 #@! TF.FileFunction,Soldermask,Top*
G04 #@! TF.FilePolarity,Negative*
%FSLAX46Y46*%
G04 Gerber Fmt 4.6, Leading zero omitted, Abs format (unit mm)*
G04 Created by KiCad (PCBNEW 8.0.6) date 2024-12-01 22:04:31*
%MOMM*%
%LPD*%
G01*
G04 APERTURE LIST*
G04 Aperture macros list*
%AMRoundRect*
0 Rectangle with rounded corners*
0 $1 Rounding radius*
0 $2 $3 $4 $5 $6 $7 $8 $9 X,Y pos of 4 corners*
0 Add a 4 corners polygon primitive as box body*
4,1,4,$2,$3,$4,$5,$6,$7,$8,$9,$2,$3,0*
0 Add four circle primitives for the rounded corners*
1,1,$1+$1,$2,$3*
1,1,$1+$1,$4,$5*
1,1,$1+$1,$6,$7*
1,1,$1+$1,$8,$9*
0 Add four rect primitives between the rounded corners*
20,1,$1+$1,$2,$3,$4,$5,0*
20,1,$1+$1,$4,$5,$6,$7,0*
20,1,$1+$1,$6,$7,$8,$9,0*
20,1,$1+$1,$8,$9,$2,$3,0*%
%AMFreePoly0*
4,1,19,0.500000,-0.750000,0.000000,-0.750000,0.000000,-0.744911,-0.071157,-0.744911,-0.207708,-0.704816,-0.327430,-0.627875,-0.420627,-0.520320,-0.479746,-0.390866,-0.500000,-0.250000,-0.500000,0.250000,-0.479746,0.390866,-0.420627,0.520320,-0.327430,0.627875,-0.207708,0.704816,-0.071157,0.744911,0.000000,0.744911,0.000000,0.750000,0.500000,0.750000,0.500000,-0.750000,0.500000,-0.750000,
$1*%
%AMFreePoly1*
4,1,19,0.000000,0.744911,0.071157,0.744911,0.207708,0.704816,0.327430,0.627875,0.420627,0.520320,0.479746,0.390866,0.500000,0.250000,0.500000,-0.250000,0.479746,-0.390866,0.420627,-0.520320,0.327430,-0.627875,0.207708,-0.704816,0.071157,-0.744911,0.000000,-0.744911,0.000000,-0.750000,-0.500000,-0.750000,-0.500000,0.750000,0.000000,0.750000,0.000000,0.744911,0.000000,0.744911,
$1*%
%AMFreePoly2*
4,1,19,0.550000,-0.750000,0.000000,-0.750000,0.000000,-0.744911,-0.071157,-0.744911,-0.207708,-0.704816,-0.327430,-0.627875,-0.420627,-0.520320,-0.479746,-0.390866,-0.500000,-0.250000,-0.500000,0.250000,-0.479746,0.390866,-0.420627,0.520320,-0.327430,0.627875,-0.207708,0.704816,-0.071157,0.744911,0.000000,0.744911,0.000000,0.750000,0.550000,0.750000,0.550000,-0.750000,0.550000,-0.750000,
$1*%
%AMFreePoly3*
4,1,19,0.000000,0.744911,0.071157,0.744911,0.207708,0.704816,0.327430,0.627875,0.420627,0.520320,0.479746,0.390866,0.500000,0.250000,0.500000,-0.250000,0.479746,-0.390866,0.420627,-0.520320,0.327430,-0.627875,0.207708,-0.704816,0.071157,-0.744911,0.000000,-0.744911,0.000000,-0.750000,-0.550000,-0.750000,-0.550000,0.750000,0.000000,0.750000,0.000000,0.744911,0.000000,0.744911,
$1*%
G04 Aperture macros list end*
%ADD10R,1.905000X1.905000*%
%ADD11C,1.905000*%
%ADD12C,3.900000*%
%ADD13C,7.000000*%
%ADD14C,1.600000*%
%ADD15R,2.000000X4.000000*%
%ADD16O,2.000000X3.300000*%
%ADD17O,3.500000X2.000000*%
%ADD18R,1.600000X1.600000*%
%ADD19R,2.200000X2.200000*%
%ADD20O,2.200000X2.200000*%
%ADD21C,2.600000*%
%ADD22O,3.500000X3.500000*%
%ADD23R,2.000000X1.905000*%
%ADD24O,2.000000X1.905000*%
%ADD25FreePoly0,90.000000*%
%ADD26FreePoly1,90.000000*%
%ADD27RoundRect,0.250000X-0.725000X0.600000X-0.725000X-0.600000X0.725000X-0.600000X0.725000X0.600000X0*%
%ADD28O,1.950000X1.700000*%
%ADD29FreePoly2,270.000000*%
%ADD30R,1.500000X1.000000*%
%ADD31FreePoly3,270.000000*%
%ADD32R,3.200000X3.200000*%
%ADD33O,3.200000X3.200000*%
%ADD34FreePoly2,180.000000*%
%ADD35R,1.000000X1.500000*%
%ADD36FreePoly3,180.000000*%
%ADD37R,2.000000X2.000000*%
%ADD38C,2.000000*%
%ADD39R,2.000000X1.600000*%
%ADD40RoundRect,0.150000X0.150000X-0.725000X0.150000X0.725000X-0.150000X0.725000X-0.150000X-0.725000X0*%
%ADD41R,1.200000X1.200000*%
%ADD42C,1.200000*%
%ADD43C,2.780000*%
%ADD44RoundRect,0.375000X-1.125000X-1.125000X1.125000X-1.125000X1.125000X1.125000X-1.125000X1.125000X0*%
%ADD45C,3.000000*%
%ADD46C,1.440000*%
%ADD47RoundRect,0.333333X1.666667X2.166667X-1.666667X2.166667X-1.666667X-2.166667X1.666667X-2.166667X0*%
%ADD48RoundRect,0.250000X1.750000X1.250000X-1.750000X1.250000X-1.750000X-1.250000X1.750000X-1.250000X0*%
%ADD49RoundRect,0.250002X1.699998X1.699998X-1.699998X1.699998X-1.699998X-1.699998X1.699998X-1.699998X0*%
%ADD50R,1.905000X2.000000*%
%ADD51O,1.905000X2.000000*%
%ADD52O,1.600000X1.600000*%
G04 APERTURE END LIST*
D10*
X179970000Y-62010000D03*
D11*
X177430000Y-62010000D03*
X174890000Y-62010000D03*
X172350000Y-62010000D03*
X169810000Y-62010000D03*
X167270000Y-62010000D03*
D12*
X197540000Y-117690000D03*
D13*
X197540000Y-117690000D03*
D14*
X61850000Y-82390000D03*
D15*
X70850000Y-82390000D03*
D16*
X64850000Y-82390000D03*
D17*
X63850000Y-77890000D03*
X63850000Y-86890000D03*
D14*
X128400000Y-110210000D03*
X128400000Y-115210000D03*
X74455000Y-97000000D03*
X79535000Y-97000000D03*
D18*
X95390000Y-88360000D03*
D14*
X95390000Y-83360000D03*
D18*
X143880000Y-114770000D03*
D14*
X143880000Y-112270000D03*
D19*
X107990000Y-77070000D03*
D20*
X107990000Y-87230000D03*
D21*
X111070000Y-68100000D03*
X111070000Y-73100000D03*
D22*
X62950000Y-104520000D03*
D23*
X79610000Y-107060000D03*
D24*
X79610000Y-104520000D03*
X79610000Y-101980000D03*
D14*
X197465000Y-65560000D03*
X202545000Y-65560000D03*
D18*
X136240000Y-80372651D03*
D14*
X136240000Y-76872651D03*
D18*
X135910000Y-111867349D03*
D14*
X135910000Y-116867349D03*
D25*
X199180000Y-82260000D03*
D26*
X199180000Y-80960000D03*
D27*
X180020000Y-82230000D03*
D28*
X180020000Y-84730000D03*
X180020000Y-87230000D03*
X180020000Y-89730000D03*
X180020000Y-92230000D03*
X180020000Y-94730000D03*
X180020000Y-97230000D03*
X180020000Y-99730000D03*
X180020000Y-102230000D03*
X180020000Y-104730000D03*
X180020000Y-107230000D03*
X180020000Y-109730000D03*
X180020000Y-112230000D03*
X180020000Y-114730000D03*
X180020000Y-117230000D03*
D14*
X123860000Y-110280000D03*
X123860000Y-115280000D03*
D29*
X184900000Y-115970000D03*
D30*
X184900000Y-117270000D03*
D31*
X184900000Y-118570000D03*
D14*
X207365000Y-65570000D03*
X212445000Y-65570000D03*
D25*
X196580000Y-82260000D03*
D26*
X196580000Y-80960000D03*
D12*
X62030000Y-115120000D03*
D13*
X62030000Y-115120000D03*
D32*
X74680000Y-87670000D03*
D33*
X87380000Y-87670000D03*
D14*
X197485000Y-69000000D03*
X202565000Y-69000000D03*
X128700000Y-75395000D03*
X128700000Y-80475000D03*
D34*
X152590000Y-78170000D03*
D35*
X151290000Y-78170000D03*
D36*
X149990000Y-78170000D03*
D12*
X74690000Y-66250000D03*
D13*
X74690000Y-66250000D03*
D14*
X79520000Y-93130000D03*
X74440000Y-93130000D03*
X129145000Y-68400000D03*
X124065000Y-68400000D03*
D37*
X98160000Y-76880000D03*
D38*
X103160000Y-76880000D03*
D32*
X89620000Y-65540000D03*
D33*
X89620000Y-70620000D03*
D39*
X117455000Y-73530000D03*
D40*
X119410000Y-80210000D03*
D38*
X117455000Y-76070000D03*
D40*
X120680000Y-80210000D03*
D38*
X117455000Y-78610000D03*
D40*
X121950000Y-80210000D03*
D38*
X117455000Y-81150000D03*
D40*
X123220000Y-80210000D03*
X123220000Y-75060000D03*
D38*
X125075000Y-81150000D03*
D40*
X121950000Y-75060000D03*
D38*
X125075000Y-78610000D03*
D40*
X120680000Y-75060000D03*
D38*
X125075000Y-76070000D03*
D40*
X119410000Y-75060000D03*
D38*
X125075000Y-73530000D03*
D12*
X222390000Y-63590000D03*
D13*
X222390000Y-63590000D03*
D41*
X154180000Y-116110000D03*
D42*
X154180000Y-118110000D03*
D43*
X85940000Y-81700000D03*
X85940000Y-78300000D03*
X76020000Y-81700000D03*
X76020000Y-78300000D03*
D14*
X113640000Y-81470000D03*
X113640000Y-86470000D03*
D32*
X82460000Y-66470000D03*
D33*
X82460000Y-71550000D03*
D44*
X87410000Y-92940000D03*
D45*
X87410000Y-107672000D03*
X109000000Y-107672000D03*
X109000000Y-92940000D03*
D18*
X161010000Y-112957349D03*
D14*
X161010000Y-117957349D03*
X129145000Y-65000000D03*
X124065000Y-65000000D03*
X212455000Y-69000000D03*
X207375000Y-69000000D03*
D46*
X133890000Y-66060000D03*
X136430000Y-68600000D03*
X133890000Y-71140000D03*
D47*
X156390000Y-71135000D03*
D48*
X146390000Y-72010000D03*
D47*
X156390000Y-64135000D03*
D48*
X146390000Y-63260000D03*
D49*
X69230000Y-92040000D03*
D12*
X61430000Y-92040000D03*
D22*
X140640000Y-89850000D03*
D50*
X138100000Y-106510000D03*
D51*
X140640000Y-106510000D03*
X143180000Y-106510000D03*
D22*
X156670000Y-89580000D03*
D50*
X154130000Y-106240000D03*
D51*
X156670000Y-106240000D03*
X159210000Y-106240000D03*
D22*
X125130000Y-89890000D03*
D50*
X122590000Y-106550000D03*
D51*
X125130000Y-106550000D03*
X127670000Y-106550000D03*
D18*
X188860000Y-89320000D03*
D52*
X191400000Y-89320000D03*
X193940000Y-89320000D03*
X196480000Y-89320000D03*
X199020000Y-89320000D03*
X201560000Y-89320000D03*
X204100000Y-89320000D03*
X206640000Y-89320000D03*
X209180000Y-89320000D03*
X211720000Y-89320000D03*
X214260000Y-89320000D03*
X216800000Y-89320000D03*
X219340000Y-89320000D03*
X221880000Y-89320000D03*
X224420000Y-89320000D03*
X224420000Y-74080000D03*
X221880000Y-74080000D03*
X219340000Y-74080000D03*
X216800000Y-74080000D03*
X214260000Y-74080000D03*
X211720000Y-74080000D03*
X209180000Y-74080000D03*
X206640000Y-74080000D03*
X204100000Y-74080000D03*
X201560000Y-74080000D03*
X199020000Y-74080000D03*
X196480000Y-74080000D03*
X193940000Y-74080000D03*
X191400000Y-74080000D03*
X188860000Y-74080000D03*
M02*
