M48
; DRILL file {KiCad 8.0.6} date 2024-11-16T12:34:36-0600
; FORMAT={-:-/ absolute / metric / decimal}
; #@! TF.CreationDate,2024-11-16T12:34:36-06:00
; #@! TF.GenerationSoftware,Kicad,Pcbnew,8.0.6
; #@! TF.FileFunction,Plated,1,2,PTH
FMAT,2
METRIC
; #@! TA.AperFunction,Plated,PTH,ViaDrill
T1C0.300
; #@! TA.AperFunction,Plated,PTH,ViaDrill
T2C0.600
; #@! TA.AperFunction,Plated,PTH,ComponentDrill
T3C0.600
; #@! TA.AperFunction,Plated,PTH,ComponentDrill
T4C0.800
; #@! TA.AperFunction,Plated,PTH,ComponentDrill
T5C0.950
; #@! TA.AperFunction,Plated,PTH,ComponentDrill
T6C1.000
; #@! TA.AperFunction,Plated,PTH,ComponentDrill
T7C1.100
; #@! TA.AperFunction,Plated,PTH,ComponentDrill
T8C1.250
; #@! TA.AperFunction,Plated,PTH,ComponentDrill
T9C1.300
; #@! TA.AperFunction,Plated,PTH,ComponentDrill
T10C1.500
; #@! TA.AperFunction,Plated,PTH,ComponentDrill
T11C1.600
; #@! TA.AperFunction,Plated,PTH,ComponentDrill
T12C1.750
; #@! TA.AperFunction,Plated,PTH,ComponentDrill
T13C1.780
; #@! TA.AperFunction,Plated,PTH,ComponentDrill
T14C3.500
%
G90
G05
T1
X110.524Y-82.749
X111.86Y-80.65
X113.61Y-90.72
X151.25Y-84.99
X156.09Y-80.49
X156.09Y-81.99
T2
X109.27Y-81.11
X151.18Y-80.12
X163.84Y-83.5
X186.6Y-83.52
X188.8Y-78.25
T3
X146.633Y-105.84
X148.633Y-105.84
T4
X92.28Y-84.04
X92.52Y-88.19
X97.36Y-84.04
X97.6Y-88.19
X101.73Y-81.84
X101.73Y-86.84
X106.17Y-77.48
X106.17Y-80.02
X106.17Y-82.56
X106.17Y-85.1
X113.74Y-102.59
X113.74Y-107.59
X113.79Y-77.48
X113.79Y-80.02
X113.79Y-82.56
X113.79Y-85.1
X114.82Y-67.47
X114.82Y-71.33
X117.58Y-76.32
X117.58Y-81.4
X119.9Y-67.47
X119.9Y-71.33
X124.96Y-67.01
X124.96Y-72.09
X125.08Y-77.5
X125.08Y-81.0
X125.29Y-110.24
X125.29Y-115.24
X127.5Y-69.55
X133.27Y-112.717
X133.27Y-117.717
X141.42Y-114.152
X141.42Y-116.652
X158.66Y-112.83
X158.66Y-117.83
X165.145Y-73.63
X165.345Y-77.13
X170.225Y-73.63
X170.425Y-77.13
X175.03Y-77.13
X175.045Y-73.64
X180.11Y-77.13
X180.125Y-73.64
T5
X180.02Y-82.23
X180.02Y-84.73
X180.02Y-87.23
X180.02Y-89.73
X180.02Y-92.23
X180.02Y-94.73
X180.02Y-97.23
X180.02Y-99.73
X180.02Y-102.23
X180.02Y-104.73
X180.02Y-107.23
X180.02Y-109.73
X180.02Y-112.23
X180.02Y-114.73
X180.02Y-117.23
T6
X62.17Y-91.91
X62.17Y-94.41
X96.08Y-73.588
X96.08Y-78.588
X188.67Y-71.77
X188.67Y-87.01
X191.21Y-71.77
X191.21Y-87.01
X193.75Y-71.77
X193.75Y-87.01
X196.29Y-71.77
X196.29Y-87.01
X198.83Y-71.77
X198.83Y-87.01
X201.37Y-71.77
X201.37Y-87.01
X203.91Y-71.77
X203.91Y-87.01
X206.45Y-71.77
X206.45Y-87.01
X208.99Y-71.77
X208.99Y-87.01
X211.53Y-71.77
X211.53Y-87.01
X214.07Y-71.77
X214.07Y-87.01
X216.61Y-71.77
X216.61Y-87.01
X219.15Y-71.77
X219.15Y-87.01
X221.69Y-71.77
X221.69Y-87.01
X224.23Y-71.77
X224.23Y-87.01
T7
X79.39Y-100.8
X79.39Y-103.34
X79.39Y-105.88
X89.49Y-67.5
X99.65Y-67.5
X118.83Y-107.0
X121.37Y-107.0
X123.91Y-107.0
X135.55Y-106.76
X138.09Y-106.76
X140.63Y-106.76
X153.6Y-106.66
X156.14Y-106.66
X158.68Y-106.66
X176.39Y-67.67
X178.93Y-67.67
X181.47Y-67.67
X184.01Y-67.67
X186.55Y-67.67
X189.09Y-67.67
T8
X85.386Y-92.934
X85.386Y-107.666
X106.976Y-92.934
X106.976Y-107.666
T9
X104.14Y-67.44
X109.14Y-67.44
T11
X67.54Y-94.19
X76.57Y-82.51
X76.57Y-87.59
X80.24Y-94.19
X84.93Y-82.63
X84.93Y-87.71
T13
X76.08Y-73.27
X76.08Y-76.67
X86.0Y-73.27
X86.0Y-76.67
T14
X62.03Y-115.12
X74.69Y-66.52
X197.54Y-117.69
X222.39Y-63.59
T6
X64.6Y-77.89G85X63.1Y-77.89
G05
X64.6Y-86.89G85X63.1Y-86.89
G05
X64.85Y-81.74G85X64.85Y-83.04
G05
X70.85Y-81.39G85X70.85Y-83.39
G05
T8
X156.135Y-72.015G85X156.635Y-72.015
G05
T10
X156.26Y-63.265G85X156.51Y-63.265
G05
T12
X146.385Y-63.453G85X146.385Y-64.828
G05
X146.385Y-70.453G85X146.385Y-71.828
G05
M30
