M48
; DRILL file {KiCad 8.0.6} date 2024-11-24T17:37:01-0600
; FORMAT={-:-/ absolute / metric / decimal}
; #@! TF.CreationDate,2024-11-24T17:37:01-06:00
; #@! TF.GenerationSoftware,Kicad,Pcbnew,8.0.6
; #@! TF.FileFunction,Plated,1,2,PTH
FMAT,2
METRIC
; #@! TA.AperFunction,Plated,PTH,ViaDrill
T1C0.300
; #@! TA.AperFunction,Plated,PTH,ViaDrill
T2C0.600
; #@! TA.AperFunction,Plated,PTH,ComponentDrill
T3C0.600
; #@! TA.AperFunction,Plated,PTH,ComponentDrill
T4C0.800
; #@! TA.AperFunction,Plated,PTH,ComponentDrill
T5C0.950
; #@! TA.AperFunction,Plated,PTH,ComponentDrill
T6C1.000
; #@! TA.AperFunction,Plated,PTH,ComponentDrill
T7C1.100
; #@! TA.AperFunction,Plated,PTH,ComponentDrill
T8C1.250
; #@! TA.AperFunction,Plated,PTH,ComponentDrill
T9C1.300
; #@! TA.AperFunction,Plated,PTH,ComponentDrill
T10C1.500
; #@! TA.AperFunction,Plated,PTH,ComponentDrill
T11C1.600
; #@! TA.AperFunction,Plated,PTH,ComponentDrill
T12C1.750
; #@! TA.AperFunction,Plated,PTH,ComponentDrill
T13C1.780
; #@! TA.AperFunction,Plated,PTH,ComponentDrill
T14C2.100
; #@! TA.AperFunction,Plated,PTH,ComponentDrill
T15C3.500
%
G90
G05
T1
X106.42Y-102.92
X115.73Y-89.7
X121.8Y-78.61
X123.28Y-76.78
T2
X84.62Y-104.52
X120.67Y-77.12
X120.72Y-73.08
X128.07Y-86.01
X151.657Y-79.643
X160.67Y-69.4
X167.66Y-89.69
X186.6Y-83.52
T3
X154.18Y-116.11
X154.18Y-118.11
T4
X74.44Y-93.13
X74.455Y-97.0
X79.52Y-93.13
X79.535Y-97.0
X95.39Y-83.36
X95.39Y-88.36
X113.64Y-81.47
X113.64Y-86.47
X117.455Y-73.53
X117.455Y-76.07
X117.455Y-78.61
X117.455Y-81.15
X123.86Y-110.28
X123.86Y-115.28
X124.065Y-65.0
X124.065Y-68.4
X125.075Y-73.53
X125.075Y-76.07
X125.075Y-78.61
X125.075Y-81.15
X128.4Y-110.21
X128.4Y-115.21
X128.7Y-75.395
X128.7Y-80.475
X129.145Y-65.0
X129.145Y-68.4
X133.89Y-66.06
X133.89Y-71.14
X135.91Y-111.867
X135.91Y-116.867
X136.24Y-76.873
X136.24Y-80.373
X136.43Y-68.6
X143.88Y-112.27
X143.88Y-114.77
X161.01Y-112.957
X161.01Y-117.957
X165.145Y-73.63
X165.345Y-77.13
X170.225Y-73.63
X170.425Y-77.13
X175.03Y-77.13
X175.045Y-73.64
X180.11Y-77.13
X180.125Y-73.64
T5
X180.02Y-82.23
X180.02Y-84.73
X180.02Y-87.23
X180.02Y-89.73
X180.02Y-92.23
X180.02Y-94.73
X180.02Y-97.23
X180.02Y-99.73
X180.02Y-102.23
X180.02Y-104.73
X180.02Y-107.23
X180.02Y-109.73
X180.02Y-112.23
X180.02Y-114.73
X180.02Y-117.23
T6
X98.16Y-76.88
X103.16Y-76.88
X188.67Y-71.77
X188.67Y-87.01
X191.21Y-71.77
X191.21Y-87.01
X193.75Y-71.77
X193.75Y-87.01
X196.29Y-71.77
X196.29Y-87.01
X198.83Y-71.77
X198.83Y-87.01
X201.37Y-71.77
X201.37Y-87.01
X203.91Y-71.77
X203.91Y-87.01
X206.45Y-71.77
X206.45Y-87.01
X208.99Y-71.77
X208.99Y-87.01
X211.53Y-71.77
X211.53Y-87.01
X214.07Y-71.77
X214.07Y-87.01
X216.61Y-71.77
X216.61Y-87.01
X219.15Y-71.77
X219.15Y-87.01
X221.69Y-71.77
X221.69Y-87.01
X224.23Y-71.77
X224.23Y-87.01
T7
X79.61Y-101.98
X79.61Y-104.52
X79.61Y-107.06
X107.99Y-77.07
X107.99Y-87.23
X122.59Y-106.55
X125.13Y-106.55
X127.67Y-106.55
X138.1Y-106.51
X140.64Y-106.51
X143.18Y-106.51
X154.13Y-106.24
X156.67Y-106.24
X159.21Y-106.24
X164.98Y-62.25
X167.52Y-62.25
X170.06Y-62.25
X172.6Y-62.25
X175.14Y-62.25
X177.68Y-62.25
T8
X87.41Y-92.94
X87.41Y-107.672
X109.0Y-92.94
X109.0Y-107.672
T9
X111.07Y-68.1
X111.07Y-73.1
T11
X74.68Y-87.67
X82.46Y-66.47
X82.46Y-71.55
X87.38Y-87.67
X89.62Y-65.54
X89.62Y-70.62
T13
X76.02Y-78.3
X76.02Y-81.7
X85.94Y-78.3
X85.94Y-81.7
T14
X61.43Y-92.04
X69.23Y-92.04
T15
X62.03Y-115.12
X74.69Y-66.25
X197.54Y-117.69
X222.39Y-63.59
T6
X64.6Y-77.89G85X63.1Y-77.89
G05
X64.6Y-86.89G85X63.1Y-86.89
G05
X64.85Y-81.74G85X64.85Y-83.04
G05
X70.85Y-81.39G85X70.85Y-83.39
G05
T8
X146.64Y-63.26G85X146.14Y-63.26
G05
T10
X146.515Y-72.01G85X146.265Y-72.01
G05
T12
X156.39Y-64.822G85X156.39Y-63.447
G05
X156.39Y-71.822G85X156.39Y-70.447
G05
M30
