M48
; DRILL file {KiCad 8.0.6} date 2024-12-01T22:04:36-0600
; FORMAT={-:-/ absolute / metric / decimal}
; #@! TF.CreationDate,2024-12-01T22:04:36-06:00
; #@! TF.GenerationSoftware,Kicad,Pcbnew,8.0.6
; #@! TF.FileFunction,Plated,1,2,PTH
FMAT,2
METRIC
; #@! TA.AperFunction,Plated,PTH,ViaDrill
T1C0.300
; #@! TA.AperFunction,Plated,PTH,ViaDrill
T2C0.600
; #@! TA.AperFunction,Plated,PTH,ComponentDrill
T3C0.600
; #@! TA.AperFunction,Plated,PTH,ComponentDrill
T4C0.800
; #@! TA.AperFunction,Plated,PTH,ComponentDrill
T5C0.950
; #@! TA.AperFunction,Plated,PTH,ComponentDrill
T6C1.000
; #@! TA.AperFunction,Plated,PTH,ComponentDrill
T7C1.100
; #@! TA.AperFunction,Plated,PTH,ComponentDrill
T8C1.250
; #@! TA.AperFunction,Plated,PTH,ComponentDrill
T9C1.300
; #@! TA.AperFunction,Plated,PTH,ComponentDrill
T10C1.500
; #@! TA.AperFunction,Plated,PTH,ComponentDrill
T11C1.600
; #@! TA.AperFunction,Plated,PTH,ComponentDrill
T12C1.750
; #@! TA.AperFunction,Plated,PTH,ComponentDrill
T13C1.780
; #@! TA.AperFunction,Plated,PTH,ComponentDrill
T14C2.100
; #@! TA.AperFunction,Plated,PTH,ComponentDrill
T15C3.500
%
G90
G05
T1
X106.42Y-102.92
X115.73Y-89.7
X121.8Y-78.61
X123.28Y-76.78
X162.87Y-73.58
X164.1Y-73.87
X199.17Y-83.48
T2
X84.62Y-104.52
X120.67Y-77.12
X120.72Y-73.08
X128.07Y-86.01
X151.657Y-79.643
X160.67Y-68.58
X167.66Y-89.69
X186.6Y-83.96
T3
X154.18Y-116.11
X154.18Y-118.11
T4
X74.44Y-93.13
X74.455Y-97.0
X79.52Y-93.13
X79.535Y-97.0
X95.39Y-83.36
X95.39Y-88.36
X113.64Y-81.47
X113.64Y-86.47
X117.455Y-73.53
X117.455Y-76.07
X117.455Y-78.61
X117.455Y-81.15
X123.86Y-110.28
X123.86Y-115.28
X124.065Y-65.0
X124.065Y-68.4
X125.075Y-73.53
X125.075Y-76.07
X125.075Y-78.61
X125.075Y-81.15
X128.4Y-110.21
X128.4Y-115.21
X128.7Y-75.395
X128.7Y-80.475
X129.145Y-65.0
X129.145Y-68.4
X133.89Y-66.06
X133.89Y-71.14
X135.91Y-111.867
X135.91Y-116.867
X136.24Y-76.873
X136.24Y-80.373
X136.43Y-68.6
X143.88Y-112.27
X143.88Y-114.77
X161.01Y-112.957
X161.01Y-117.957
X197.465Y-65.56
X197.485Y-69.0
X202.545Y-65.56
X202.565Y-69.0
X207.365Y-65.57
X207.375Y-69.0
X212.445Y-65.57
X212.455Y-69.0
T5
X180.02Y-82.23
X180.02Y-84.73
X180.02Y-87.23
X180.02Y-89.73
X180.02Y-92.23
X180.02Y-94.73
X180.02Y-97.23
X180.02Y-99.73
X180.02Y-102.23
X180.02Y-104.73
X180.02Y-107.23
X180.02Y-109.73
X180.02Y-112.23
X180.02Y-114.73
X180.02Y-117.23
T6
X98.16Y-76.88
X103.16Y-76.88
X188.86Y-74.08
X188.86Y-89.32
X191.4Y-74.08
X191.4Y-89.32
X193.94Y-74.08
X193.94Y-89.32
X196.48Y-74.08
X196.48Y-89.32
X199.02Y-74.08
X199.02Y-89.32
X201.56Y-74.08
X201.56Y-89.32
X204.1Y-74.08
X204.1Y-89.32
X206.64Y-74.08
X206.64Y-89.32
X209.18Y-74.08
X209.18Y-89.32
X211.72Y-74.08
X211.72Y-89.32
X214.26Y-74.08
X214.26Y-89.32
X216.8Y-74.08
X216.8Y-89.32
X219.34Y-74.08
X219.34Y-89.32
X221.88Y-74.08
X221.88Y-89.32
X224.42Y-74.08
X224.42Y-89.32
T7
X79.61Y-101.98
X79.61Y-104.52
X79.61Y-107.06
X107.99Y-77.07
X107.99Y-87.23
X122.59Y-106.55
X125.13Y-106.55
X127.67Y-106.55
X138.1Y-106.51
X140.64Y-106.51
X143.18Y-106.51
X154.13Y-106.24
X156.67Y-106.24
X159.21Y-106.24
X167.27Y-62.01
X169.81Y-62.01
X172.35Y-62.01
X174.89Y-62.01
X177.43Y-62.01
X179.97Y-62.01
T8
X87.41Y-92.94
X87.41Y-107.672
X109.0Y-92.94
X109.0Y-107.672
T9
X111.07Y-68.1
X111.07Y-73.1
T11
X74.68Y-87.67
X82.46Y-66.47
X82.46Y-71.55
X87.38Y-87.67
X89.62Y-65.54
X89.62Y-70.62
T13
X76.02Y-78.3
X76.02Y-81.7
X85.94Y-78.3
X85.94Y-81.7
T14
X61.43Y-92.04
X69.23Y-92.04
T15
X62.03Y-115.12
X74.69Y-66.25
X197.54Y-117.69
X222.39Y-63.59
T6
X64.6Y-77.89G85X63.1Y-77.89
G05
X64.6Y-86.89G85X63.1Y-86.89
G05
X64.85Y-81.74G85X64.85Y-83.04
G05
X70.85Y-81.39G85X70.85Y-83.39
G05
T8
X146.64Y-63.26G85X146.14Y-63.26
G05
T10
X146.515Y-72.01G85X146.265Y-72.01
G05
T12
X156.39Y-64.822G85X156.39Y-63.447
G05
X156.39Y-71.822G85X156.39Y-70.447
G05
M30
