M48
; DRILL file {KiCad 8.0.6} date 2024-11-05T16:15:49-0600
; FORMAT={-:-/ absolute / metric / decimal}
; #@! TF.CreationDate,2024-11-05T16:15:49-06:00
; #@! TF.GenerationSoftware,Kicad,Pcbnew,8.0.6
; #@! TF.FileFunction,Plated,1,2,PTH
FMAT,2
METRIC
; #@! TA.AperFunction,Plated,PTH,ViaDrill
T1C0.300
; #@! TA.AperFunction,Plated,PTH,ViaDrill
T2C0.600
; #@! TA.AperFunction,Plated,PTH,ComponentDrill
T3C0.600
; #@! TA.AperFunction,Plated,PTH,ComponentDrill
T4C0.762
; #@! TA.AperFunction,Plated,PTH,ComponentDrill
T5C0.800
; #@! TA.AperFunction,Plated,PTH,ComponentDrill
T6C0.950
; #@! TA.AperFunction,Plated,PTH,ComponentDrill
T7C1.000
; #@! TA.AperFunction,Plated,PTH,ComponentDrill
T8C1.100
; #@! TA.AperFunction,Plated,PTH,ComponentDrill
T9C1.250
; #@! TA.AperFunction,Plated,PTH,ComponentDrill
T10C1.300
; #@! TA.AperFunction,Plated,PTH,ComponentDrill
T11C1.500
; #@! TA.AperFunction,Plated,PTH,ComponentDrill
T12C1.780
; #@! TA.AperFunction,Plated,PTH,ComponentDrill
T13C3.500
%
G90
G05
T1
X110.524Y-82.749
X111.86Y-80.65
X156.09Y-80.49
X156.09Y-81.99
T2
X109.27Y-81.11
X151.18Y-80.12
X163.84Y-83.5
X186.6Y-83.52
T3
X146.633Y-105.84
X148.633Y-105.84
T4
X175.5Y-66.13
X178.04Y-66.13
X180.58Y-66.13
X183.12Y-66.13
X185.66Y-66.13
X188.2Y-66.13
T5
X92.28Y-84.04
X92.52Y-88.19
X97.36Y-84.04
X97.6Y-88.19
X101.73Y-81.84
X101.73Y-86.84
X106.17Y-77.48
X106.17Y-80.02
X106.17Y-82.56
X106.17Y-85.1
X113.74Y-102.59
X113.74Y-107.59
X113.79Y-77.48
X113.79Y-80.02
X113.79Y-82.56
X113.79Y-85.1
X114.82Y-67.47
X114.82Y-71.33
X117.58Y-76.32
X117.58Y-81.4
X119.9Y-67.47
X119.9Y-71.33
X125.08Y-77.5
X125.08Y-81.0
X125.18Y-68.79
X125.29Y-110.24
X125.29Y-115.24
X127.72Y-71.33
X130.26Y-68.79
X133.27Y-112.717
X133.27Y-117.717
X141.42Y-114.152
X141.42Y-116.652
X158.66Y-112.83
X158.66Y-117.83
X165.175Y-73.09
X165.345Y-77.13
X170.255Y-73.09
X170.425Y-77.13
X175.03Y-77.13
X175.07Y-73.09
X180.11Y-77.13
X180.15Y-73.09
T6
X180.02Y-82.23
X180.02Y-84.73
X180.02Y-87.23
X180.02Y-89.73
X180.02Y-92.23
X180.02Y-94.73
X180.02Y-97.23
X180.02Y-99.73
X180.02Y-102.23
X180.02Y-104.73
X180.02Y-107.23
X180.02Y-109.73
X180.02Y-112.23
X180.02Y-114.73
X180.02Y-117.23
T7
X62.77Y-93.45
X65.27Y-93.45
X96.08Y-73.588
X96.08Y-78.588
X188.69Y-71.17
X188.69Y-86.41
X191.23Y-71.17
X191.23Y-86.41
X193.77Y-71.17
X193.77Y-86.41
X196.31Y-71.17
X196.31Y-86.41
X198.85Y-71.17
X198.85Y-86.41
X201.39Y-71.17
X201.39Y-86.41
X203.93Y-71.17
X203.93Y-86.41
X206.47Y-71.17
X206.47Y-86.41
X209.01Y-71.17
X209.01Y-86.41
X211.55Y-71.17
X211.55Y-86.41
X214.09Y-71.17
X214.09Y-86.41
X216.63Y-71.17
X216.63Y-86.41
X219.17Y-71.17
X219.17Y-86.41
X221.71Y-71.17
X221.71Y-86.41
X224.25Y-71.17
X224.25Y-86.41
T8
X70.77Y-93.01
X75.36Y-83.17
X75.43Y-87.96
X79.39Y-100.8
X79.39Y-103.34
X79.39Y-105.88
X80.93Y-93.01
X85.52Y-83.17
X85.59Y-87.96
X89.49Y-67.5
X99.65Y-67.5
X118.83Y-107.0
X121.37Y-107.0
X123.91Y-107.0
X135.55Y-106.76
X138.09Y-106.76
X140.63Y-106.76
X153.6Y-106.66
X156.14Y-106.66
X158.68Y-106.66
T9
X85.386Y-92.934
X85.386Y-107.666
X106.976Y-92.934
X106.976Y-107.666
T10
X104.55Y-67.4
X109.55Y-67.4
T12
X76.08Y-73.27
X76.08Y-76.67
X86.0Y-73.27
X86.0Y-76.67
T13
X62.03Y-115.12
X74.69Y-66.52
X197.54Y-117.69
X222.39Y-63.59
T7
X64.6Y-77.89G85X63.1Y-77.89
G05
X64.6Y-86.89G85X63.1Y-86.89
G05
X64.85Y-81.74G85X64.85Y-83.04
G05
X70.85Y-81.39G85X70.85Y-83.39
G05
T9
X146.135Y-72.015G85X146.635Y-72.015
G05
X156.135Y-72.015G85X156.635Y-72.015
G05
T11
X146.26Y-63.265G85X146.51Y-63.265
G05
X156.26Y-63.265G85X156.51Y-63.265
G05
M30
