G04 #@! TF.GenerationSoftware,KiCad,Pcbnew,8.0.6*
G04 #@! TF.CreationDate,2024-11-24T17:36:23-06:00*
G04 #@! TF.ProjectId,1400-PSU,31343030-2d50-4535-952e-6b696361645f,rev?*
G04 #@! TF.SameCoordinates,Original*
G04 #@! TF.FileFunction,Legend,Bot*
G04 #@! TF.FilePolarity,Positive*
%FSLAX46Y46*%
G04 Gerber Fmt 4.6, Leading zero omitted, Abs format (unit mm)*
G04 Created by KiCad (PCBNEW 8.0.6) date 2024-11-24 17:36:23*
%MOMM*%
%LPD*%
G01*
G04 APERTURE LIST*
G04 Aperture macros list*
%AMRoundRect*
0 Rectangle with rounded corners*
0 $1 Rounding radius*
0 $2 $3 $4 $5 $6 $7 $8 $9 X,Y pos of 4 corners*
0 Add a 4 corners polygon primitive as box body*
4,1,4,$2,$3,$4,$5,$6,$7,$8,$9,$2,$3,0*
0 Add four circle primitives for the rounded corners*
1,1,$1+$1,$2,$3*
1,1,$1+$1,$4,$5*
1,1,$1+$1,$6,$7*
1,1,$1+$1,$8,$9*
0 Add four rect primitives between the rounded corners*
20,1,$1+$1,$2,$3,$4,$5,0*
20,1,$1+$1,$4,$5,$6,$7,0*
20,1,$1+$1,$6,$7,$8,$9,0*
20,1,$1+$1,$8,$9,$2,$3,0*%
G04 Aperture macros list end*
%ADD10C,3.900000*%
%ADD11C,7.000000*%
%ADD12C,1.600000*%
%ADD13R,2.000000X4.000000*%
%ADD14O,2.000000X3.300000*%
%ADD15O,3.500000X2.000000*%
%ADD16R,1.600000X1.600000*%
%ADD17R,2.200000X2.200000*%
%ADD18O,2.200000X2.200000*%
%ADD19C,2.600000*%
%ADD20O,3.500000X3.500000*%
%ADD21R,2.000000X1.905000*%
%ADD22O,2.000000X1.905000*%
%ADD23RoundRect,0.250000X-0.725000X0.600000X-0.725000X-0.600000X0.725000X-0.600000X0.725000X0.600000X0*%
%ADD24O,1.950000X1.700000*%
%ADD25R,3.200000X3.200000*%
%ADD26O,3.200000X3.200000*%
%ADD27R,2.000000X2.000000*%
%ADD28C,2.000000*%
%ADD29R,2.000000X1.600000*%
%ADD30O,1.600000X1.600000*%
%ADD31R,1.200000X1.200000*%
%ADD32C,1.200000*%
%ADD33C,2.780000*%
%ADD34R,1.905000X1.905000*%
%ADD35C,1.905000*%
%ADD36RoundRect,0.375000X-1.125000X-1.125000X1.125000X-1.125000X1.125000X1.125000X-1.125000X1.125000X0*%
%ADD37C,3.000000*%
%ADD38C,1.440000*%
%ADD39RoundRect,0.333333X1.666667X2.166667X-1.666667X2.166667X-1.666667X-2.166667X1.666667X-2.166667X0*%
%ADD40RoundRect,0.250000X1.750000X1.250000X-1.750000X1.250000X-1.750000X-1.250000X1.750000X-1.250000X0*%
%ADD41RoundRect,0.250002X1.699998X1.699998X-1.699998X1.699998X-1.699998X-1.699998X1.699998X-1.699998X0*%
%ADD42R,1.905000X2.000000*%
%ADD43O,1.905000X2.000000*%
G04 APERTURE END LIST*
%LPC*%
D10*
X197540000Y-117690000D03*
D11*
X197540000Y-117690000D03*
D12*
X61850000Y-82390000D03*
D13*
X70850000Y-82390000D03*
D14*
X64850000Y-82390000D03*
D15*
X63850000Y-77890000D03*
X63850000Y-86890000D03*
D12*
X128400000Y-110210000D03*
X128400000Y-115210000D03*
X74455000Y-97000000D03*
X79535000Y-97000000D03*
D16*
X95390000Y-88360000D03*
D12*
X95390000Y-83360000D03*
D16*
X143880000Y-114770000D03*
D12*
X143880000Y-112270000D03*
D17*
X107990000Y-77070000D03*
D18*
X107990000Y-87230000D03*
D19*
X111070000Y-68100000D03*
X111070000Y-73100000D03*
D20*
X62950000Y-104520000D03*
D21*
X79610000Y-107060000D03*
D22*
X79610000Y-104520000D03*
X79610000Y-101980000D03*
D12*
X165145000Y-73630000D03*
X170225000Y-73630000D03*
D16*
X136240000Y-80372651D03*
D12*
X136240000Y-76872651D03*
D16*
X135910000Y-111867349D03*
D12*
X135910000Y-116867349D03*
D23*
X180020000Y-82230000D03*
D24*
X180020000Y-84730000D03*
X180020000Y-87230000D03*
X180020000Y-89730000D03*
X180020000Y-92230000D03*
X180020000Y-94730000D03*
X180020000Y-97230000D03*
X180020000Y-99730000D03*
X180020000Y-102230000D03*
X180020000Y-104730000D03*
X180020000Y-107230000D03*
X180020000Y-109730000D03*
X180020000Y-112230000D03*
X180020000Y-114730000D03*
X180020000Y-117230000D03*
D12*
X123860000Y-110280000D03*
X123860000Y-115280000D03*
X175045000Y-73640000D03*
X180125000Y-73640000D03*
D10*
X62030000Y-115120000D03*
D11*
X62030000Y-115120000D03*
D25*
X74680000Y-87670000D03*
D26*
X87380000Y-87670000D03*
D12*
X165345000Y-77130000D03*
X170425000Y-77130000D03*
X128700000Y-75395000D03*
X128700000Y-80475000D03*
D10*
X74690000Y-66250000D03*
D11*
X74690000Y-66250000D03*
D12*
X79520000Y-93130000D03*
X74440000Y-93130000D03*
X129145000Y-68400000D03*
X124065000Y-68400000D03*
D27*
X98160000Y-76880000D03*
D28*
X103160000Y-76880000D03*
D25*
X89620000Y-65540000D03*
D26*
X89620000Y-70620000D03*
D29*
X117455000Y-73530000D03*
D28*
X117455000Y-76070000D03*
X117455000Y-78610000D03*
X117455000Y-81150000D03*
X125075000Y-81150000D03*
X125075000Y-78610000D03*
X125075000Y-76070000D03*
X125075000Y-73530000D03*
D16*
X188670000Y-87010000D03*
D30*
X191210000Y-87010000D03*
X193750000Y-87010000D03*
X196290000Y-87010000D03*
X198830000Y-87010000D03*
X201370000Y-87010000D03*
X203910000Y-87010000D03*
X206450000Y-87010000D03*
X208990000Y-87010000D03*
X211530000Y-87010000D03*
X214070000Y-87010000D03*
X216610000Y-87010000D03*
X219150000Y-87010000D03*
X221690000Y-87010000D03*
X224230000Y-87010000D03*
X224230000Y-71770000D03*
X221690000Y-71770000D03*
X219150000Y-71770000D03*
X216610000Y-71770000D03*
X214070000Y-71770000D03*
X211530000Y-71770000D03*
X208990000Y-71770000D03*
X206450000Y-71770000D03*
X203910000Y-71770000D03*
X201370000Y-71770000D03*
X198830000Y-71770000D03*
X196290000Y-71770000D03*
X193750000Y-71770000D03*
X191210000Y-71770000D03*
X188670000Y-71770000D03*
D10*
X222390000Y-63590000D03*
D11*
X222390000Y-63590000D03*
D31*
X154180000Y-116110000D03*
D32*
X154180000Y-118110000D03*
D33*
X85940000Y-81700000D03*
X85940000Y-78300000D03*
X76020000Y-81700000D03*
X76020000Y-78300000D03*
D12*
X113640000Y-81470000D03*
X113640000Y-86470000D03*
D34*
X177680000Y-62250000D03*
D35*
X175140000Y-62250000D03*
X172600000Y-62250000D03*
X170060000Y-62250000D03*
X167520000Y-62250000D03*
X164980000Y-62250000D03*
D25*
X82460000Y-66470000D03*
D26*
X82460000Y-71550000D03*
D36*
X87410000Y-92940000D03*
D37*
X87410000Y-107672000D03*
X109000000Y-107672000D03*
X109000000Y-92940000D03*
D16*
X161010000Y-112957349D03*
D12*
X161010000Y-117957349D03*
X129145000Y-65000000D03*
X124065000Y-65000000D03*
X175030000Y-77130000D03*
X180110000Y-77130000D03*
D38*
X133890000Y-66060000D03*
X136430000Y-68600000D03*
X133890000Y-71140000D03*
D39*
X156390000Y-71135000D03*
D40*
X146390000Y-72010000D03*
D39*
X156390000Y-64135000D03*
D40*
X146390000Y-63260000D03*
D41*
X69230000Y-92040000D03*
D10*
X61430000Y-92040000D03*
D20*
X140640000Y-89850000D03*
D42*
X138100000Y-106510000D03*
D43*
X140640000Y-106510000D03*
X143180000Y-106510000D03*
D20*
X156670000Y-89580000D03*
D42*
X154130000Y-106240000D03*
D43*
X156670000Y-106240000D03*
X159210000Y-106240000D03*
D20*
X125130000Y-89890000D03*
D42*
X122590000Y-106550000D03*
D43*
X125130000Y-106550000D03*
X127670000Y-106550000D03*
%LPD*%
M02*
